{"glyphs":{"0":{"ha":1011,"x_min":28,"x_max":975,"o":"m 497 1086 q 678 1051 592 1086 q 830 953 764 1015 q 935 808 896 892 q 975 628 975 725 q 949 394 975 507 q 867 195 922 282 q 725 56 811 108 q 519 4 639 4 q 292 34 386 4 q 140 127 199 64 q 54 291 81 190 q 28 533 28 392 q 53 753 28 651 q 134 928 78 854 q 280 1044 190 1001 q 497 1086 369 1086 m 319 546 q 329 438 319 493 q 360 339 339 383 q 417 266 382 294 q 503 238 453 238 q 588 260 554 238 q 641 325 621 282 q 669 431 661 368 q 678 575 678 494 q 664 692 678 638 q 627 788 650 747 q 573 853 604 829 q 507 878 542 878 q 438 852 472 878 q 378 782 404 826 q 335 677 351 738 q 319 546 319 617 z "},"1":{"ha":494,"x_min":19,"x_max":440,"o":"m 213 1036 q 297 1023 257 1036 q 365 988 336 1010 q 412 935 394 965 q 429 868 429 904 q 436 528 432 697 q 440 188 440 358 q 393 58 440 103 q 254 14 346 14 q 161 46 192 14 q 135 140 131 78 l 171 819 q 122 803 147 813 q 74 794 97 794 q 38 811 47 794 q 25 850 28 828 q 21 883 22 867 q 19 915 19 900 q 38 979 19 956 q 85 1015 57 1003 q 147 1032 113 1028 q 213 1036 182 1036 z "},"2":{"ha":874,"x_min":51,"x_max":836,"o":"m 404 1056 q 685 957 594 1056 q 776 672 776 858 q 747 574 776 625 q 672 472 717 522 q 572 376 626 422 q 470 294 518 331 q 388 233 422 257 q 346 203 353 210 q 535 232 440 218 q 722 261 629 246 q 739 263 731 263 q 756 264 747 264 q 836 183 836 264 q 797 64 836 108 q 681 17 758 19 q 465 6 572 11 q 249 1 357 1 q 182 14 217 1 q 118 48 147 26 q 70 99 89 69 q 51 164 51 129 q 63 210 51 189 q 90 250 74 232 q 152 310 111 272 q 242 393 193 347 q 343 488 292 439 q 437 585 394 538 q 506 673 479 632 q 533 742 533 714 q 522 779 533 763 q 490 808 510 796 q 447 826 471 819 q 396 832 422 832 q 323 808 353 832 q 267 753 293 783 q 216 699 242 724 q 156 675 190 675 q 119 690 135 675 q 94 727 104 706 q 80 772 85 749 q 75 811 75 794 q 105 898 75 854 q 182 976 135 942 q 288 1033 229 1011 q 404 1056 346 1056 z "},"3":{"ha":857,"x_min":46,"x_max":829,"o":"m 382 1063 q 524 1048 454 1063 q 649 1003 594 1033 q 738 924 704 972 q 772 807 772 875 q 756 717 772 760 q 715 639 740 674 q 659 580 690 604 q 599 546 628 556 q 692 514 650 533 q 765 463 735 494 q 813 383 796 431 q 829 264 829 335 q 797 165 829 215 q 713 73 764 114 q 599 6 661 32 q 476 -21 536 -21 q 359 -16 425 -21 q 234 6 293 -11 q 134 53 175 22 q 93 133 93 83 q 99 179 93 156 q 116 223 104 203 q 146 256 128 243 q 190 268 164 268 q 241 257 210 268 q 306 232 272 246 q 370 207 339 218 q 422 196 401 196 q 469 210 446 196 q 510 244 492 224 q 540 290 528 265 q 551 338 551 315 q 530 383 551 365 q 479 410 508 400 q 419 424 450 419 q 368 428 388 428 q 287 431 328 431 q 210 438 246 431 q 149 511 149 450 q 155 544 149 526 q 172 578 161 563 q 195 605 182 593 q 224 618 208 617 l 433 646 q 474 664 456 649 q 508 700 493 679 q 531 745 522 721 q 539 790 539 769 q 522 831 539 819 q 464 842 504 842 q 365 826 410 842 q 283 794 321 811 q 214 761 246 776 q 150 746 182 746 q 104 760 124 746 q 72 795 85 774 q 52 842 58 817 q 46 889 46 867 q 72 963 46 931 q 142 1017 97 996 q 249 1051 188 1039 q 382 1063 310 1063 z "},"4":{"ha":756,"x_min":21,"x_max":725,"o":"m 467 914 q 510 1019 469 985 q 621 1053 551 1053 q 698 1023 675 1053 q 722 942 721 993 q 724 564 725 751 q 724 186 724 376 q 676 53 724 94 q 540 13 628 13 q 452 44 479 13 q 425 135 425 76 q 428 219 425 176 q 435 303 432 261 q 314 309 375 311 q 194 317 253 307 q 64 390 107 331 q 21 540 21 450 q 23 691 21 615 q 28 843 25 767 q 80 976 31 931 q 221 1022 129 1022 q 332 911 332 1022 q 332 895 332 903 q 331 879 332 888 l 286 507 l 444 499 l 467 914 z "},"5":{"ha":799,"x_min":39,"x_max":775,"o":"m 425 1042 q 517 1040 471 1042 q 610 1036 564 1039 q 724 914 724 1031 q 635 819 724 819 q 618 821 624 819 l 303 838 q 303 726 306 785 q 307 608 301 668 q 398 617 351 611 q 489 622 444 622 q 609 595 556 622 q 699 520 663 568 q 756 406 736 472 q 775 264 775 340 q 744 167 775 218 q 667 75 713 117 q 567 6 621 33 q 467 -21 513 -21 q 300 -6 383 -21 q 139 33 217 8 q 68 67 97 47 q 39 133 39 86 q 44 179 39 156 q 62 223 50 203 q 92 256 74 243 q 136 268 110 268 q 163 265 150 268 q 190 257 176 261 q 228 240 210 251 q 266 218 247 229 q 304 199 285 207 q 342 192 324 192 q 392 207 365 192 q 440 244 418 222 q 477 293 463 267 q 492 342 492 319 q 486 371 492 358 q 457 401 476 392 q 413 413 438 410 q 362 415 389 415 q 308 414 335 414 q 152 463 213 414 q 88 614 92 513 q 81 757 85 685 q 76 901 76 829 q 106 987 76 958 q 190 1021 135 1015 l 307 1032 q 366 1038 338 1035 q 425 1042 394 1042 z "},"6":{"ha":846,"x_min":33,"x_max":825,"o":"m 428 -12 q 249 20 324 -12 q 127 111 175 53 q 56 251 79 169 q 33 428 33 332 q 40 546 33 479 q 60 682 46 613 q 101 819 75 751 q 166 940 126 888 q 260 1026 206 993 q 389 1058 315 1058 q 460 1057 432 1058 q 513 1053 488 1056 q 565 1047 538 1051 q 636 1039 593 1043 q 736 998 704 1031 q 768 894 768 965 q 748 829 768 853 q 683 806 728 806 q 669 806 676 806 q 656 807 663 806 q 600 819 626 811 q 549 835 574 828 q 500 849 524 843 q 456 856 476 856 q 406 844 428 856 q 363 806 379 831 q 335 750 346 781 q 317 688 324 719 q 304 628 311 656 q 401 663 349 656 q 511 671 454 671 q 637 647 579 671 q 736 581 694 624 q 801 480 778 538 q 825 353 825 422 q 790 216 825 282 q 698 99 754 150 q 570 18 642 49 q 428 -12 499 -12 m 407 482 q 353 469 378 482 q 311 437 329 457 q 283 391 293 417 q 274 338 274 365 q 283 281 274 307 q 310 235 293 254 q 349 204 326 215 q 396 193 371 193 q 460 205 429 193 q 515 238 492 217 q 553 285 539 258 q 567 342 567 313 q 523 444 567 406 q 407 482 479 482 z "},"7":{"ha":683,"x_min":19,"x_max":649,"o":"m 451 1042 q 537 1028 500 1042 q 599 994 574 1015 q 636 949 624 974 q 649 899 649 924 q 643 861 649 878 l 469 147 q 442 75 458 101 q 400 35 425 49 q 341 17 375 21 q 263 14 307 14 q 194 31 222 14 q 165 93 165 47 q 169 126 165 110 q 178 160 172 143 l 390 819 q 263 810 326 815 q 135 806 199 806 q 47 840 74 806 q 19 933 19 875 q 48 1008 19 986 q 126 1033 76 1031 q 451 1042 289 1042 z "},"8":{"ha":971,"x_min":32,"x_max":946,"o":"m 451 1071 q 596 1058 521 1071 q 734 1013 671 1046 q 838 926 797 981 q 879 788 879 871 q 865 723 879 751 q 827 671 850 694 q 776 627 804 647 q 724 586 749 607 q 816 530 775 557 q 886 469 857 503 q 931 392 915 436 q 946 283 946 347 q 915 165 946 219 q 826 72 885 111 q 681 10 767 32 q 485 -12 596 -12 q 419 -11 461 -12 q 326 -1 376 -10 q 223 27 275 8 q 128 81 171 46 q 59 171 86 117 q 32 303 32 225 q 46 415 32 372 q 85 485 60 457 q 144 530 110 513 q 217 565 178 547 q 162 601 189 578 q 113 656 135 625 q 77 726 90 688 q 64 806 64 764 q 104 921 64 871 q 204 1004 144 971 q 331 1054 264 1038 q 451 1071 397 1071 m 479 890 q 428 884 454 890 q 382 864 403 878 q 348 828 361 850 q 335 775 335 806 q 340 729 335 751 q 359 690 344 707 q 401 663 374 674 q 475 653 429 653 q 536 659 507 653 q 588 680 565 665 q 623 719 610 694 q 636 782 636 744 q 628 821 636 801 q 601 856 619 840 q 552 881 582 871 q 479 890 522 890 m 643 375 q 626 428 643 404 q 584 467 608 451 q 533 492 560 483 q 485 500 506 500 q 321 349 321 500 q 334 288 321 314 q 370 242 347 261 q 423 214 393 224 q 486 204 453 204 q 535 219 508 204 q 587 260 563 235 q 627 315 611 285 q 643 375 643 346 z "},"9":{"ha":839,"x_min":26,"x_max":817,"o":"m 422 1058 q 601 1026 526 1058 q 723 935 675 993 q 794 795 771 876 q 817 618 817 714 q 810 500 817 567 q 790 364 804 433 q 749 226 775 294 q 684 106 724 158 q 590 20 644 53 q 463 -12 536 -12 q 392 -11 419 -12 q 338 -8 364 -10 q 285 -1 313 -6 q 214 7 257 3 q 115 48 146 15 q 83 151 83 81 q 103 217 83 193 q 167 240 122 240 q 181 240 174 240 q 194 239 188 239 q 251 226 224 235 q 303 210 278 218 q 351 197 328 203 q 396 190 374 190 q 444 201 424 190 q 488 240 471 215 q 515 296 504 265 q 534 358 526 326 q 547 418 542 390 q 449 383 503 390 q 339 375 396 375 q 215 399 272 375 q 115 465 157 422 q 50 565 74 507 q 26 692 26 624 q 62 829 26 763 q 153 947 97 896 q 281 1028 210 997 q 422 1058 351 1058 m 444 564 q 498 576 474 564 q 540 609 522 589 q 568 655 558 629 q 578 708 578 681 q 568 765 578 739 q 542 811 558 792 q 503 842 525 831 q 456 853 481 853 q 390 841 421 853 q 336 808 360 829 q 299 760 313 788 q 285 704 285 733 q 328 602 285 640 q 444 564 371 564 z "},"\u0000":{"ha":0,"x_min":0,"x_max":0,"o":""},"\r":{"ha":347,"x_min":0,"x_max":0,"o":""}," ":{"ha":271,"x_min":0,"x_max":0,"o":""},"!":{"ha":388,"x_min":39,"x_max":350,"o":"m 190 376 q 78 478 88 376 l 40 903 q 39 917 39 910 q 39 931 39 924 q 81 1040 39 1007 q 196 1074 122 1074 q 308 1042 267 1074 q 350 935 350 1010 q 349 919 350 926 q 349 904 349 911 l 303 478 q 190 376 293 376 m 196 1 q 90 31 128 1 q 53 133 53 61 q 83 231 53 200 q 181 261 114 261 q 286 232 249 261 q 324 131 324 203 q 196 1 324 1 z "},"\"":{"ha":513,"x_min":26,"x_max":485,"o":"m 125 638 q 39 719 43 638 q 31 863 36 790 q 26 1006 26 935 q 53 1080 26 1057 q 129 1103 79 1103 q 206 1081 178 1103 q 231 1008 233 1058 l 211 721 q 125 638 207 638 m 379 638 q 294 719 299 638 q 286 863 292 790 q 281 1006 281 935 q 308 1080 281 1057 q 383 1103 335 1103 q 458 1081 432 1103 q 485 1008 485 1058 l 467 721 q 379 638 463 638 z "},"#":{"ha":1139,"x_min":24,"x_max":1100,"o":"m 221 0 q 147 14 176 0 q 117 67 118 28 l 117 71 q 119 111 117 89 q 127 156 122 133 q 138 201 132 179 q 146 242 143 224 q 106 242 128 242 q 66 244 85 242 q 35 258 47 247 q 24 289 24 268 q 28 357 24 333 q 49 392 33 381 q 94 405 64 403 q 175 407 124 407 l 229 703 q 197 701 214 701 q 161 700 179 700 q 102 710 128 700 q 76 753 76 719 q 79 788 76 769 q 85 822 82 806 q 178 889 93 889 l 263 889 l 282 993 q 311 1049 289 1028 q 379 1069 333 1069 q 468 1051 429 1069 q 507 989 507 1033 q 501 938 507 964 q 492 886 496 911 l 708 885 l 729 993 q 758 1049 736 1028 q 826 1069 781 1069 q 915 1051 876 1069 q 953 988 953 1033 q 947 935 953 961 q 938 883 942 908 q 1010 883 979 883 q 1060 874 1040 882 q 1090 847 1081 867 q 1100 789 1100 828 q 1081 740 1100 756 q 1034 719 1063 725 q 972 715 1006 714 q 910 715 939 715 l 858 414 q 944 414 908 414 q 1003 404 981 414 q 1037 370 1026 394 q 1047 300 1047 346 q 1022 244 1047 263 q 950 226 996 226 q 889 227 919 226 q 826 228 858 228 l 804 97 q 668 0 789 0 q 592 15 621 0 q 563 74 564 31 q 573 153 563 110 q 590 233 583 197 l 382 238 l 358 97 q 221 0 342 0 m 624 411 l 678 711 l 461 707 l 411 410 l 624 411 z "},"$":{"ha":917,"x_min":47,"x_max":896,"o":"m 490 -261 q 430 -251 453 -261 q 394 -222 407 -240 q 376 -176 381 -203 q 372 -117 372 -149 q 373 -78 372 -97 q 374 -40 374 -60 l 371 -40 q 333 -33 363 -40 q 268 -15 303 -25 q 202 3 233 -6 q 160 15 171 13 q 79 58 111 29 q 47 143 47 88 q 53 193 47 167 q 71 242 58 219 q 103 280 83 265 q 153 294 124 294 q 207 284 179 294 q 263 260 235 274 q 319 235 292 247 q 369 218 346 222 l 367 446 q 267 475 318 454 q 173 530 215 496 q 103 613 131 564 q 76 724 76 661 q 89 858 76 803 q 134 949 101 913 q 224 1006 167 985 q 374 1038 282 1026 q 375 1117 374 1088 q 389 1163 376 1147 q 429 1184 401 1179 q 511 1189 457 1189 q 577 1174 553 1189 q 601 1113 601 1160 q 601 1075 601 1093 q 599 1038 600 1057 l 732 1018 q 803 990 774 1011 q 833 922 833 969 q 828 873 833 900 q 810 823 822 846 q 778 785 797 800 q 731 769 758 769 q 660 781 694 769 q 592 803 626 793 l 588 638 l 757 617 q 833 582 806 611 q 874 512 860 553 q 892 423 889 471 q 896 331 896 375 l 896 257 q 876 126 896 176 q 817 47 856 76 q 722 5 778 18 q 596 -17 667 -8 q 599 -85 597 -51 q 600 -154 600 -119 q 490 -261 600 -261 m 293 735 q 300 710 293 719 q 318 692 307 700 q 342 678 329 685 q 368 665 356 672 l 369 813 q 293 735 293 778 m 619 194 q 658 214 640 192 q 679 257 676 236 q 681 299 681 275 q 676 343 681 322 q 663 380 672 364 q 635 399 653 396 l 585 408 l 590 197 l 619 194 z "},"%":{"ha":1414,"x_min":47,"x_max":1357,"o":"m 369 -125 q 331 -120 353 -125 q 291 -106 310 -115 q 259 -82 272 -97 q 246 -46 246 -67 q 252 -14 246 -29 q 268 15 258 1 l 919 1043 q 958 1085 935 1069 q 1013 1101 981 1101 q 1046 1097 1028 1101 q 1080 1085 1064 1093 q 1107 1063 1096 1076 q 1118 1032 1118 1050 q 1113 1005 1118 1018 q 1101 981 1108 992 l 483 -53 q 436 -105 464 -85 q 369 -125 408 -125 m 339 1061 q 442 1039 390 1061 q 536 980 494 1017 q 603 894 578 943 q 629 793 629 846 q 607 676 629 735 q 546 569 585 617 q 454 492 507 522 q 340 463 401 463 q 221 485 275 463 q 128 549 167 508 q 69 646 90 590 q 47 767 47 701 q 67 885 47 832 q 125 978 88 939 q 217 1040 163 1018 q 339 1061 271 1061 m 228 847 q 219 803 222 828 q 215 751 215 778 q 219 697 215 724 q 234 650 224 671 q 262 616 244 629 q 304 603 279 603 q 372 619 343 603 q 419 661 400 636 q 447 715 438 686 q 457 768 457 744 q 450 826 457 792 q 428 891 443 860 q 392 944 414 922 q 339 967 369 967 q 303 955 321 967 q 269 926 285 943 q 243 888 254 908 q 228 847 232 867 m 1068 493 q 1171 471 1119 493 q 1264 411 1222 449 q 1331 325 1306 374 q 1357 224 1357 276 q 1335 106 1357 165 q 1275 0 1314 47 q 1183 -77 1236 -47 q 1069 -107 1131 -107 q 950 -84 1004 -107 q 858 -20 896 -61 q 798 76 819 21 q 776 197 776 132 q 797 317 776 263 q 854 410 817 371 q 946 471 892 449 q 1068 493 1000 493 m 956 278 q 948 233 951 258 q 944 182 944 208 q 949 128 944 154 q 963 81 953 101 q 991 47 974 60 q 1033 33 1008 33 q 1101 50 1072 33 q 1148 92 1129 67 q 1176 146 1167 117 q 1185 199 1185 175 q 1178 256 1185 222 q 1156 322 1171 290 q 1120 375 1142 353 q 1068 397 1099 397 q 1031 385 1050 397 q 997 356 1013 374 q 971 318 982 339 q 956 278 960 297 z "},"&":{"ha":944,"x_min":49,"x_max":892,"o":"m 792 251 q 815 226 800 242 q 844 191 829 210 q 869 153 858 172 q 881 118 881 133 q 869 83 881 101 q 837 49 857 64 q 790 24 817 33 q 736 14 764 14 q 700 24 718 14 q 665 50 682 35 q 635 82 649 65 q 614 111 622 99 q 570 83 604 107 q 491 31 536 58 q 398 -17 446 4 q 314 -39 350 -39 q 201 -14 250 -39 q 117 52 151 11 q 66 147 83 93 q 49 257 49 200 q 58 366 49 318 q 91 456 67 414 q 156 538 115 499 q 258 621 196 578 l 175 725 q 129 851 129 783 q 155 972 129 926 q 224 1042 181 1018 q 325 1073 268 1065 q 444 1081 382 1081 q 521 1064 483 1081 q 588 1019 558 1047 q 635 955 617 992 q 653 878 653 918 q 641 794 653 832 q 609 725 629 757 q 563 663 589 693 q 507 600 536 632 q 575 510 538 553 q 649 424 613 468 q 676 449 660 433 q 710 481 692 465 q 749 507 729 496 q 785 518 768 518 q 822 502 803 518 q 856 463 840 486 q 882 416 872 440 q 892 375 892 392 q 881 337 892 354 q 855 304 871 319 q 822 276 839 289 q 792 251 804 263 m 411 740 q 434 771 421 756 q 459 802 447 786 q 479 835 471 818 q 488 869 488 851 q 462 921 488 897 q 408 944 436 944 q 379 938 394 944 q 351 920 364 931 q 331 896 339 910 q 324 868 324 882 q 333 832 324 849 q 356 800 343 815 q 385 770 369 785 q 411 740 400 756 m 293 147 q 349 160 318 147 q 410 192 379 172 q 467 235 440 211 q 511 283 494 260 l 365 472 q 294 424 322 449 q 252 374 267 399 q 232 327 238 350 q 226 283 226 304 q 231 242 226 265 q 243 197 235 218 q 264 162 251 176 q 293 147 276 147 z "},"'":{"ha":286,"x_min":25,"x_max":251,"o":"m 144 638 q 73 658 104 638 q 39 719 42 678 q 31 863 36 790 q 25 1006 25 935 q 62 1080 25 1057 q 149 1103 99 1103 q 224 1081 197 1103 q 249 1008 251 1058 l 231 721 q 144 638 226 638 z "},"(":{"ha":478,"x_min":21,"x_max":435,"o":"m 364 -125 q 206 -74 271 -125 q 99 67 140 -22 q 40 273 58 156 q 21 524 21 390 q 42 776 21 657 q 107 984 64 894 q 215 1126 150 1074 q 364 1178 279 1178 q 413 1167 390 1178 q 435 1125 435 1157 q 414 1031 435 1089 q 367 897 393 972 q 321 729 342 821 q 300 535 300 638 q 321 346 300 432 q 366 186 342 260 q 411 47 390 113 q 432 -78 432 -18 q 410 -116 432 -107 q 364 -125 388 -125 z "},")":{"ha":506,"x_min":49,"x_max":463,"o":"m 121 -125 q 75 -117 97 -125 q 51 -81 53 -108 l 51 -78 q 72 47 51 -18 q 117 186 93 113 q 163 346 142 260 q 183 535 183 432 q 163 729 183 638 q 116 897 142 821 q 69 1031 90 972 q 49 1125 49 1089 q 69 1166 49 1156 q 115 1176 90 1176 l 119 1178 q 269 1127 206 1179 q 376 985 333 1075 q 441 776 419 896 q 463 524 463 657 q 444 273 463 390 q 385 67 425 156 q 279 -74 344 -22 q 121 -125 214 -125 z "},"*":{"ha":678,"x_min":43,"x_max":635,"o":"m 415 936 q 448 960 428 944 q 490 990 468 975 q 531 1017 511 1006 q 565 1028 551 1028 q 593 1019 581 1028 q 615 997 606 1010 q 628 968 624 983 q 633 940 633 953 q 620 901 633 917 q 588 876 607 886 l 482 822 l 603 751 q 624 734 614 744 q 635 708 635 724 q 628 683 635 696 q 612 661 622 671 q 589 645 601 651 q 564 639 576 639 q 528 648 550 639 q 484 669 507 657 q 440 693 461 681 q 404 713 418 706 l 400 610 q 383 564 397 581 q 339 547 369 547 q 283 565 303 547 q 263 619 264 583 l 261 706 q 228 688 249 699 q 188 665 208 676 q 147 646 167 654 q 114 638 128 638 q 66 660 89 638 q 43 708 43 683 q 53 734 43 724 q 75 751 64 744 l 194 822 l 90 876 q 57 901 71 886 q 43 940 43 917 q 48 968 43 953 q 62 997 53 983 q 83 1019 71 1010 q 111 1028 96 1028 q 144 1019 125 1028 q 184 999 164 1011 q 224 975 204 988 q 256 956 243 963 q 253 1019 256 988 q 259 1075 251 1050 q 288 1115 267 1100 q 351 1131 308 1131 q 401 1112 386 1131 q 417 1060 417 1093 q 417 998 417 1032 q 415 936 417 964 z "},"+":{"ha":774,"x_min":44,"x_max":711,"o":"m 147 436 q 70 460 96 436 q 44 538 44 485 q 139 635 44 635 q 217 633 178 635 q 296 628 256 631 l 303 789 q 389 871 307 871 q 472 789 469 871 l 475 619 l 629 613 q 711 526 711 608 q 629 443 711 444 l 478 442 q 478 363 478 401 q 479 285 479 325 q 456 208 479 233 q 379 182 432 182 q 281 276 281 182 q 283 358 281 317 q 288 439 285 399 q 217 437 251 438 q 147 436 183 436 z "},",":{"ha":336,"x_min":17,"x_max":301,"o":"m 107 39 q 38 60 58 39 q 17 136 17 81 q 20 194 17 168 q 37 239 24 221 q 75 267 50 257 q 142 276 100 276 q 198 273 169 276 q 249 259 226 269 q 287 228 272 249 q 301 175 301 208 q 299 134 301 157 q 292 88 297 111 q 281 42 288 64 q 264 4 274 19 l 174 -153 q 135 -194 160 -176 q 82 -211 110 -211 q 58 -187 58 -211 q 61 -172 58 -181 l 107 39 z "},"-":{"ha":524,"x_min":43,"x_max":490,"o":"m 490 538 q 467 467 490 489 q 399 443 444 446 q 269 438 333 440 q 140 436 206 436 q 43 538 43 436 q 140 638 43 638 q 269 636 206 638 q 399 632 333 635 q 467 607 444 629 q 490 538 490 585 z "},".":{"ha":356,"x_min":40,"x_max":314,"o":"m 314 128 q 301 73 314 94 q 266 38 288 51 q 217 18 244 24 q 163 13 190 13 q 107 24 131 13 q 69 57 83 36 q 47 104 54 78 q 40 160 40 131 q 53 215 40 193 q 88 250 67 236 q 138 269 110 264 q 193 275 165 275 q 248 263 225 275 q 285 230 271 250 q 307 183 300 210 q 314 128 314 157 z "},"/":{"ha":694,"x_min":69,"x_max":649,"o":"m 194 -125 q 151 -119 174 -125 q 111 -101 129 -112 q 81 -71 93 -89 q 69 -29 69 -53 q 79 21 69 -6 l 449 1031 q 480 1081 460 1060 q 535 1101 500 1101 q 574 1096 554 1101 q 611 1079 594 1090 q 638 1051 628 1068 q 649 1013 649 1035 q 646 990 649 1001 q 640 968 643 979 l 285 -47 q 252 -103 274 -81 q 194 -125 231 -125 z "},":":{"ha":356,"x_min":40,"x_max":314,"o":"m 314 763 q 301 708 314 729 q 266 672 288 686 q 217 653 244 658 q 163 647 190 647 q 107 659 131 647 q 69 692 83 671 q 47 739 54 713 q 40 794 40 765 q 53 849 40 828 q 88 885 67 871 q 138 904 110 899 q 193 910 165 910 q 248 898 225 910 q 285 865 271 886 q 307 818 300 844 q 314 763 314 792 m 314 128 q 301 73 314 94 q 266 38 288 51 q 217 18 244 24 q 163 13 190 13 q 107 24 131 13 q 69 57 83 36 q 47 104 54 78 q 40 160 40 131 q 53 215 40 193 q 88 250 67 236 q 138 269 110 264 q 193 275 165 275 q 248 263 225 275 q 285 230 271 250 q 307 183 300 210 q 314 128 314 157 z "},";":{"ha":356,"x_min":26,"x_max":314,"o":"m 314 763 q 301 708 314 731 q 266 673 288 686 q 217 653 244 660 q 163 647 190 647 q 108 660 131 647 q 70 692 85 672 q 49 739 56 713 q 42 794 42 765 q 55 849 42 828 q 90 885 68 871 q 138 904 111 899 q 193 910 165 910 q 248 897 225 910 q 285 865 271 885 q 307 818 300 844 q 314 763 314 792 m 97 28 q 81 49 93 38 q 57 76 69 61 q 35 110 44 92 q 26 151 26 129 q 29 196 26 174 q 44 236 32 218 q 80 265 56 254 q 147 276 104 276 q 201 274 174 276 q 252 261 229 271 q 290 233 275 251 q 307 182 306 214 l 307 175 q 296 83 307 125 q 267 1 285 40 q 226 -75 250 -37 q 178 -153 203 -112 q 140 -194 164 -176 q 88 -211 115 -211 q 64 -187 64 -211 q 71 -132 64 -165 q 85 -67 78 -99 q 97 -8 92 -35 q 97 28 101 18 z "},"<":{"ha":560,"x_min":21,"x_max":511,"o":"m 21 536 q 89 663 21 617 l 374 853 q 399 867 385 861 q 429 874 414 874 q 461 863 447 874 q 484 835 475 851 q 498 800 493 818 q 503 767 503 782 q 485 715 503 735 q 442 679 467 694 l 203 540 l 426 408 q 488 356 464 386 q 511 281 511 325 q 508 248 511 267 q 499 213 506 229 q 481 184 493 196 q 451 172 469 172 q 421 180 436 172 q 393 196 406 188 l 88 408 q 21 536 21 454 z "},"=":{"ha":724,"x_min":29,"x_max":674,"o":"m 674 614 q 592 533 674 536 q 356 525 476 531 q 121 519 236 519 q 56 538 79 519 q 33 600 33 557 q 62 690 33 658 q 149 719 90 721 l 582 713 q 651 685 629 711 q 674 614 674 660 m 563 438 q 644 405 618 438 q 669 319 669 372 q 647 256 669 275 q 582 238 624 238 q 347 243 468 238 q 111 253 226 249 q 29 332 29 256 q 122 431 29 429 q 342 435 232 433 q 563 438 451 438 z "},">":{"ha":560,"x_min":49,"x_max":539,"o":"m 131 874 q 160 867 146 874 q 186 853 174 861 l 471 663 q 539 536 539 615 q 472 408 539 454 l 167 196 q 139 180 154 188 q 107 172 124 172 q 78 184 89 172 q 60 213 67 196 q 51 248 54 229 q 49 281 49 267 q 72 356 49 326 q 133 408 96 385 l 365 547 l 118 679 q 74 714 92 693 q 57 767 57 735 q 62 800 57 782 q 76 835 67 818 q 99 863 86 851 q 131 874 113 874 z "},"?":{"ha":779,"x_min":53,"x_max":746,"o":"m 415 1099 q 570 1078 507 1099 q 672 1017 633 1058 q 728 914 711 976 q 746 765 746 851 q 717 661 746 708 q 647 576 688 614 q 562 510 606 539 q 488 458 518 481 q 465 432 478 450 q 440 395 453 414 q 410 362 426 376 q 375 347 394 347 l 333 347 q 253 370 282 347 q 224 447 224 393 q 246 543 224 506 q 302 606 268 581 q 376 649 336 631 q 449 684 415 667 q 506 723 483 701 q 528 779 528 744 q 491 867 528 836 q 399 897 454 897 q 312 874 350 897 q 242 823 274 851 q 185 772 211 794 q 133 749 158 749 q 96 767 111 749 q 71 810 81 785 q 57 861 61 835 q 53 904 53 888 q 86 985 53 949 q 172 1046 119 1021 q 288 1085 224 1071 q 415 1099 353 1099 m 358 -24 q 302 -16 331 -24 q 251 7 274 -8 q 213 45 228 22 q 199 100 199 68 q 206 152 199 126 q 226 199 213 178 q 260 233 239 219 q 311 246 282 246 q 367 238 339 246 q 419 215 396 231 q 456 177 442 200 q 471 122 471 154 q 465 70 471 96 q 444 24 458 44 q 409 -10 431 3 q 358 -24 388 -24 z "},"@":{"ha":1204,"x_min":53,"x_max":1129,"o":"m 838 56 q 768 63 803 56 q 703 86 733 69 q 652 129 674 103 q 622 193 631 156 q 594 172 610 185 q 563 147 579 158 q 528 128 546 136 q 494 119 511 119 q 457 130 474 119 q 426 156 440 140 q 376 223 394 189 q 357 306 357 257 q 358 331 357 318 q 363 356 360 343 l 417 599 q 504 748 440 701 q 688 794 568 794 q 737 788 713 794 q 781 769 761 782 q 813 737 801 757 q 825 688 825 717 q 819 598 825 646 q 806 501 814 550 q 793 406 799 451 q 788 325 788 361 q 797 276 788 300 q 839 253 807 253 q 908 277 883 253 q 944 338 932 301 q 960 414 957 374 q 963 486 963 454 q 947 683 964 603 q 892 814 929 764 q 796 886 854 864 q 658 908 738 908 q 500 874 575 908 q 369 767 425 840 q 279 576 313 693 q 246 293 246 460 q 267 177 246 239 q 326 63 289 115 q 412 -24 363 11 q 517 -58 461 -58 q 572 -52 544 -58 q 627 -37 600 -46 q 682 -17 654 -28 q 736 0 710 -7 q 771 4 753 4 q 806 -5 792 4 q 828 -28 819 -14 q 841 -59 838 -42 q 844 -94 844 -76 q 823 -156 844 -135 q 765 -187 801 -178 q 719 -201 746 -193 q 663 -218 692 -210 q 605 -232 633 -226 q 554 -237 576 -237 q 351 -194 443 -237 q 192 -74 258 -151 q 90 110 126 3 q 53 344 53 217 q 99 619 53 489 q 222 849 144 750 q 403 1007 300 949 q 619 1065 506 1065 q 880 1026 781 1065 q 1035 908 979 986 q 1110 715 1090 831 q 1129 449 1129 600 q 1106 290 1129 363 q 1042 166 1082 218 q 949 85 1001 114 q 838 56 896 56 m 522 294 q 565 306 543 294 q 607 335 588 317 q 640 377 626 354 q 657 422 653 400 l 689 633 l 689 636 q 667 649 689 649 q 626 637 649 649 q 590 601 603 625 q 563 540 578 576 q 535 463 547 503 q 513 387 522 424 q 504 326 504 350 q 522 294 504 294 z "},"A":{"ha":1036,"x_min":11,"x_max":1008,"o":"m 194 7 q 132 19 164 7 q 73 53 100 32 q 28 106 46 75 q 11 172 11 136 q 17 215 11 194 q 32 257 24 236 l 313 949 q 365 1015 332 994 q 446 1036 397 1036 q 626 1015 539 1036 q 740 914 710 994 l 994 231 q 1008 156 1008 192 q 995 89 1008 117 q 959 44 982 61 q 905 19 936 26 q 836 11 874 11 q 743 36 776 11 q 692 97 710 61 q 667 174 674 133 q 653 249 660 215 l 378 293 l 338 142 q 317 94 331 118 q 286 50 304 69 q 245 19 268 31 q 194 7 222 7 m 607 447 l 511 828 l 422 457 l 607 447 z "},"B":{"ha":949,"x_min":29,"x_max":918,"o":"m 381 0 l 336 0 q 235 3 289 0 q 135 18 181 6 q 59 56 89 31 q 29 125 29 81 l 53 850 q 249 1042 60 1042 q 352 1040 292 1042 q 478 1031 413 1039 q 609 1005 544 1022 q 726 955 674 988 q 810 872 778 922 q 842 747 842 821 q 831 694 842 721 q 805 643 821 668 q 769 597 789 618 q 732 561 750 576 q 799 515 765 538 q 858 467 832 493 q 901 407 885 440 q 918 326 918 374 q 877 169 918 232 q 765 68 836 106 q 594 15 693 31 q 381 0 496 0 m 339 594 q 417 612 375 603 q 494 635 458 621 q 553 672 529 649 q 575 729 576 694 q 547 780 574 761 q 483 808 521 799 q 405 822 446 818 q 332 828 364 825 l 339 594 m 353 207 q 467 214 411 213 q 567 219 524 215 q 638 236 611 224 q 665 275 665 249 q 657 328 665 303 q 635 376 649 354 q 603 414 621 399 q 568 433 586 429 q 553 435 561 435 q 533 436 544 436 q 488 434 513 436 q 437 428 463 432 q 388 419 411 424 q 344 410 364 414 l 353 207 z "},"C":{"ha":863,"x_min":29,"x_max":847,"o":"m 842 907 q 834 853 842 881 q 812 805 826 826 q 775 770 797 783 q 722 757 753 757 q 681 763 701 757 q 639 774 660 768 q 598 785 618 781 q 557 790 578 790 q 456 765 499 790 q 384 701 413 739 q 342 617 356 663 q 328 529 328 571 q 350 411 328 463 q 406 326 372 360 q 481 274 440 292 q 556 257 521 257 q 599 270 575 257 q 647 299 622 283 q 694 327 671 314 q 738 340 718 340 q 785 324 764 340 q 819 284 806 308 q 840 233 833 260 q 847 183 847 206 q 822 116 847 153 q 751 47 797 79 q 637 -6 704 15 q 485 -28 569 -28 q 262 17 350 -28 q 122 136 174 63 q 50 303 71 210 q 29 493 29 396 q 67 739 29 636 q 169 908 104 842 q 322 1005 235 974 q 508 1036 410 1036 q 635 1032 575 1036 q 742 1015 696 1028 q 815 976 788 1001 q 842 907 842 950 z "},"D":{"ha":997,"x_min":53,"x_max":965,"o":"m 53 228 q 54 531 53 381 q 63 839 56 681 q 126 990 68 939 q 286 1042 185 1042 l 457 1042 q 834 899 703 1042 q 965 492 965 757 q 951 391 965 446 q 909 281 938 336 q 838 176 881 226 q 740 86 796 125 q 613 24 683 47 q 460 0 543 0 l 253 0 q 164 21 201 0 q 101 75 126 42 q 65 149 76 108 q 53 228 53 189 m 368 236 l 515 238 q 582 258 553 238 q 631 313 611 278 q 660 397 650 349 q 671 504 671 446 q 671 524 671 515 q 669 544 671 533 q 615 744 663 678 q 489 807 568 810 l 339 803 l 368 236 z "},"E":{"ha":778,"x_min":31,"x_max":736,"o":"m 736 94 q 702 17 736 39 q 619 -7 668 -4 q 425 -19 522 -14 q 231 -24 328 -24 q 79 28 128 -24 q 31 181 31 81 q 35 506 31 344 q 44 831 39 667 q 97 982 47 932 q 250 1035 147 1032 l 622 1040 q 700 1022 669 1040 q 731 950 731 1003 q 724 893 731 919 q 701 847 717 867 q 663 816 686 828 q 606 804 639 804 q 468 808 536 804 q 331 813 400 813 l 338 611 q 414 624 374 618 q 492 631 454 631 q 566 594 546 631 q 586 510 586 558 q 559 447 586 465 q 492 426 532 429 q 417 423 454 424 q 343 419 381 422 l 351 197 q 483 229 418 211 q 614 247 547 247 q 669 234 646 247 q 708 199 693 221 q 729 151 722 178 q 736 94 736 124 z "},"F":{"ha":810,"x_min":22,"x_max":789,"o":"m 371 94 q 356 38 371 60 q 319 6 342 17 q 267 -9 296 -6 q 210 -12 238 -12 q 151 -3 175 -12 q 109 25 126 7 q 80 69 92 43 q 60 128 68 96 q 32 283 42 192 q 22 504 22 375 q 32 685 22 594 q 67 851 42 776 q 136 976 93 925 q 246 1038 179 1026 q 326 1047 281 1044 q 422 1050 372 1050 q 529 1046 475 1050 q 629 1033 583 1042 q 683 1024 654 1029 q 735 1008 711 1018 q 774 980 758 997 q 789 935 789 963 q 782 878 789 906 q 760 829 775 850 q 722 795 744 808 q 665 782 699 782 q 624 786 643 782 q 577 797 599 790 q 534 810 556 804 q 490 819 513 815 q 439 824 467 824 q 366 801 393 824 q 326 744 339 778 q 308 670 313 710 q 304 596 304 631 q 307 543 304 568 q 313 497 310 518 l 551 528 q 568 530 560 529 q 585 531 576 531 q 673 491 649 531 q 697 394 697 451 q 581 276 697 276 q 454 282 517 276 q 329 292 392 288 q 356 193 340 243 q 371 94 371 143 z "},"G":{"ha":1090,"x_min":19,"x_max":1044,"o":"m 958 864 q 928 761 958 801 q 831 721 897 721 q 760 738 796 721 q 690 777 725 756 q 619 816 654 799 q 549 833 583 833 q 438 807 481 833 q 372 737 396 781 q 338 639 347 693 q 329 528 329 585 q 339 419 329 475 q 374 318 349 364 q 444 243 400 272 q 557 214 489 214 q 643 221 604 214 q 710 247 682 228 q 754 298 739 265 q 769 381 769 331 q 763 422 769 403 q 733 440 756 440 q 669 427 703 440 q 606 414 636 414 q 516 449 539 414 q 493 542 493 483 q 526 622 493 592 q 608 653 560 653 q 722 652 665 653 q 836 647 779 651 q 937 617 897 642 q 1001 553 976 593 q 1035 460 1025 513 q 1044 346 1044 407 q 1020 220 1044 279 q 953 115 996 161 q 851 39 910 69 q 726 0 793 8 q 588 -13 657 -10 q 449 -17 518 -17 q 258 38 339 -17 q 124 174 176 92 q 45 356 71 257 q 19 547 19 456 q 54 752 19 660 q 155 910 89 844 q 317 1013 221 976 q 535 1050 413 1050 q 604 1047 563 1050 q 693 1036 646 1044 q 788 1015 740 1028 q 873 981 835 1001 q 935 931 911 960 q 958 864 958 903 z "},"H":{"ha":903,"x_min":28,"x_max":869,"o":"m 333 350 q 332 285 332 319 q 330 216 332 250 q 323 150 328 182 q 308 90 318 118 l 306 85 q 260 19 290 44 q 178 -7 231 -7 q 112 2 138 -7 q 72 27 86 11 q 51 65 57 43 q 46 110 46 86 q 38 490 42 300 q 29 871 33 681 q 58 970 28 932 q 168 1008 89 1008 q 301 966 254 1008 q 347 838 347 924 q 347 755 347 793 q 345 680 346 717 q 343 605 344 643 q 340 521 342 567 l 553 556 l 542 871 q 541 884 542 878 q 540 897 540 890 q 580 1001 540 969 q 689 1032 619 1032 q 857 871 849 1032 q 864 683 861 782 q 867 488 867 583 q 869 305 868 392 q 869 156 869 218 q 856 86 869 117 q 817 35 842 56 q 762 3 793 14 q 694 -7 731 -7 q 615 26 639 -7 q 589 108 592 60 q 579 236 583 172 q 571 363 575 300 l 333 350 z "},"I":{"ha":403,"x_min":40,"x_max":365,"o":"m 153 1007 q 285 961 235 1007 q 339 832 336 915 l 363 176 q 350 96 365 131 q 307 38 335 61 q 242 3 279 15 q 161 -8 204 -8 q 67 30 94 -8 q 40 129 40 68 l 40 885 q 69 970 40 933 q 153 1007 99 1007 z "},"J":{"ha":715,"x_min":33,"x_max":690,"o":"m 313 296 q 356 331 344 301 q 365 393 368 361 l 340 876 q 371 981 338 942 q 471 1019 404 1019 q 631 966 572 1019 q 686 824 690 913 q 672 521 679 672 q 657 218 664 369 q 631 129 656 171 q 567 57 607 88 q 475 9 528 26 q 363 -8 422 -8 q 138 49 214 -8 q 39 211 61 106 q 33 267 33 238 q 56 357 33 321 q 121 393 79 393 q 190 376 164 393 q 233 340 215 360 q 269 306 251 321 q 313 296 286 292 z "},"K":{"ha":901,"x_min":26,"x_max":874,"o":"m 349 183 q 331 105 349 136 q 286 56 314 74 q 222 30 258 38 q 144 22 185 22 q 56 58 85 22 q 29 151 26 93 l 49 911 q 93 1008 50 975 q 201 1042 136 1042 q 333 913 329 1042 l 338 686 l 531 947 q 694 1032 592 1032 q 797 999 756 1032 q 839 918 839 967 q 825 872 839 894 q 796 832 811 849 l 540 519 q 679 375 611 442 q 818 231 747 308 q 836 208 826 222 q 854 176 846 193 q 868 143 863 160 q 874 114 874 126 q 855 71 874 89 q 810 42 836 53 q 757 27 785 32 q 710 22 729 22 q 602 51 653 22 q 524 126 551 79 l 381 360 l 346 324 q 348 253 347 288 q 349 183 349 219 z "},"L":{"ha":689,"x_min":28,"x_max":660,"o":"m 28 228 q 29 560 28 394 q 35 892 31 725 q 158 1028 39 1028 q 242 1022 208 1028 q 297 998 276 1015 q 324 950 317 981 q 331 871 332 919 l 308 265 q 363 276 329 271 q 431 283 396 281 q 499 288 467 286 q 553 290 532 290 q 606 278 585 290 q 638 244 626 265 q 655 198 650 224 q 660 144 660 172 q 521 7 660 7 q 403 3 461 7 q 286 -1 344 -1 q 181 10 228 -1 q 99 48 133 21 q 47 119 65 75 q 28 228 28 163 z "},"M":{"ha":1436,"x_min":54,"x_max":1383,"o":"m 229 0 q 163 7 194 0 q 107 29 131 14 q 69 72 83 44 q 54 138 54 99 q 56 165 54 151 q 60 190 57 178 l 186 856 q 247 980 201 935 q 378 1025 293 1025 q 473 1018 428 1025 q 554 991 518 1011 q 615 936 590 971 q 649 846 639 901 l 742 285 l 901 883 q 963 974 915 938 q 1071 1010 1010 1010 q 1213 965 1158 1010 q 1283 828 1268 919 l 1378 251 q 1382 226 1381 239 q 1383 200 1383 213 q 1366 121 1383 154 q 1319 67 1349 88 q 1251 36 1289 46 q 1171 26 1213 26 q 1105 39 1132 26 q 1061 73 1078 51 q 1037 125 1044 94 q 1028 192 1029 156 l 1015 678 l 882 167 q 813 58 863 97 q 692 19 763 19 q 619 48 643 19 q 586 121 596 76 l 449 729 l 411 171 q 359 44 404 88 q 229 0 314 0 z "},"N":{"ha":974,"x_min":31,"x_max":919,"o":"m 219 1021 q 305 1015 265 1021 q 376 992 344 1008 q 430 945 407 975 q 467 867 453 915 l 642 243 l 603 879 q 644 988 599 947 q 771 1029 690 1029 q 864 993 836 1029 q 894 896 892 957 l 918 207 q 901 112 919 151 q 849 47 882 72 q 770 11 815 22 q 675 0 725 0 q 556 40 600 0 q 490 147 513 79 l 335 647 l 347 332 q 352 253 350 286 q 354 175 354 221 q 344 85 354 121 q 310 29 333 50 q 248 0 286 8 q 153 -8 210 -8 q 59 30 88 -8 q 33 129 31 68 l 49 844 q 91 975 50 929 q 219 1021 132 1021 z "},"O":{"ha":1199,"x_min":36,"x_max":1169,"o":"m 569 1086 q 821 1053 710 1086 q 1010 960 932 1021 q 1128 811 1088 899 q 1169 613 1169 724 q 1030 156 1169 311 q 622 1 890 1 q 377 32 486 1 q 192 123 268 63 q 76 274 117 183 q 36 488 36 365 q 78 722 36 613 q 191 912 119 831 q 360 1040 263 993 q 569 1086 457 1086 m 383 513 q 403 417 383 457 q 455 352 424 378 q 524 315 486 326 q 599 303 563 303 q 708 324 661 303 q 786 380 756 344 q 832 464 817 415 q 847 567 847 513 q 832 654 847 613 q 789 728 817 696 q 720 778 761 760 q 626 797 679 797 q 508 768 554 797 q 433 695 461 739 q 394 602 406 651 q 383 513 383 553 z "},"P":{"ha":892,"x_min":22,"x_max":863,"o":"m 376 142 q 358 80 376 103 q 313 46 340 57 q 252 31 285 35 q 189 28 219 28 q 86 68 117 28 q 53 175 56 108 l 24 942 q 50 1001 22 979 q 120 1035 78 1024 q 211 1049 163 1046 q 301 1053 260 1053 q 340 1052 322 1053 q 369 1051 357 1051 q 532 1040 446 1051 q 692 996 618 1029 q 814 902 765 963 q 863 742 863 842 q 846 642 863 692 q 801 547 829 592 q 735 465 774 503 q 656 401 697 426 q 510 331 588 361 q 361 279 433 300 q 371 210 365 244 q 376 142 376 176 m 340 474 q 409 526 369 497 q 484 590 449 556 q 544 663 519 624 q 569 744 569 701 q 551 799 569 778 q 505 833 532 821 q 446 851 478 846 q 389 856 414 856 q 342 852 365 856 q 299 838 318 849 l 340 474 z "},"Q":{"ha":1171,"x_min":36,"x_max":1135,"o":"m 546 1085 q 791 1044 682 1085 q 976 939 900 1004 q 1094 790 1053 874 q 1135 621 1135 707 q 1122 494 1135 561 q 1087 363 1110 428 q 1030 238 1064 297 q 953 136 996 179 q 981 60 965 100 q 997 -19 997 19 q 985 -67 997 -47 q 956 -102 974 -87 q 915 -128 938 -117 q 872 -149 893 -139 q 844 -161 858 -156 q 814 -167 829 -167 q 765 -148 786 -167 q 729 -103 744 -129 q 703 -50 714 -78 q 683 -3 692 -22 q 533 -2 610 -7 q 385 21 457 3 q 249 74 313 39 q 139 163 186 108 q 64 297 92 218 q 36 481 36 375 q 79 706 36 597 q 193 899 122 815 q 356 1034 264 983 q 546 1085 447 1085 m 646 774 q 522 749 579 774 q 424 684 465 725 q 359 589 382 643 q 336 474 336 535 q 360 393 336 428 q 417 333 383 358 q 487 293 450 308 q 549 269 524 278 l 436 461 q 432 479 432 469 q 451 524 432 501 q 495 564 469 546 q 550 593 521 582 q 600 604 579 604 q 640 586 628 604 l 776 374 q 794 416 788 392 q 807 467 801 440 q 815 522 813 494 q 817 576 817 550 q 803 644 817 610 q 767 708 790 679 q 713 756 743 738 q 646 774 682 774 z "},"R":{"ha":1004,"x_min":26,"x_max":938,"o":"m 222 -3 q 144 8 181 -3 q 82 40 108 18 q 41 95 56 63 q 28 174 26 128 l 60 904 q 79 980 61 953 q 125 1021 97 1007 q 188 1038 153 1035 q 260 1042 224 1042 l 319 1042 q 433 1036 369 1042 q 563 1017 497 1031 q 691 979 628 1003 q 803 918 754 956 q 881 829 851 881 q 911 710 911 778 q 906 669 911 689 q 894 629 901 649 q 778 477 856 529 q 596 397 700 425 l 897 213 q 927 174 917 200 q 938 125 938 149 q 926 78 938 99 q 896 43 914 57 q 856 22 878 29 q 814 15 833 15 q 760 27 789 15 q 701 55 731 39 q 644 89 672 71 q 596 119 617 107 q 470 192 533 156 q 344 265 407 229 l 349 136 q 319 35 350 72 q 222 -3 289 -3 m 338 479 q 364 501 349 493 q 430 530 394 518 q 499 556 465 542 q 562 588 532 569 q 611 633 592 606 q 623 660 619 644 q 626 690 626 675 q 613 756 626 725 q 574 794 599 788 q 480 822 529 810 q 383 833 431 833 q 354 832 368 833 q 326 828 340 831 l 338 479 z "},"S":{"ha":917,"x_min":50,"x_max":882,"o":"m 833 922 q 826 868 833 897 q 805 814 819 839 q 768 772 790 789 q 717 756 746 756 q 655 765 685 756 q 595 784 625 774 q 536 803 565 794 q 475 813 507 813 q 435 802 454 813 q 403 776 417 792 q 383 740 390 760 q 375 700 375 719 q 397 650 375 665 q 454 628 418 635 q 535 619 490 621 q 628 610 581 617 q 722 585 676 603 q 803 532 767 568 q 860 435 839 496 q 882 281 882 375 q 832 119 882 181 q 707 22 782 57 q 544 -25 632 -12 q 381 -37 457 -37 q 285 -27 342 -37 q 176 6 228 -17 q 87 65 124 29 q 50 150 50 100 q 56 203 50 175 q 74 256 61 232 q 109 297 88 281 q 161 313 131 313 q 237 294 199 313 q 314 253 275 275 q 393 212 353 231 q 474 193 433 193 q 543 211 511 193 q 575 271 575 229 q 556 351 575 322 q 505 397 536 381 q 434 423 474 414 q 352 442 394 432 q 270 467 310 451 q 199 513 231 482 q 149 593 168 543 q 129 721 129 643 q 156 851 129 790 q 227 958 182 913 q 333 1029 272 1003 q 464 1056 394 1056 q 522 1054 486 1056 q 598 1049 557 1053 q 681 1036 639 1044 q 756 1013 722 1028 q 812 975 790 997 q 833 922 833 953 z "},"T":{"ha":794,"x_min":11,"x_max":765,"o":"m 115 835 q 11 947 11 843 q 35 1022 11 994 q 107 1049 58 1050 l 667 1025 q 738 1005 710 1024 q 765 939 765 986 q 759 885 765 911 q 739 840 753 860 q 703 810 725 821 q 650 799 682 799 q 590 801 619 799 q 532 807 561 804 l 554 178 q 502 42 557 92 q 351 -8 447 -8 q 257 30 285 -8 q 231 129 229 68 l 246 826 l 115 835 z "},"U":{"ha":950,"x_min":29,"x_max":924,"o":"m 619 490 q 615 681 619 586 q 611 872 611 776 q 786 1032 611 1032 q 887 998 850 1032 q 919 897 924 964 q 907 613 911 754 q 893 329 903 471 q 861 194 889 256 q 788 90 833 133 q 683 24 743 47 q 554 0 624 0 l 432 0 q 270 31 342 0 q 149 114 199 63 q 71 230 99 165 q 40 361 43 294 q 37 487 39 431 q 33 597 35 543 q 30 708 31 651 q 29 833 29 765 q 73 972 29 922 q 213 1022 117 1022 q 313 982 279 1022 q 347 882 347 942 l 346 415 q 356 362 346 388 q 385 317 367 336 q 428 286 403 297 q 479 275 453 275 q 548 297 521 275 q 591 350 575 318 q 613 419 607 382 q 619 490 619 457 z "},"V":{"ha":1142,"x_min":64,"x_max":1082,"o":"m 557 -18 q 440 8 485 -18 q 375 78 394 33 q 229 424 303 251 q 83 771 156 597 q 69 812 75 790 q 64 856 64 833 q 83 918 64 892 q 129 962 101 944 q 191 988 157 979 q 256 997 225 997 q 347 960 315 997 q 393 869 379 922 q 483 535 438 703 q 574 200 529 367 q 653 533 614 365 q 733 865 693 700 q 796 981 751 940 q 919 1022 840 1022 q 976 1018 947 1022 q 1028 1001 1004 1014 q 1067 968 1051 989 q 1082 914 1082 947 q 1077 876 1082 894 q 1065 838 1072 857 q 935 476 1000 657 q 804 113 869 294 q 710 10 776 38 q 557 -18 644 -18 z "},"W":{"ha":1428,"x_min":50,"x_max":1379,"o":"m 406 -11 q 327 3 364 -11 q 260 43 290 18 q 209 102 229 68 q 181 176 189 136 q 119 508 150 342 q 56 840 88 675 q 51 867 53 854 q 50 893 50 881 q 64 960 50 933 q 102 1002 78 986 q 158 1025 126 1018 q 224 1032 189 1032 q 354 988 310 1032 q 408 860 399 943 q 439 580 424 721 q 469 300 454 439 q 494 388 482 332 q 517 503 506 443 q 541 619 529 564 q 564 707 553 675 q 588 752 572 728 q 624 797 603 776 q 668 830 644 817 q 717 843 692 843 q 775 829 749 843 q 823 794 801 815 q 863 747 844 774 q 894 696 881 721 q 924 625 910 672 q 953 526 939 578 q 983 426 968 474 q 1013 354 999 379 q 1019 597 1015 476 q 1025 840 1022 718 q 1058 958 1026 911 q 1168 1004 1090 1004 q 1248 994 1210 1004 q 1315 964 1286 985 q 1362 910 1344 943 q 1379 831 1379 878 q 1375 781 1379 806 q 1327 492 1351 638 q 1279 204 1303 347 q 1249 123 1272 157 q 1194 66 1226 89 q 1120 32 1161 43 q 1035 21 1079 21 q 930 51 974 21 q 867 136 886 82 l 739 486 l 661 158 q 627 76 650 108 q 571 24 604 43 q 496 -3 538 4 q 406 -11 454 -11 z "},"X":{"ha":1063,"x_min":57,"x_max":1001,"o":"m 63 971 q 79 1013 63 996 q 119 1042 96 1031 q 167 1060 142 1054 q 210 1065 192 1065 q 336 1033 283 1065 q 421 929 389 1000 q 473 814 447 871 q 525 700 499 757 q 565 806 544 753 q 606 913 586 860 q 677 1006 628 971 q 790 1042 726 1042 q 836 1038 810 1042 q 888 1024 863 1033 q 930 997 913 1014 q 947 954 947 981 q 935 909 947 931 q 913 868 924 888 q 814 701 864 785 q 715 533 764 617 q 841 365 778 450 q 967 197 904 281 q 991 156 981 178 q 1001 111 1001 135 q 983 63 1001 83 q 938 31 964 43 q 883 12 911 18 q 835 6 854 6 q 733 43 776 6 q 657 128 689 81 q 584 233 621 181 q 511 339 547 286 q 447 238 479 289 q 382 136 414 186 q 283 35 336 65 q 153 6 231 6 q 122 10 139 6 q 90 23 104 14 q 67 46 76 32 q 57 79 57 60 q 63 118 57 99 q 81 154 69 138 q 194 343 138 249 q 308 531 251 438 q 203 706 256 618 q 99 881 151 793 q 75 924 88 900 q 63 971 63 947 z "},"Y":{"ha":1044,"x_min":64,"x_max":990,"o":"m 103 789 q 76 834 88 810 q 64 885 64 858 q 83 935 64 914 q 131 970 103 957 q 189 990 158 983 q 243 997 219 997 q 340 963 304 997 q 399 875 376 928 l 521 588 l 647 875 q 719 983 676 943 q 836 1024 761 1024 q 883 1021 857 1024 q 934 1009 910 1018 q 974 983 958 1000 q 990 939 990 967 q 982 893 990 915 q 961 851 974 871 l 631 375 q 637 323 632 354 q 647 258 642 292 q 657 194 653 225 q 661 142 661 163 q 646 69 661 96 q 604 28 631 42 q 544 10 578 14 q 472 7 510 7 q 422 12 446 7 q 379 28 397 17 q 351 60 361 40 q 340 110 340 79 q 344 144 340 128 q 350 179 347 161 l 386 433 l 103 789 z "},"Z":{"ha":849,"x_min":22,"x_max":819,"o":"m 626 1047 q 704 1016 685 1050 q 724 932 724 982 q 718 859 724 890 q 689 790 713 828 q 611 658 649 724 q 536 528 574 593 q 460 399 499 464 q 378 267 422 335 q 514 282 446 274 q 650 297 582 290 q 694 301 674 301 q 753 290 729 301 q 791 258 776 278 q 813 210 806 238 q 819 153 819 183 l 819 147 q 676 7 819 7 q 494 12 585 7 q 311 19 403 17 q 236 27 276 21 q 163 49 196 33 q 107 92 129 64 q 85 165 85 119 q 100 248 85 207 q 135 325 115 289 q 266 556 200 447 q 396 786 332 664 q 272 775 333 782 q 146 768 210 768 q 53 808 83 768 q 22 907 22 849 q 49 989 22 954 q 119 1026 76 1024 l 626 1047 z "},"[":{"ha":449,"x_min":47,"x_max":428,"o":"m 235 -122 q 101 -78 143 -122 q 54 56 58 -35 q 48 337 49 197 q 47 618 47 476 q 47 729 47 685 q 48 814 47 774 q 50 899 49 854 q 54 1011 51 944 q 99 1142 58 1099 q 229 1185 139 1185 q 259 1185 243 1185 q 292 1186 275 1186 q 333 1183 313 1186 q 370 1172 354 1181 q 396 1148 386 1164 q 406 1104 406 1132 q 403 1053 406 1072 q 392 1023 401 1033 q 364 1010 382 1013 q 314 1007 346 1007 l 296 1007 q 292 889 293 938 q 290 795 290 840 q 291 701 290 750 q 292 583 292 653 q 290 332 292 457 q 296 81 289 207 q 335 83 315 82 q 374 85 354 85 q 428 33 428 85 q 422 -27 428 1 q 403 -76 417 -56 q 365 -110 389 -97 q 304 -122 340 -122 l 235 -122 z "},"\\":{"ha":694,"x_min":46,"x_max":625,"o":"m 160 1101 q 215 1081 194 1101 q 246 1031 235 1060 l 614 21 q 625 -29 625 -4 q 613 -71 625 -53 q 583 -101 601 -89 q 543 -119 565 -112 q 500 -125 521 -125 q 442 -103 464 -125 q 408 -47 419 -81 l 54 968 q 46 1013 46 989 q 56 1051 46 1035 q 83 1079 67 1068 q 120 1096 100 1090 q 160 1101 140 1101 z "},"]":{"ha":461,"x_min":38,"x_max":418,"o":"m 161 -122 q 101 -110 125 -122 q 63 -76 76 -97 q 43 -27 49 -56 q 38 33 38 1 q 93 85 38 85 q 132 83 113 85 q 171 81 151 82 q 175 332 176 207 q 174 583 174 457 q 174 701 174 653 q 175 795 175 750 q 174 889 175 840 q 171 1007 174 938 l 151 1007 q 102 1010 121 1007 q 74 1023 83 1013 q 63 1053 65 1033 q 60 1104 60 1072 q 69 1148 60 1132 q 95 1172 79 1164 q 132 1183 111 1181 q 175 1186 153 1186 q 206 1185 190 1186 q 238 1185 222 1185 q 367 1142 326 1185 q 411 1011 408 1099 q 415 900 414 944 q 417 815 417 856 q 418 729 418 774 q 418 618 418 685 q 417 336 418 476 q 411 56 417 196 q 366 -78 408 -35 q 232 -122 324 -122 l 161 -122 z "},"^":{"ha":715,"x_min":58,"x_max":664,"o":"m 376 1064 q 446 1042 417 1064 q 494 985 475 1021 l 647 707 q 659 682 654 696 q 664 654 664 668 q 653 620 664 635 q 626 595 642 606 q 590 579 610 585 q 554 574 571 574 q 504 593 522 574 q 472 639 486 613 l 378 817 l 290 654 q 242 590 269 615 q 169 565 214 565 q 135 568 154 565 q 99 578 115 571 q 70 599 82 586 q 58 631 58 611 q 65 660 58 646 q 79 689 71 675 l 251 985 q 304 1042 272 1021 q 376 1064 336 1064 z "},"_":{"ha":743,"x_min":-3,"x_max":742,"o":"m -3 -119 q 89 -28 -3 -28 l 665 -36 q 722 -55 701 -37 q 742 -110 742 -72 q 721 -178 742 -154 q 656 -203 700 -201 l 89 -210 q -3 -119 -3 -212 z "},"`":{"ha":372,"x_min":38,"x_max":349,"o":"m 286 1060 q 225 1074 254 1060 q 169 1108 196 1088 q 115 1155 142 1129 q 64 1203 89 1181 q 46 1222 54 1211 q 38 1244 38 1233 q 48 1263 38 1256 q 73 1275 58 1271 q 103 1281 88 1279 q 128 1283 118 1283 q 185 1273 164 1283 q 222 1247 207 1263 q 247 1211 236 1231 q 272 1174 257 1192 q 302 1144 285 1158 q 333 1114 319 1129 q 344 1099 339 1107 q 349 1081 349 1090 q 341 1069 349 1074 q 324 1063 333 1065 q 303 1060 314 1061 q 286 1060 293 1060 z "},"a":{"ha":1036,"x_min":11,"x_max":1008,"o":"m 194 7 q 132 19 164 7 q 73 53 100 32 q 28 106 46 75 q 11 172 11 136 q 17 215 11 194 q 32 257 24 236 l 313 949 q 365 1015 332 994 q 446 1036 397 1036 q 626 1015 539 1036 q 740 914 710 994 l 994 231 q 1008 156 1008 192 q 995 89 1008 117 q 959 44 982 61 q 905 19 936 26 q 836 11 874 11 q 743 36 776 11 q 692 97 710 61 q 667 174 674 133 q 653 249 660 215 l 378 293 l 338 142 q 317 94 331 118 q 286 50 304 69 q 245 19 268 31 q 194 7 222 7 m 607 447 l 511 828 l 422 457 l 607 447 z "},"b":{"ha":949,"x_min":29,"x_max":918,"o":"m 381 0 l 336 0 q 235 3 289 0 q 135 18 181 6 q 59 56 89 31 q 29 125 29 81 l 53 850 q 249 1042 60 1042 q 352 1040 292 1042 q 478 1031 413 1039 q 609 1005 544 1022 q 726 955 674 988 q 810 872 778 922 q 842 747 842 821 q 831 694 842 721 q 805 643 821 668 q 769 597 789 618 q 732 561 750 576 q 799 515 765 538 q 858 467 832 493 q 901 407 885 440 q 918 326 918 374 q 877 169 918 232 q 765 68 836 106 q 594 15 693 31 q 381 0 496 0 m 339 594 q 417 612 375 603 q 494 635 458 621 q 553 672 529 649 q 575 729 576 694 q 547 780 574 761 q 483 808 521 799 q 405 822 446 818 q 332 828 364 825 l 339 594 m 353 207 q 467 214 411 213 q 567 219 524 215 q 638 236 611 224 q 665 275 665 249 q 657 328 665 303 q 635 376 649 354 q 603 414 621 399 q 568 433 586 429 q 553 435 561 435 q 533 436 544 436 q 488 434 513 436 q 437 428 463 432 q 388 419 411 424 q 344 410 364 414 l 353 207 z "},"c":{"ha":863,"x_min":29,"x_max":847,"o":"m 842 907 q 834 853 842 881 q 812 805 826 826 q 775 770 797 783 q 722 757 753 757 q 681 763 701 757 q 639 774 660 768 q 598 785 618 781 q 557 790 578 790 q 456 765 499 790 q 384 701 413 739 q 342 617 356 663 q 328 529 328 571 q 350 411 328 463 q 406 326 372 360 q 481 274 440 292 q 556 257 521 257 q 599 270 575 257 q 647 299 622 283 q 694 327 671 314 q 738 340 718 340 q 785 324 764 340 q 819 284 806 308 q 840 233 833 260 q 847 183 847 206 q 822 116 847 153 q 751 47 797 79 q 637 -6 704 15 q 485 -28 569 -28 q 262 17 350 -28 q 122 136 174 63 q 50 303 71 210 q 29 493 29 396 q 67 739 29 636 q 169 908 104 842 q 322 1005 235 974 q 508 1036 410 1036 q 635 1032 575 1036 q 742 1015 696 1028 q 815 976 788 1001 q 842 907 842 950 z "},"d":{"ha":997,"x_min":53,"x_max":965,"o":"m 53 228 q 54 531 53 381 q 63 839 56 681 q 126 990 68 939 q 286 1042 185 1042 l 457 1042 q 834 899 703 1042 q 965 492 965 757 q 951 391 965 446 q 909 281 938 336 q 838 176 881 226 q 740 86 796 125 q 613 24 683 47 q 460 0 543 0 l 253 0 q 164 21 201 0 q 101 75 126 42 q 65 149 76 108 q 53 228 53 189 m 368 236 l 515 238 q 582 258 553 238 q 631 313 611 278 q 660 397 650 349 q 671 504 671 446 q 671 524 671 515 q 669 544 671 533 q 615 744 663 678 q 489 807 568 810 l 339 803 l 368 236 z "},"e":{"ha":778,"x_min":31,"x_max":736,"o":"m 736 94 q 702 17 736 39 q 619 -7 668 -4 q 425 -19 522 -14 q 231 -24 328 -24 q 79 28 128 -24 q 31 181 31 81 q 35 506 31 344 q 44 831 39 667 q 97 982 47 932 q 250 1035 147 1032 l 622 1040 q 700 1022 669 1040 q 731 950 731 1003 q 724 893 731 919 q 701 847 717 867 q 663 816 686 828 q 606 804 639 804 q 468 808 536 804 q 331 813 400 813 l 338 611 q 414 624 374 618 q 492 631 454 631 q 566 594 546 631 q 586 510 586 558 q 559 447 586 465 q 492 426 532 429 q 417 423 454 424 q 343 419 381 422 l 351 197 q 483 229 418 211 q 614 247 547 247 q 669 234 646 247 q 708 199 693 221 q 729 151 722 178 q 736 94 736 124 z "},"f":{"ha":810,"x_min":22,"x_max":789,"o":"m 371 94 q 356 38 371 60 q 319 6 342 17 q 267 -9 296 -6 q 210 -12 238 -12 q 151 -3 175 -12 q 109 25 126 7 q 80 69 92 43 q 60 128 68 96 q 32 283 42 192 q 22 504 22 375 q 32 685 22 594 q 67 851 42 776 q 136 976 93 925 q 246 1038 179 1026 q 326 1047 281 1044 q 422 1050 372 1050 q 529 1046 475 1050 q 629 1033 583 1042 q 683 1024 654 1029 q 735 1008 711 1018 q 774 980 758 997 q 789 935 789 963 q 782 878 789 906 q 760 829 775 850 q 722 795 744 808 q 665 782 699 782 q 624 786 643 782 q 577 797 599 790 q 534 810 556 804 q 490 819 513 815 q 439 824 467 824 q 366 801 393 824 q 326 744 339 778 q 308 670 313 710 q 304 596 304 631 q 307 543 304 568 q 313 497 310 518 l 551 528 q 568 530 560 529 q 585 531 576 531 q 673 491 649 531 q 697 394 697 451 q 581 276 697 276 q 454 282 517 276 q 329 292 392 288 q 356 193 340 243 q 371 94 371 143 z "},"g":{"ha":1090,"x_min":19,"x_max":1044,"o":"m 958 864 q 928 761 958 801 q 831 721 897 721 q 760 738 796 721 q 690 777 725 756 q 619 816 654 799 q 549 833 583 833 q 438 807 481 833 q 372 737 396 781 q 338 639 347 693 q 329 528 329 585 q 339 419 329 475 q 374 318 349 364 q 444 243 400 272 q 557 214 489 214 q 643 221 604 214 q 710 247 682 228 q 754 298 739 265 q 769 381 769 331 q 763 422 769 403 q 733 440 756 440 q 669 427 703 440 q 606 414 636 414 q 516 449 539 414 q 493 542 493 483 q 526 622 493 592 q 608 653 560 653 q 722 652 665 653 q 836 647 779 651 q 937 617 897 642 q 1001 553 976 593 q 1035 460 1025 513 q 1044 346 1044 407 q 1020 220 1044 279 q 953 115 996 161 q 851 39 910 69 q 726 0 793 8 q 588 -13 657 -10 q 449 -17 518 -17 q 258 38 339 -17 q 124 174 176 92 q 45 356 71 257 q 19 547 19 456 q 54 752 19 660 q 155 910 89 844 q 317 1013 221 976 q 535 1050 413 1050 q 604 1047 563 1050 q 693 1036 646 1044 q 788 1015 740 1028 q 873 981 835 1001 q 935 931 911 960 q 958 864 958 903 z "},"h":{"ha":903,"x_min":28,"x_max":869,"o":"m 333 350 q 332 285 332 319 q 330 216 332 250 q 323 150 328 182 q 308 90 318 118 l 306 85 q 260 19 290 44 q 178 -7 231 -7 q 112 2 138 -7 q 72 27 86 11 q 51 65 57 43 q 46 110 46 86 q 38 490 42 300 q 29 871 33 681 q 58 970 28 932 q 168 1008 89 1008 q 301 966 254 1008 q 347 838 347 924 q 347 755 347 793 q 345 680 346 717 q 343 605 344 643 q 340 521 342 567 l 553 556 l 542 871 q 541 884 542 878 q 540 897 540 890 q 580 1001 540 969 q 689 1032 619 1032 q 857 871 849 1032 q 864 683 861 782 q 867 488 867 583 q 869 305 868 392 q 869 156 869 218 q 856 86 869 117 q 817 35 842 56 q 762 3 793 14 q 694 -7 731 -7 q 615 26 639 -7 q 589 108 592 60 q 579 236 583 172 q 571 363 575 300 l 333 350 z "},"i":{"ha":403,"x_min":40,"x_max":365,"o":"m 153 1007 q 285 961 235 1007 q 339 832 336 915 l 363 176 q 350 96 365 131 q 307 38 335 61 q 242 3 279 15 q 161 -8 204 -8 q 67 30 94 -8 q 40 129 40 68 l 40 885 q 69 970 40 933 q 153 1007 99 1007 z "},"j":{"ha":715,"x_min":33,"x_max":690,"o":"m 313 296 q 356 331 344 301 q 365 393 368 361 l 340 876 q 371 981 338 942 q 471 1019 404 1019 q 631 966 572 1019 q 686 824 690 913 q 672 521 679 672 q 657 218 664 369 q 631 129 656 171 q 567 57 607 88 q 475 9 528 26 q 363 -8 422 -8 q 138 49 214 -8 q 39 211 61 106 q 33 267 33 238 q 56 357 33 321 q 121 393 79 393 q 190 376 164 393 q 233 340 215 360 q 269 306 251 321 q 313 296 286 292 z "},"k":{"ha":901,"x_min":26,"x_max":874,"o":"m 349 183 q 331 105 349 136 q 286 56 314 74 q 222 30 258 38 q 144 22 185 22 q 56 58 85 22 q 29 151 26 93 l 49 911 q 93 1008 50 975 q 201 1042 136 1042 q 333 913 329 1042 l 338 686 l 531 947 q 694 1032 592 1032 q 797 999 756 1032 q 839 918 839 967 q 825 872 839 894 q 796 832 811 849 l 540 519 q 679 375 611 442 q 818 231 747 308 q 836 208 826 222 q 854 176 846 193 q 868 143 863 160 q 874 114 874 126 q 855 71 874 89 q 810 42 836 53 q 757 27 785 32 q 710 22 729 22 q 602 51 653 22 q 524 126 551 79 l 381 360 l 346 324 q 348 253 347 288 q 349 183 349 219 z "},"l":{"ha":689,"x_min":28,"x_max":660,"o":"m 28 228 q 29 560 28 394 q 35 892 31 725 q 158 1028 39 1028 q 242 1022 208 1028 q 297 998 276 1015 q 324 950 317 981 q 331 871 332 919 l 308 265 q 363 276 329 271 q 431 283 396 281 q 499 288 467 286 q 553 290 532 290 q 606 278 585 290 q 638 244 626 265 q 655 198 650 224 q 660 144 660 172 q 521 7 660 7 q 403 3 461 7 q 286 -1 344 -1 q 181 10 228 -1 q 99 48 133 21 q 47 119 65 75 q 28 228 28 163 z "},"m":{"ha":1436,"x_min":54,"x_max":1383,"o":"m 229 0 q 163 7 194 0 q 107 29 131 14 q 69 72 83 44 q 54 138 54 99 q 56 165 54 151 q 60 190 57 178 l 186 856 q 247 980 201 935 q 378 1025 293 1025 q 473 1018 428 1025 q 554 991 518 1011 q 615 936 590 971 q 649 846 639 901 l 742 285 l 901 883 q 963 974 915 938 q 1071 1010 1010 1010 q 1213 965 1158 1010 q 1283 828 1268 919 l 1378 251 q 1382 226 1381 239 q 1383 200 1383 213 q 1366 121 1383 154 q 1319 67 1349 88 q 1251 36 1289 46 q 1171 26 1213 26 q 1105 39 1132 26 q 1061 73 1078 51 q 1037 125 1044 94 q 1028 192 1029 156 l 1015 678 l 882 167 q 813 58 863 97 q 692 19 763 19 q 619 48 643 19 q 586 121 596 76 l 449 729 l 411 171 q 359 44 404 88 q 229 0 314 0 z "},"n":{"ha":974,"x_min":31,"x_max":919,"o":"m 219 1021 q 305 1015 265 1021 q 376 992 344 1008 q 430 945 407 975 q 467 867 453 915 l 642 243 l 603 879 q 644 988 599 947 q 771 1029 690 1029 q 864 993 836 1029 q 894 896 892 957 l 918 207 q 901 112 919 151 q 849 47 882 72 q 770 11 815 22 q 675 0 725 0 q 556 40 600 0 q 490 147 513 79 l 335 647 l 347 332 q 352 253 350 286 q 354 175 354 221 q 344 85 354 121 q 310 29 333 50 q 248 0 286 8 q 153 -8 210 -8 q 59 30 88 -8 q 33 129 31 68 l 49 844 q 91 975 50 929 q 219 1021 132 1021 z "},"o":{"ha":1199,"x_min":36,"x_max":1169,"o":"m 569 1086 q 821 1053 710 1086 q 1010 960 932 1021 q 1128 811 1088 899 q 1169 613 1169 724 q 1030 156 1169 311 q 622 1 890 1 q 377 32 486 1 q 192 123 268 63 q 76 274 117 183 q 36 488 36 365 q 78 722 36 613 q 191 912 119 831 q 360 1040 263 993 q 569 1086 457 1086 m 383 513 q 403 417 383 457 q 455 352 424 378 q 524 315 486 326 q 599 303 563 303 q 708 324 661 303 q 786 380 756 344 q 832 464 817 415 q 847 567 847 513 q 832 654 847 613 q 789 728 817 696 q 720 778 761 760 q 626 797 679 797 q 508 768 554 797 q 433 695 461 739 q 394 602 406 651 q 383 513 383 553 z "},"p":{"ha":892,"x_min":22,"x_max":863,"o":"m 376 142 q 358 80 376 103 q 313 46 340 57 q 252 31 285 35 q 189 28 219 28 q 86 68 117 28 q 53 175 56 108 l 24 942 q 50 1001 22 979 q 120 1035 78 1024 q 211 1049 163 1046 q 301 1053 260 1053 q 340 1052 322 1053 q 369 1051 357 1051 q 532 1040 446 1051 q 692 996 618 1029 q 814 902 765 963 q 863 742 863 842 q 846 642 863 692 q 801 547 829 592 q 735 465 774 503 q 656 401 697 426 q 510 331 588 361 q 361 279 433 300 q 371 210 365 244 q 376 142 376 176 m 340 474 q 409 526 369 497 q 484 590 449 556 q 544 663 519 624 q 569 744 569 701 q 551 799 569 778 q 505 833 532 821 q 446 851 478 846 q 389 856 414 856 q 342 852 365 856 q 299 838 318 849 l 340 474 z "},"q":{"ha":1171,"x_min":36,"x_max":1135,"o":"m 546 1085 q 791 1044 682 1085 q 976 939 900 1004 q 1094 790 1053 874 q 1135 621 1135 707 q 1122 494 1135 561 q 1087 363 1110 428 q 1030 238 1064 297 q 953 136 996 179 q 981 60 965 100 q 997 -19 997 19 q 985 -67 997 -47 q 956 -102 974 -87 q 915 -128 938 -117 q 872 -149 893 -139 q 844 -161 858 -156 q 814 -167 829 -167 q 765 -148 786 -167 q 729 -103 744 -129 q 703 -50 714 -78 q 683 -3 692 -22 q 533 -2 610 -7 q 385 21 457 3 q 249 74 313 39 q 139 163 186 108 q 64 297 92 218 q 36 481 36 375 q 79 706 36 597 q 193 899 122 815 q 356 1034 264 983 q 546 1085 447 1085 m 646 774 q 522 749 579 774 q 424 684 465 725 q 359 589 382 643 q 336 474 336 535 q 360 393 336 428 q 417 333 383 358 q 487 293 450 308 q 549 269 524 278 l 436 461 q 432 479 432 469 q 451 524 432 501 q 495 564 469 546 q 550 593 521 582 q 600 604 579 604 q 640 586 628 604 l 776 374 q 794 416 788 392 q 807 467 801 440 q 815 522 813 494 q 817 576 817 550 q 803 644 817 610 q 767 708 790 679 q 713 756 743 738 q 646 774 682 774 z "},"r":{"ha":1004,"x_min":26,"x_max":938,"o":"m 222 -3 q 144 8 181 -3 q 82 40 108 18 q 41 95 56 63 q 28 174 26 128 l 60 904 q 79 980 61 953 q 125 1021 97 1007 q 188 1038 153 1035 q 260 1042 224 1042 l 319 1042 q 433 1036 369 1042 q 563 1017 497 1031 q 691 979 628 1003 q 803 918 754 956 q 881 829 851 881 q 911 710 911 778 q 906 669 911 689 q 894 629 901 649 q 778 477 856 529 q 596 397 700 425 l 897 213 q 927 174 917 200 q 938 125 938 149 q 926 78 938 99 q 896 43 914 57 q 856 22 878 29 q 814 15 833 15 q 760 27 789 15 q 701 55 731 39 q 644 89 672 71 q 596 119 617 107 q 470 192 533 156 q 344 265 407 229 l 349 136 q 319 35 350 72 q 222 -3 289 -3 m 338 479 q 364 501 349 493 q 430 530 394 518 q 499 556 465 542 q 562 588 532 569 q 611 633 592 606 q 623 660 619 644 q 626 690 626 675 q 613 756 626 725 q 574 794 599 788 q 480 822 529 810 q 383 833 431 833 q 354 832 368 833 q 326 828 340 831 l 338 479 z "},"s":{"ha":917,"x_min":50,"x_max":882,"o":"m 833 922 q 826 868 833 897 q 805 814 819 839 q 768 772 790 789 q 717 756 746 756 q 655 765 685 756 q 595 784 625 774 q 536 803 565 794 q 475 813 507 813 q 435 802 454 813 q 403 776 417 792 q 383 740 390 760 q 375 700 375 719 q 397 650 375 665 q 454 628 418 635 q 535 619 490 621 q 628 610 581 617 q 722 585 676 603 q 803 532 767 568 q 860 435 839 496 q 882 281 882 375 q 832 119 882 181 q 707 22 782 57 q 544 -25 632 -12 q 381 -37 457 -37 q 285 -27 342 -37 q 176 6 228 -17 q 87 65 124 29 q 50 150 50 100 q 56 203 50 175 q 74 256 61 232 q 109 297 88 281 q 161 313 131 313 q 237 294 199 313 q 314 253 275 275 q 393 212 353 231 q 474 193 433 193 q 543 211 511 193 q 575 271 575 229 q 556 351 575 322 q 505 397 536 381 q 434 423 474 414 q 352 442 394 432 q 270 467 310 451 q 199 513 231 482 q 149 593 168 543 q 129 721 129 643 q 156 851 129 790 q 227 958 182 913 q 333 1029 272 1003 q 464 1056 394 1056 q 522 1054 486 1056 q 598 1049 557 1053 q 681 1036 639 1044 q 756 1013 722 1028 q 812 975 790 997 q 833 922 833 953 z "},"t":{"ha":794,"x_min":11,"x_max":765,"o":"m 115 835 q 11 947 11 843 q 35 1022 11 994 q 107 1049 58 1050 l 667 1025 q 738 1005 710 1024 q 765 939 765 986 q 759 885 765 911 q 739 840 753 860 q 703 810 725 821 q 650 799 682 799 q 590 801 619 799 q 532 807 561 804 l 554 178 q 502 42 557 92 q 351 -8 447 -8 q 257 30 285 -8 q 231 129 229 68 l 246 826 l 115 835 z "},"u":{"ha":950,"x_min":29,"x_max":924,"o":"m 619 490 q 615 681 619 586 q 611 872 611 776 q 786 1032 611 1032 q 887 998 850 1032 q 919 897 924 964 q 907 613 911 754 q 893 329 903 471 q 861 194 889 256 q 788 90 833 133 q 683 24 743 47 q 554 0 624 0 l 432 0 q 270 31 342 0 q 149 114 199 63 q 71 230 99 165 q 40 361 43 294 q 37 487 39 431 q 33 597 35 543 q 30 708 31 651 q 29 833 29 765 q 73 972 29 922 q 213 1022 117 1022 q 313 982 279 1022 q 347 882 347 942 l 346 415 q 356 362 346 388 q 385 317 367 336 q 428 286 403 297 q 479 275 453 275 q 548 297 521 275 q 591 350 575 318 q 613 419 607 382 q 619 490 619 457 z "},"v":{"ha":1142,"x_min":64,"x_max":1082,"o":"m 557 -18 q 440 8 485 -18 q 375 78 394 33 q 229 424 303 251 q 83 771 156 597 q 69 812 75 790 q 64 856 64 833 q 83 918 64 892 q 129 962 101 944 q 191 988 157 979 q 256 997 225 997 q 347 960 315 997 q 393 869 379 922 q 483 535 438 703 q 574 200 529 367 q 653 533 614 365 q 733 865 693 700 q 796 981 751 940 q 919 1022 840 1022 q 976 1018 947 1022 q 1028 1001 1004 1014 q 1067 968 1051 989 q 1082 914 1082 947 q 1077 876 1082 894 q 1065 838 1072 857 q 935 476 1000 657 q 804 113 869 294 q 710 10 776 38 q 557 -18 644 -18 z "},"w":{"ha":1428,"x_min":50,"x_max":1379,"o":"m 406 -11 q 327 3 364 -11 q 260 43 290 18 q 209 102 229 68 q 181 176 189 136 q 119 508 150 342 q 56 840 88 675 q 51 867 53 854 q 50 893 50 881 q 64 960 50 933 q 102 1002 78 986 q 158 1025 126 1018 q 224 1032 189 1032 q 354 988 310 1032 q 408 860 399 943 q 439 580 424 721 q 469 300 454 439 q 494 388 482 332 q 517 503 506 443 q 541 619 529 564 q 564 707 553 675 q 588 752 572 728 q 624 797 603 776 q 668 830 644 817 q 717 843 692 843 q 775 829 749 843 q 823 794 801 815 q 863 747 844 774 q 894 696 881 721 q 924 625 910 672 q 953 526 939 578 q 983 426 968 474 q 1013 354 999 379 q 1019 597 1015 476 q 1025 840 1022 718 q 1058 958 1026 911 q 1168 1004 1090 1004 q 1248 994 1210 1004 q 1315 964 1286 985 q 1362 910 1344 943 q 1379 831 1379 878 q 1375 781 1379 806 q 1327 492 1351 638 q 1279 204 1303 347 q 1249 123 1272 157 q 1194 66 1226 89 q 1120 32 1161 43 q 1035 21 1079 21 q 930 51 974 21 q 867 136 886 82 l 739 486 l 661 158 q 627 76 650 108 q 571 24 604 43 q 496 -3 538 4 q 406 -11 454 -11 z "},"x":{"ha":1063,"x_min":57,"x_max":1001,"o":"m 63 971 q 79 1013 63 996 q 119 1042 96 1031 q 167 1060 142 1054 q 210 1065 192 1065 q 336 1033 283 1065 q 421 929 389 1000 q 473 814 447 871 q 525 700 499 757 q 565 806 544 753 q 606 913 586 860 q 677 1006 628 971 q 790 1042 726 1042 q 836 1038 810 1042 q 888 1024 863 1033 q 930 997 913 1014 q 947 954 947 981 q 935 909 947 931 q 913 868 924 888 q 814 701 864 785 q 715 533 764 617 q 841 365 778 450 q 967 197 904 281 q 991 156 981 178 q 1001 111 1001 135 q 983 63 1001 83 q 938 31 964 43 q 883 12 911 18 q 835 6 854 6 q 733 43 776 6 q 657 128 689 81 q 584 233 621 181 q 511 339 547 286 q 447 238 479 289 q 382 136 414 186 q 283 35 336 65 q 153 6 231 6 q 122 10 139 6 q 90 23 104 14 q 67 46 76 32 q 57 79 57 60 q 63 118 57 99 q 81 154 69 138 q 194 343 138 249 q 308 531 251 438 q 203 706 256 618 q 99 881 151 793 q 75 924 88 900 q 63 971 63 947 z "},"y":{"ha":1044,"x_min":64,"x_max":990,"o":"m 103 789 q 76 834 88 810 q 64 885 64 858 q 83 935 64 914 q 131 970 103 957 q 189 990 158 983 q 243 997 219 997 q 340 963 304 997 q 399 875 376 928 l 521 588 l 647 875 q 719 983 676 943 q 836 1024 761 1024 q 883 1021 857 1024 q 934 1009 910 1018 q 974 983 958 1000 q 990 939 990 967 q 982 893 990 915 q 961 851 974 871 l 631 375 q 637 323 632 354 q 647 258 642 292 q 657 194 653 225 q 661 142 661 163 q 646 69 661 96 q 604 28 631 42 q 544 10 578 14 q 472 7 510 7 q 422 12 446 7 q 379 28 397 17 q 351 60 361 40 q 340 110 340 79 q 344 144 340 128 q 350 179 347 161 l 386 433 l 103 789 z "},"z":{"ha":849,"x_min":22,"x_max":819,"o":"m 626 1047 q 704 1016 685 1050 q 724 932 724 982 q 718 859 724 890 q 689 790 713 828 q 611 658 649 724 q 536 528 574 593 q 460 399 499 464 q 378 267 422 335 q 514 282 446 274 q 650 297 582 290 q 694 301 674 301 q 753 290 729 301 q 791 258 776 278 q 813 210 806 238 q 819 153 819 183 l 819 147 q 676 7 819 7 q 494 12 585 7 q 311 19 403 17 q 236 27 276 21 q 163 49 196 33 q 107 92 129 64 q 85 165 85 119 q 100 248 85 207 q 135 325 115 289 q 266 556 200 447 q 396 786 332 664 q 272 775 333 782 q 146 768 210 768 q 53 808 83 768 q 22 907 22 849 q 49 989 22 954 q 119 1026 76 1024 l 626 1047 z "},"{":{"ha":582,"x_min":24,"x_max":553,"o":"m 358 -119 q 179 57 183 -119 q 177 167 178 111 q 175 276 176 222 q 163 354 174 325 q 134 403 151 383 q 97 436 117 422 q 62 467 78 450 q 35 508 46 483 q 24 572 24 532 q 48 634 24 606 q 101 688 72 663 q 153 736 129 713 q 178 783 178 760 q 178 897 178 842 q 179 1011 179 951 q 354 1185 182 1185 q 401 1185 378 1185 q 447 1183 424 1185 q 509 1165 488 1183 q 531 1104 531 1146 q 518 1053 531 1067 q 488 1034 506 1039 q 452 1026 471 1029 q 419 1007 433 1024 q 407 954 407 990 q 411 899 407 929 q 420 833 415 868 q 428 763 425 799 q 431 693 432 728 q 415 649 431 669 q 380 610 399 629 q 345 572 361 592 q 329 528 329 551 q 341 489 329 507 q 368 451 353 471 q 397 404 383 431 q 413 340 410 378 q 415 281 414 315 q 416 211 415 247 q 417 141 417 175 q 419 82 418 107 q 432 72 421 72 q 465 79 446 72 q 499 86 483 86 q 553 35 553 86 q 547 -26 553 3 q 528 -75 542 -54 q 490 -108 514 -96 q 429 -119 465 -119 l 358 -119 z "},"|":{"ha":354,"x_min":42,"x_max":311,"o":"m 176 -136 q 42 -1 42 -136 l 42 1094 q 176 1229 42 1229 q 311 1094 311 1229 l 311 -1 q 176 -136 311 -136 z "},"}":{"ha":600,"x_min":42,"x_max":572,"o":"m 236 1196 q 415 1019 411 1196 q 417 909 417 964 q 421 800 418 854 q 433 723 422 753 q 462 674 444 693 q 499 640 479 654 q 534 610 518 626 q 561 568 550 593 q 572 503 572 543 q 548 442 572 469 q 495 389 524 414 q 442 340 467 364 q 418 293 418 317 q 417 178 417 233 q 415 64 417 124 q 242 -110 415 -110 q 194 -109 218 -110 q 147 -108 171 -108 q 86 -88 107 -107 q 65 -29 65 -69 q 78 22 65 8 q 108 41 90 36 q 144 49 125 46 q 175 68 163 51 q 188 121 188 82 q 183 177 188 146 q 174 242 179 208 q 166 313 169 276 q 164 383 163 349 q 181 427 165 407 q 216 466 197 447 q 250 505 235 485 q 265 549 265 525 q 253 587 265 569 q 227 624 242 604 q 199 671 213 644 q 183 735 186 697 q 181 794 182 760 q 179 864 179 828 q 178 934 179 900 q 175 993 178 968 q 163 1004 175 1004 q 131 997 150 1004 q 97 989 111 989 q 42 1040 42 989 q 47 1102 42 1074 q 67 1151 53 1131 q 106 1184 82 1172 q 165 1196 129 1196 l 236 1196 z "},"~":{"ha":768,"x_min":57,"x_max":738,"o":"m 263 481 q 257 443 260 464 q 249 405 254 422 q 231 376 243 388 q 197 364 219 364 q 157 367 181 364 q 111 378 133 369 q 73 401 89 386 q 57 442 57 417 q 65 485 57 465 q 83 525 74 506 q 160 615 113 590 q 274 640 208 640 q 344 631 311 640 q 409 606 378 621 q 470 572 440 590 q 532 533 500 553 q 540 567 536 549 q 551 600 544 585 q 569 626 558 615 q 600 636 581 636 q 640 633 617 636 q 685 620 664 629 q 722 595 707 611 q 738 554 738 579 q 726 502 738 529 q 706 451 715 475 q 649 379 685 399 q 561 360 613 360 q 482 372 521 360 q 406 401 443 383 q 333 441 369 419 q 263 481 297 463 z "},"":{"ha":382,"x_min":32,"x_max":343,"o":"m 186 824 q 292 794 254 824 q 329 693 329 764 q 299 595 329 626 q 201 564 268 564 q 96 594 133 564 q 58 694 58 624 q 186 824 58 824 m 192 450 q 304 347 293 450 l 342 -78 q 343 -92 343 -85 q 343 -106 343 -99 q 301 -215 343 -182 q 186 -247 260 -247 q 74 -216 115 -247 q 32 -110 32 -185 q 33 -94 32 -101 q 33 -78 33 -86 l 79 347 q 192 450 90 450 z "},"":{"ha":911,"x_min":38,"x_max":847,"o":"m 836 922 q 830 859 836 896 q 810 790 824 822 q 774 735 796 758 q 722 713 753 713 q 683 718 704 713 q 642 730 663 724 q 601 742 621 736 q 561 747 581 747 q 467 732 511 747 q 391 688 424 717 q 339 617 358 658 q 319 525 319 576 q 336 443 319 476 q 369 381 351 408 q 412 335 388 353 q 468 309 436 317 q 543 306 500 301 q 583 322 560 308 q 633 349 607 335 q 683 376 658 364 q 726 389 707 389 q 775 365 753 389 q 813 308 797 342 q 838 240 829 275 q 847 183 847 206 q 821 111 847 139 q 756 68 794 83 l 596 3 q 599 -76 597 -37 q 600 -153 600 -114 q 490 -261 600 -261 q 375 -147 375 -261 l 374 7 q 207 71 272 32 q 104 167 142 110 q 52 302 67 225 q 38 479 38 379 q 62 698 38 613 q 130 839 86 783 q 235 929 174 894 q 374 994 297 964 q 372 1062 374 1028 q 378 1124 371 1096 q 407 1169 386 1151 q 472 1188 428 1188 q 519 1188 496 1188 q 560 1181 542 1188 q 589 1160 578 1175 q 600 1113 600 1144 q 599 1071 600 1092 q 599 1028 599 1050 l 735 1013 q 806 989 776 1008 q 836 922 836 969 z "},"":{"ha":851,"x_min":25,"x_max":810,"o":"m 75 417 q 52 431 61 417 q 37 463 43 444 q 28 501 31 482 q 25 533 25 521 q 40 571 25 558 q 77 588 56 583 q 123 594 99 593 q 164 596 147 594 q 192 747 182 671 q 208 899 203 822 q 295 1056 217 1006 q 529 1107 374 1107 q 620 1086 578 1107 q 694 1030 663 1065 q 743 946 725 994 q 761 840 761 897 q 748 810 761 824 q 713 787 735 796 q 665 773 692 778 q 611 768 639 768 q 571 792 586 768 q 546 847 556 817 q 529 903 536 878 q 515 933 522 929 q 492 938 503 938 q 444 890 457 938 q 427 763 431 835 q 413 618 424 692 q 466 624 438 621 q 524 629 494 626 q 581 634 553 632 q 633 636 610 636 q 683 616 668 636 q 697 564 697 596 q 629 489 697 500 l 382 457 q 369 402 375 428 q 355 353 363 376 q 338 305 347 329 q 317 253 329 281 l 650 282 q 669 283 660 282 q 689 285 679 285 q 747 273 724 285 q 783 242 769 261 q 803 195 797 222 q 810 138 810 168 q 676 6 810 1 l 139 28 q 42 129 42 32 q 62 257 42 190 q 114 421 82 324 q 94 418 104 419 q 75 417 85 417 z "},"":{"ha":1047,"x_min":56,"x_max":999,"o":"m 179 10 q 140 20 161 10 q 101 47 118 31 q 72 84 83 64 q 60 124 60 104 q 69 163 60 144 q 93 197 79 182 l 197 314 q 161 401 174 356 q 149 518 149 447 q 153 589 149 560 q 163 642 157 618 q 178 691 169 667 q 194 749 186 715 l 86 874 q 65 905 74 889 q 56 940 56 921 q 66 978 56 960 q 93 1010 76 996 q 129 1033 110 1024 q 167 1042 149 1042 q 209 1030 190 1042 q 242 1001 228 1018 l 347 882 q 436 921 390 900 q 531 942 482 942 q 625 926 574 942 q 717 901 676 911 l 804 1001 q 838 1029 819 1017 q 881 1042 857 1042 q 917 1033 897 1042 q 953 1010 936 1024 q 980 978 969 996 q 990 940 990 960 q 981 905 990 921 q 961 874 972 889 l 878 778 q 910 728 893 753 q 942 678 928 704 q 965 626 956 653 q 974 568 974 599 q 951 411 974 483 q 899 278 929 339 q 924 248 907 268 q 957 204 940 228 q 986 158 974 181 q 999 121 999 136 q 985 83 999 103 q 950 48 971 64 q 907 22 929 32 q 868 11 885 11 q 823 25 843 11 q 788 57 803 39 l 715 140 q 638 114 679 122 q 553 106 596 106 q 442 120 496 106 q 342 165 388 135 l 254 51 q 222 22 242 33 q 179 10 203 10 m 561 739 q 501 719 532 739 q 446 666 471 699 q 405 594 421 633 q 389 518 389 556 q 399 447 389 485 q 427 376 408 408 q 476 321 446 343 q 544 299 506 299 q 608 310 574 299 q 669 349 642 322 q 716 422 697 376 q 735 535 735 468 q 721 613 735 576 q 683 678 707 650 q 628 723 660 707 q 561 739 597 739 z "},"":{"ha":1021,"x_min":40,"x_max":951,"o":"m 739 303 q 810 278 788 304 q 833 206 833 251 q 815 158 833 172 q 765 143 797 143 q 699 144 732 143 q 635 147 667 146 q 636 110 635 128 q 638 75 638 93 q 620 27 638 44 q 577 1 603 10 q 522 -8 551 -7 q 469 -10 493 -10 l 464 -10 q 434 -5 450 -10 q 404 8 418 0 q 381 28 390 17 q 372 54 372 40 q 369 106 372 79 q 371 157 365 132 l 201 160 q 140 218 140 160 q 158 276 140 254 q 213 294 175 297 l 376 283 l 369 365 q 297 363 340 364 q 222 363 253 363 q 172 376 190 363 q 154 424 154 390 q 178 497 154 471 q 249 522 201 522 q 310 522 281 522 q 372 519 340 521 l 372 525 l 92 807 q 58 849 75 825 q 40 900 40 874 q 60 944 40 925 q 109 975 81 963 q 167 993 138 988 q 217 999 197 999 q 317 967 276 999 q 383 886 357 935 l 507 658 l 606 896 q 677 992 632 958 q 790 1025 722 1025 q 835 1023 808 1025 q 888 1013 863 1021 q 933 991 914 1006 q 951 951 951 976 q 938 904 951 928 q 913 863 925 881 l 654 515 l 756 514 q 810 493 792 513 q 828 438 828 474 q 811 393 828 407 q 765 378 794 379 l 622 374 l 626 301 l 739 303 z "},"":{"ha":351,"x_min":53,"x_max":296,"o":"m 296 1107 q 294 948 296 1028 q 290 788 293 868 q 262 707 288 733 q 181 681 236 681 q 97 708 124 681 q 68 790 71 736 q 59 951 63 871 q 56 1111 56 1031 q 175 1226 56 1226 q 296 1107 296 1226 m 53 -18 q 54 162 53 72 q 60 342 56 251 q 88 422 63 396 q 169 449 113 449 q 252 421 225 449 q 282 339 279 393 q 291 158 288 249 q 294 -22 294 68 q 264 -110 294 -82 q 175 -139 233 -139 q 53 -18 53 -139 z "},"":{"ha":849,"x_min":33,"x_max":828,"o":"m 772 1081 q 767 1038 772 1060 q 750 997 761 1015 q 721 967 739 979 q 679 956 703 956 q 610 969 649 956 q 533 1000 571 983 q 464 1031 496 1017 q 414 1044 432 1044 q 371 1035 393 1043 q 330 1013 349 1028 q 299 972 311 997 q 286 910 286 946 q 318 855 286 874 q 398 826 350 836 q 504 813 446 817 q 614 803 563 810 q 713 775 672 796 q 777 722 753 754 q 813 648 801 690 q 824 557 824 606 q 816 505 824 536 q 792 443 808 474 q 749 388 775 413 q 688 357 724 364 q 756 329 729 344 q 798 290 782 314 q 820 233 814 267 q 826 149 826 199 l 828 128 q 807 20 828 64 q 752 -53 786 -24 q 674 -98 718 -82 q 585 -122 631 -114 q 497 -131 540 -129 q 421 -132 454 -132 q 294 -114 363 -132 q 168 -67 226 -96 q 72 1 110 -37 q 33 79 33 39 q 39 125 33 101 q 56 169 44 149 q 87 201 68 189 q 132 214 106 214 q 190 197 160 214 q 249 159 219 181 q 310 118 279 138 q 371 92 340 99 q 424 81 386 89 q 503 74 463 74 q 566 84 539 74 q 593 126 593 94 q 553 179 593 157 q 455 220 513 201 q 333 258 397 239 q 224 299 269 276 q 167 330 193 314 q 121 369 140 346 q 90 424 101 392 q 79 503 79 456 q 88 574 79 546 q 113 623 96 603 q 155 660 129 643 q 215 697 181 676 q 162 713 190 701 q 109 748 133 725 q 68 807 85 771 q 51 894 51 843 q 72 1022 51 964 q 138 1124 93 1081 q 255 1190 183 1167 q 428 1214 326 1214 q 480 1211 447 1214 q 551 1203 513 1208 q 628 1188 589 1197 q 700 1163 668 1178 q 752 1127 732 1147 q 772 1081 772 1107 m 308 503 q 330 456 308 474 q 381 428 351 438 q 442 415 410 418 q 494 411 474 411 q 538 422 517 411 q 576 449 560 433 q 603 483 593 465 q 614 517 614 501 q 599 561 614 540 q 560 598 585 582 q 505 624 536 614 q 439 633 474 633 q 340 594 372 633 q 308 503 308 556 z "},"":{"ha":531,"x_min":76,"x_max":471,"o":"m 260 1183 q 232 1118 260 1139 q 168 1097 204 1097 q 101 1121 125 1097 q 76 1182 76 1144 q 106 1247 76 1226 q 171 1268 135 1268 q 236 1244 213 1268 q 260 1183 260 1221 m 471 1182 q 443 1117 471 1138 q 379 1097 415 1097 q 313 1120 338 1097 q 288 1181 288 1143 q 317 1246 288 1225 q 382 1267 346 1267 q 448 1243 425 1267 q 471 1182 471 1219 z "},"":{"ha":1251,"x_min":35,"x_max":1222,"o":"m 581 1089 q 830 1060 714 1089 q 1032 969 946 1032 q 1168 806 1118 906 q 1221 565 1218 707 l 1221 551 q 1174 299 1222 406 q 1044 121 1125 192 q 860 15 964 50 q 646 -19 756 -19 q 394 22 507 -19 q 201 138 281 63 q 78 322 121 214 q 35 561 35 429 q 69 742 35 649 q 172 913 104 836 q 343 1040 240 990 q 581 1089 446 1089 m 203 564 q 226 380 203 460 q 301 244 249 300 q 435 160 353 189 q 639 132 518 132 q 784 148 714 132 q 904 192 854 164 q 983 269 953 218 q 1031 377 1013 321 q 1055 485 1049 433 q 1061 565 1061 538 q 1031 730 1061 656 q 946 857 1000 804 q 818 938 892 910 q 658 967 744 967 q 472 937 563 967 q 321 844 382 907 q 276 787 297 819 q 238 717 254 754 q 213 641 222 681 q 203 564 203 601 m 854 774 q 836 713 854 742 q 782 685 818 685 q 732 695 757 685 q 682 706 707 706 q 617 692 646 706 q 570 658 589 679 q 542 610 551 636 q 532 557 532 583 q 544 472 532 506 q 578 419 557 438 q 628 392 600 400 q 685 385 656 385 q 710 392 696 385 q 738 409 724 400 q 767 426 753 418 q 794 433 782 433 q 822 424 810 433 q 843 400 835 414 q 856 370 851 386 q 861 342 861 354 q 845 300 861 315 q 806 275 829 285 l 722 242 q 644 226 683 226 q 527 251 581 226 q 436 319 474 276 q 378 417 399 361 q 357 535 357 474 q 382 653 357 599 q 449 749 407 708 q 548 814 492 790 q 668 838 604 838 q 731 833 700 838 q 794 826 763 829 q 836 813 818 824 q 854 774 854 801 z "},"":{"ha":594,"x_min":60,"x_max":543,"o":"m 501 807 q 506 784 500 792 q 521 771 513 776 q 536 758 529 765 q 543 738 543 751 q 522 676 543 706 q 460 646 500 646 q 417 652 439 646 q 375 671 394 658 q 342 701 356 683 q 324 739 328 718 q 263 699 297 722 q 196 676 229 676 q 145 692 169 676 q 102 731 121 707 q 72 782 83 754 q 60 835 60 810 q 119 1083 60 986 q 318 1235 178 1181 q 392 1249 357 1249 q 443 1243 417 1249 q 491 1225 469 1238 q 526 1192 513 1213 q 540 1143 540 1172 q 539 1124 540 1131 l 501 807 m 211 871 q 213 852 211 864 q 217 830 214 840 q 226 812 219 819 q 243 804 233 804 q 276 817 257 804 q 311 847 294 829 q 341 887 328 865 q 357 925 354 908 l 389 1103 l 329 1085 q 287 1056 308 1078 q 249 1003 265 1033 q 222 938 232 972 q 211 871 211 903 m 185 488 q 122 550 122 488 q 185 613 122 613 l 438 607 q 493 550 493 606 q 438 493 493 493 l 185 488 z "},"":{"ha":878,"x_min":60,"x_max":792,"o":"m 407 557 q 425 638 407 601 q 479 701 443 675 l 653 835 q 679 850 665 843 q 708 857 693 857 q 739 846 725 857 q 762 819 753 835 q 776 786 771 804 q 782 753 782 768 q 765 706 782 725 q 729 671 749 686 l 585 553 l 725 454 q 772 409 753 435 q 792 347 792 383 q 789 317 792 335 q 780 284 786 300 q 763 258 774 268 q 735 247 751 247 q 706 253 719 247 q 682 268 693 260 l 481 414 q 426 476 444 439 q 407 557 407 513 m 60 542 q 78 623 60 586 q 132 686 96 660 l 306 819 q 332 835 318 828 q 361 842 346 842 q 392 831 378 842 q 415 804 406 819 q 431 771 425 789 q 436 738 436 753 q 419 691 436 711 q 383 656 403 671 l 238 538 l 378 439 q 425 394 406 419 q 444 332 444 368 q 442 302 444 319 q 433 269 439 285 q 415 243 426 254 q 388 232 404 232 q 359 238 372 232 q 335 253 346 244 l 133 399 q 78 460 97 424 q 60 542 60 497 z "},"":{"ha":768,"x_min":33,"x_max":717,"o":"m 33 532 q 121 618 33 617 l 553 619 q 633 610 601 619 q 684 581 665 601 q 710 528 703 561 q 717 446 717 494 q 716 392 717 418 q 714 340 715 367 q 639 267 713 267 q 564 343 564 267 l 563 425 l 121 418 q 55 453 76 418 q 33 532 33 488 z "},"":{"ha":1251,"x_min":35,"x_max":1222,"o":"m 581 1089 q 830 1060 714 1089 q 1032 969 946 1032 q 1168 806 1118 906 q 1221 565 1218 707 l 1221 551 q 1174 299 1222 406 q 1044 121 1125 192 q 860 15 964 50 q 646 -19 756 -19 q 394 22 507 -19 q 201 138 281 63 q 78 322 121 214 q 35 561 35 429 q 69 742 35 649 q 172 913 104 836 q 343 1040 240 990 q 581 1089 446 1089 m 203 564 q 226 380 203 460 q 301 244 249 300 q 435 160 353 189 q 639 132 518 132 q 784 148 714 132 q 904 192 854 164 q 983 269 953 218 q 1031 377 1013 321 q 1055 485 1049 433 q 1061 565 1061 538 q 1031 730 1061 656 q 946 857 1000 804 q 818 938 892 910 q 658 967 744 967 q 472 937 563 967 q 321 844 382 907 q 276 787 297 819 q 238 717 254 754 q 213 641 222 681 q 203 564 203 601 m 500 268 q 424 292 456 268 q 394 364 392 315 l 411 764 q 422 803 413 789 q 445 826 431 818 q 478 837 460 835 q 518 839 497 839 q 578 835 550 839 q 638 828 606 832 q 700 820 671 824 q 755 808 729 817 q 803 784 781 800 q 847 736 826 768 q 867 697 858 717 q 875 656 875 678 q 848 565 875 594 q 764 519 821 535 q 793 485 772 510 q 836 433 814 461 q 876 378 858 404 q 893 338 893 351 q 884 312 893 324 q 861 292 875 300 q 833 278 847 283 q 807 274 818 274 q 751 290 776 274 q 706 331 726 307 q 668 382 685 354 q 636 432 651 410 q 620 459 626 444 q 614 490 614 474 q 626 526 614 510 q 656 558 639 543 q 689 586 672 572 q 714 615 706 600 q 721 653 721 632 q 715 687 721 672 q 694 704 708 701 q 626 713 660 708 q 558 722 592 718 q 565 533 561 626 q 569 344 569 440 q 553 288 569 308 q 500 268 538 268 z "},"":{"ha":535,"x_min":29,"x_max":514,"o":"m 29 1193 q 131 1294 29 1296 l 426 1286 q 491 1266 468 1285 q 514 1203 514 1247 q 415 1100 514 1101 l 131 1092 q 29 1193 29 1090 z "},"":{"ha":542,"x_min":61,"x_max":501,"o":"m 276 1108 q 501 890 501 1108 q 484 809 501 847 q 437 742 467 771 q 368 696 407 713 q 286 679 329 679 q 114 731 167 679 q 61 897 61 782 q 79 978 61 940 q 127 1046 97 1017 q 196 1092 157 1075 q 276 1108 235 1108 m 204 881 q 229 824 204 838 q 292 810 254 810 q 327 820 311 810 q 355 846 343 831 q 374 878 367 861 q 381 907 381 894 q 351 958 381 939 q 286 976 322 976 q 231 952 258 976 q 204 881 204 928 z "},"":{"ha":758,"x_min":43,"x_max":710,"o":"m 286 511 q 232 508 261 511 q 175 506 203 506 q 125 510 149 506 q 83 525 101 514 q 54 556 65 536 q 43 610 43 576 q 65 683 43 657 q 136 708 88 708 q 215 706 176 708 q 294 701 254 704 l 301 863 q 388 944 306 944 q 471 863 468 944 l 474 693 l 636 708 q 671 701 657 710 q 693 676 685 692 q 706 641 701 661 q 710 600 710 621 q 628 517 710 517 l 475 515 q 477 436 476 475 q 478 358 478 397 q 376 256 478 256 q 279 349 279 256 q 281 430 279 389 q 286 511 283 471 m 146 -12 q 43 89 43 -12 q 65 160 43 133 q 136 188 88 186 l 619 197 q 657 186 640 197 q 685 158 674 175 q 703 121 697 142 q 710 79 710 100 q 628 -4 710 -4 l 146 -12 z "},"":{"ha":575,"x_min":32,"x_max":522,"o":"m 257 1317 q 342 1306 301 1317 q 413 1272 382 1294 q 463 1213 444 1249 q 482 1128 482 1176 q 462 1041 482 1079 q 404 972 442 1003 l 208 819 l 450 854 q 469 856 457 856 q 522 803 522 856 q 498 728 522 756 q 425 697 474 700 q 289 692 357 694 q 153 689 221 689 q 113 696 135 689 q 74 716 92 703 q 44 747 56 729 q 32 786 32 765 q 39 813 32 801 q 57 836 46 825 l 318 1103 q 325 1118 325 1110 q 299 1151 325 1136 q 246 1165 274 1165 q 206 1151 226 1165 q 165 1121 185 1138 q 128 1090 146 1104 q 97 1076 110 1076 q 74 1087 83 1076 q 58 1111 64 1097 q 50 1141 53 1125 q 47 1167 47 1157 q 57 1209 47 1192 q 81 1240 67 1226 q 115 1265 96 1254 q 153 1286 135 1275 q 257 1317 201 1317 z "},"":{"ha":536,"x_min":19,"x_max":510,"o":"m 225 1335 q 303 1328 260 1335 q 384 1303 346 1321 q 449 1258 422 1286 q 475 1186 475 1229 q 465 1134 475 1160 q 440 1086 456 1108 q 407 1049 425 1064 q 372 1028 389 1033 q 472 978 433 1013 q 510 868 510 943 q 488 800 510 832 q 434 744 467 768 q 363 706 401 719 q 292 692 325 692 q 226 695 267 692 q 145 709 185 699 q 77 740 106 719 q 49 794 49 760 q 52 826 49 810 q 63 857 56 843 q 83 879 71 871 q 114 888 96 888 q 144 881 128 888 q 176 867 160 875 q 207 853 192 860 q 236 847 222 847 q 259 855 247 847 q 281 874 271 863 q 296 899 290 886 q 301 922 301 913 q 290 936 301 933 l 118 963 q 82 1007 82 968 q 117 1053 82 1044 l 253 1088 q 283 1106 271 1092 q 296 1138 296 1121 q 293 1153 296 1147 q 260 1178 282 1176 q 213 1178 239 1181 q 184 1169 200 1176 q 151 1152 168 1161 q 118 1136 135 1143 q 88 1129 101 1129 q 57 1138 69 1129 q 36 1162 44 1147 q 24 1193 28 1176 q 19 1224 19 1210 q 43 1274 19 1253 q 100 1308 67 1294 q 168 1328 133 1322 q 225 1335 203 1335 z "},"":{"ha":346,"x_min":38,"x_max":349,"o":"m 100 1060 q 83 1060 94 1060 q 63 1063 72 1061 q 45 1069 53 1065 q 38 1081 38 1074 q 42 1099 38 1090 q 53 1114 47 1107 q 84 1144 67 1129 q 114 1174 101 1158 q 140 1211 129 1192 q 164 1247 150 1231 q 199 1273 178 1263 q 258 1283 221 1283 q 283 1281 268 1283 q 313 1275 299 1279 q 338 1263 328 1271 q 349 1244 349 1256 q 340 1222 349 1233 q 322 1203 332 1211 q 270 1155 296 1181 q 217 1108 244 1129 q 161 1074 190 1088 q 100 1060 132 1060 z "},"":{"ha":853,"x_min":29,"x_max":786,"o":"m 775 10 q 758 -50 775 -28 q 701 -72 742 -72 q 625 -49 653 -72 q 597 24 597 -26 l 624 968 l 563 968 l 504 18 q 399 -79 499 -79 q 322 -3 322 -79 l 338 489 q 199 544 257 517 q 103 612 140 572 q 47 710 65 651 q 29 857 29 768 q 52 976 29 926 q 114 1060 75 1025 q 204 1115 153 1094 q 312 1148 256 1136 q 426 1163 368 1160 q 536 1167 485 1167 q 578 1163 557 1167 q 619 1156 599 1158 q 679 1149 649 1151 q 733 1138 710 1147 q 772 1109 757 1129 q 786 1050 786 1089 l 775 10 z "},"":{"ha":356,"x_min":40,"x_max":314,"o":"m 314 617 q 301 562 314 583 q 266 526 288 540 q 217 507 244 513 q 163 501 190 501 q 107 513 131 501 q 69 546 83 525 q 47 593 54 567 q 40 649 40 619 q 53 703 40 682 q 88 739 67 725 q 138 758 110 753 q 193 764 165 764 q 248 752 225 764 q 285 719 271 740 q 307 672 300 699 q 314 617 314 646 z "},"":{"ha":342,"x_min":22,"x_max":307,"o":"m 154 -261 q 56 -228 89 -261 q 22 -154 22 -194 q 38 -118 22 -136 q 75 -100 54 -100 q 93 -110 86 -100 q 106 -133 100 -121 q 119 -156 113 -146 q 138 -167 126 -167 q 169 -135 169 -167 q 161 -108 169 -118 q 142 -89 153 -97 q 124 -73 132 -81 q 115 -54 115 -65 q 119 -23 115 -40 q 129 9 122 -6 q 148 34 136 24 q 176 44 160 44 q 213 38 194 44 q 232 10 232 32 q 224 -13 232 -1 q 217 -35 217 -25 q 222 -43 217 -39 q 258 -63 242 -56 q 285 -80 274 -71 q 301 -104 296 -89 q 307 -147 307 -119 q 290 -190 307 -169 q 249 -226 274 -210 q 199 -251 225 -242 q 154 -261 174 -261 z "},"":{"ha":365,"x_min":40,"x_max":304,"o":"m 150 1310 q 201 1305 175 1310 q 249 1288 228 1300 q 283 1255 269 1275 q 297 1206 297 1235 q 301 1005 299 1106 q 304 804 304 904 q 272 724 304 749 q 186 699 239 699 q 110 779 110 699 l 132 1161 q 103 1151 118 1157 q 72 1146 88 1146 q 51 1156 57 1146 q 44 1179 46 1165 q 42 1209 43 1194 q 40 1239 40 1224 q 50 1276 40 1263 q 76 1298 60 1290 q 111 1308 92 1306 q 150 1310 131 1310 z "},"":{"ha":565,"x_min":43,"x_max":549,"o":"m 319 1253 q 433 1233 389 1253 q 503 1181 478 1214 q 539 1105 529 1149 q 549 1013 549 1061 q 531 877 549 939 q 479 771 513 815 q 397 701 446 726 q 286 676 349 676 q 178 701 224 676 q 102 766 132 725 q 58 860 72 807 q 43 968 43 913 q 52 1054 43 1006 q 90 1147 61 1103 q 173 1222 118 1192 q 319 1253 228 1253 m 196 944 q 204 906 196 925 q 226 870 213 886 q 259 844 240 854 q 299 835 278 835 q 335 843 317 835 q 370 868 354 851 q 396 911 386 885 q 406 974 406 938 l 406 985 q 403 1017 406 999 q 394 1051 401 1035 q 372 1080 388 1068 q 329 1092 357 1092 l 324 1092 q 274 1076 297 1090 q 233 1042 250 1063 q 206 995 215 1021 q 196 944 196 969 m 506 543 q 501 522 506 531 q 484 506 497 513 q 447 494 471 499 q 383 488 424 490 q 343 485 369 486 q 287 482 317 483 q 228 480 257 481 q 181 479 200 479 q 120 483 143 479 q 85 494 97 488 q 68 513 72 501 q 64 539 64 525 q 126 601 64 601 l 456 594 q 506 543 506 594 z "},"":{"ha":856,"x_min":79,"x_max":811,"o":"m 464 557 q 445 476 464 513 q 390 414 426 439 l 188 268 q 163 253 176 260 q 135 247 150 247 q 108 258 118 247 q 91 284 97 268 q 82 317 85 300 q 79 347 79 335 q 99 409 79 383 q 146 454 118 435 l 286 553 l 140 671 q 104 706 121 686 q 88 753 88 725 q 93 786 88 768 q 108 819 99 804 q 132 846 118 835 q 163 857 146 857 q 192 850 178 857 q 217 835 206 843 l 392 701 q 445 638 426 675 q 464 557 464 601 m 811 542 q 792 460 811 497 q 738 399 774 424 l 535 253 q 510 238 524 244 q 482 232 497 232 q 455 243 465 232 q 438 269 444 254 q 429 302 432 285 q 426 332 426 319 q 445 394 426 368 q 493 439 464 419 l 632 538 l 488 656 q 451 691 468 671 q 435 738 435 711 q 440 771 435 753 q 456 804 446 789 q 479 831 465 819 q 510 842 493 842 q 539 835 525 842 q 564 819 553 828 l 739 686 q 792 623 774 660 q 811 542 811 586 z "},"":{"ha":1351,"x_min":128,"x_max":1200,"o":"m 246 1151 q 297 1147 271 1151 q 345 1129 324 1142 q 381 1097 367 1117 q 394 1047 394 1076 l 400 658 q 369 569 401 597 q 278 540 336 540 q 200 621 200 540 l 226 972 q 174 978 193 975 q 144 990 154 981 q 131 1020 133 1000 q 128 1075 128 1040 q 139 1117 128 1101 q 167 1140 150 1132 q 204 1149 183 1147 q 246 1151 225 1151 m 285 -125 q 247 -120 268 -125 q 206 -106 225 -115 q 174 -82 188 -97 q 161 -46 161 -67 q 167 -14 161 -29 q 183 15 174 1 l 835 1043 q 873 1085 850 1069 q 928 1101 896 1101 q 962 1097 943 1101 q 997 1085 981 1093 q 1024 1063 1013 1076 q 1035 1032 1035 1050 q 1029 1005 1035 1018 q 1017 981 1024 992 l 399 -53 q 351 -105 379 -85 q 285 -125 324 -125 m 1029 451 q 1057 518 1032 496 q 1126 540 1082 540 q 1177 521 1163 540 q 1193 468 1192 501 l 1199 29 q 1166 -59 1200 -33 q 1075 -85 1132 -85 q 1022 -65 1039 -85 q 1004 -11 1004 -46 q 1006 40 1004 14 q 1010 90 1008 65 l 879 108 q 751 253 751 128 q 753 331 751 293 q 756 408 754 369 q 790 494 758 467 q 878 521 821 521 q 947 451 947 521 q 946 432 947 439 l 921 224 l 1015 218 l 1029 451 z "},"":{"ha":1372,"x_min":128,"x_max":1228,"o":"m 246 1151 q 297 1147 271 1151 q 345 1129 324 1142 q 381 1097 367 1117 q 394 1047 394 1076 l 400 658 q 369 569 401 597 q 278 540 336 540 q 200 621 200 540 l 226 972 q 174 978 193 975 q 144 990 154 981 q 131 1020 133 1000 q 128 1075 128 1040 q 139 1117 128 1101 q 167 1140 150 1132 q 204 1149 183 1147 q 246 1151 225 1151 m 285 -125 q 247 -120 268 -125 q 206 -106 225 -115 q 174 -82 188 -97 q 161 -46 161 -67 q 167 -14 161 -29 q 183 15 174 1 l 835 1043 q 873 1085 850 1069 q 928 1101 896 1101 q 962 1097 943 1101 q 997 1085 981 1093 q 1024 1063 1013 1076 q 1035 1032 1035 1050 q 1029 1005 1035 1018 q 1017 981 1024 992 l 399 -53 q 351 -105 379 -85 q 285 -125 324 -125 m 963 529 q 1047 518 1007 529 q 1119 484 1088 507 q 1169 425 1150 461 q 1188 340 1188 389 q 1167 253 1188 292 q 1110 185 1147 215 l 914 32 l 1156 67 q 1175 68 1161 68 q 1228 15 1228 68 q 1203 -61 1228 -33 q 1131 -90 1179 -89 q 994 -96 1063 -93 q 858 -99 926 -99 q 819 -92 840 -99 q 779 -72 797 -85 q 749 -42 761 -60 q 738 -3 738 -24 q 744 25 738 13 q 763 49 751 38 l 1022 314 q 1031 331 1031 322 q 1005 363 1031 349 q 951 378 979 378 q 911 364 932 378 q 870 333 890 350 q 832 303 850 317 q 801 289 814 289 q 778 299 788 289 q 763 323 769 308 q 754 353 757 338 q 751 379 751 368 q 761 422 751 404 q 785 453 771 439 q 819 477 800 467 q 857 499 839 488 q 963 529 907 529 z "},"":{"ha":1411,"x_min":61,"x_max":1283,"o":"m 267 1113 q 344 1106 301 1113 q 426 1081 388 1099 q 490 1035 464 1064 q 517 964 517 1007 q 507 912 517 938 q 482 864 497 886 q 449 826 467 842 q 414 806 431 811 q 513 756 475 790 q 551 646 551 721 q 530 578 551 610 q 476 522 508 546 q 405 483 443 497 q 333 469 367 469 q 267 473 308 469 q 187 487 226 476 q 119 517 147 497 q 90 572 90 538 q 94 604 90 588 q 105 635 97 621 q 125 657 113 649 q 156 665 138 665 q 185 659 169 665 q 217 645 201 653 q 249 631 233 638 q 278 625 264 625 q 301 633 289 625 q 322 652 313 640 q 338 677 332 664 q 343 700 343 690 q 332 714 343 711 l 160 740 q 124 785 124 746 q 158 831 124 822 l 294 865 q 325 884 313 869 q 338 915 338 899 q 335 931 338 925 q 302 956 324 954 q 254 956 281 958 q 226 947 242 954 q 193 930 210 939 q 160 914 176 921 q 129 907 143 907 q 99 916 111 907 q 78 940 86 925 q 65 971 69 954 q 61 1001 61 988 q 85 1051 61 1031 q 142 1086 108 1072 q 210 1106 175 1100 q 267 1113 244 1113 m 368 -125 q 330 -120 351 -125 q 290 -106 308 -115 q 258 -82 271 -97 q 244 -46 244 -67 q 251 -14 244 -29 q 267 15 257 1 l 918 1043 q 956 1085 933 1069 q 1011 1101 979 1101 q 1045 1097 1026 1101 q 1080 1085 1064 1093 q 1107 1063 1096 1076 q 1118 1032 1118 1050 q 1113 1005 1118 1018 q 1100 981 1107 992 l 482 -53 q 435 -105 463 -85 q 368 -125 407 -125 m 1113 451 q 1140 518 1115 496 q 1210 540 1165 540 q 1260 521 1246 540 q 1276 468 1275 501 l 1282 29 q 1249 -59 1283 -33 q 1158 -85 1215 -85 q 1105 -65 1122 -85 q 1088 -11 1088 -46 q 1090 40 1088 14 q 1093 90 1092 65 l 963 108 q 835 253 835 128 q 836 331 835 293 q 839 408 838 369 q 873 494 842 467 q 961 521 904 521 q 1031 451 1031 521 q 1029 432 1031 439 l 1004 224 l 1099 218 l 1113 451 z "},"":{"ha":761,"x_min":49,"x_max":743,"o":"m 436 815 q 492 808 464 815 q 544 785 521 800 q 581 748 567 771 q 596 693 596 725 q 590 640 596 667 q 569 593 583 614 q 534 559 556 572 q 483 546 513 546 q 427 553 456 546 q 376 576 399 561 q 338 615 353 592 q 324 669 324 638 q 331 722 324 696 q 351 768 338 747 q 385 802 364 789 q 436 815 407 815 m 381 -307 q 225 -287 289 -307 q 122 -226 161 -267 q 66 -122 83 -185 q 49 26 49 -60 q 78 131 49 83 q 148 215 107 178 q 233 282 189 253 q 307 333 276 311 q 330 360 318 342 q 356 397 342 378 q 385 430 369 415 q 419 444 401 444 l 463 444 q 543 422 514 444 q 572 344 572 399 q 550 249 572 288 q 494 186 528 211 q 420 143 460 161 q 347 108 381 125 q 290 68 313 90 q 268 13 268 46 q 304 -74 268 -43 q 397 -106 340 -106 q 484 -83 446 -106 q 553 -31 522 -60 q 610 20 583 -3 q 661 43 636 43 q 699 25 683 43 q 724 -18 714 7 q 738 -69 733 -43 q 743 -112 743 -96 q 710 -193 743 -157 q 624 -254 676 -229 q 508 -293 572 -279 q 381 -307 443 -307 z "},"":{"ha":1036,"x_min":11,"x_max":1008,"o":"m 611 1060 q 550 1074 579 1060 q 494 1108 521 1088 q 441 1155 467 1129 q 389 1203 415 1181 q 371 1222 379 1211 q 363 1244 363 1233 q 373 1263 363 1256 q 398 1275 383 1271 q 428 1281 413 1279 q 453 1283 443 1283 q 512 1273 490 1283 q 547 1247 533 1263 q 572 1211 561 1231 q 597 1174 582 1192 q 627 1144 610 1158 q 658 1114 644 1129 q 669 1099 664 1107 q 674 1081 674 1090 q 666 1069 674 1074 q 649 1063 658 1065 q 628 1060 639 1061 q 611 1060 618 1060 m 194 7 q 132 19 164 7 q 73 53 100 32 q 28 106 46 75 q 11 172 11 136 q 17 215 11 194 q 32 257 24 236 l 313 949 q 365 1015 332 994 q 446 1036 397 1036 q 626 1015 539 1036 q 740 914 710 994 l 994 231 q 1008 156 1008 192 q 995 89 1008 117 q 959 44 982 61 q 905 19 936 26 q 836 11 874 11 q 743 36 776 11 q 692 97 710 61 q 667 174 674 133 q 653 249 660 215 l 378 293 l 338 142 q 317 94 331 118 q 286 50 304 69 q 245 19 268 31 q 194 7 222 7 m 607 447 l 511 828 l 422 457 l 607 447 z "},"":{"ha":1036,"x_min":11,"x_max":1008,"o":"m 425 1060 q 408 1060 419 1060 q 388 1063 397 1061 q 370 1069 378 1065 q 363 1081 363 1074 q 367 1099 363 1090 q 378 1114 372 1107 q 409 1144 392 1129 q 439 1174 426 1158 q 465 1211 454 1192 q 490 1247 475 1231 q 526 1273 504 1263 q 583 1283 547 1283 q 608 1281 593 1283 q 638 1275 624 1279 q 663 1263 653 1271 q 674 1244 674 1256 q 665 1222 674 1233 q 647 1203 657 1211 q 596 1155 622 1181 q 542 1108 569 1129 q 486 1074 515 1088 q 425 1060 457 1060 m 194 7 q 132 19 164 7 q 73 53 100 32 q 28 106 46 75 q 11 172 11 136 q 17 215 11 194 q 32 257 24 236 l 313 949 q 365 1015 332 994 q 446 1036 397 1036 q 626 1015 539 1036 q 740 914 710 994 l 994 231 q 1008 156 1008 192 q 995 89 1008 117 q 959 44 982 61 q 905 19 936 26 q 836 11 874 11 q 743 36 776 11 q 692 97 710 61 q 667 174 674 133 q 653 249 660 215 l 378 293 l 338 142 q 317 94 331 118 q 286 50 304 69 q 245 19 268 31 q 194 7 222 7 m 607 447 l 511 828 l 422 457 l 607 447 z "},"":{"ha":1036,"x_min":11,"x_max":1008,"o":"m 521 1296 q 591 1273 557 1296 q 651 1222 625 1250 q 694 1169 676 1194 q 714 1140 711 1144 q 726 1120 719 1133 q 733 1097 733 1107 q 713 1056 733 1069 q 654 1042 692 1042 q 615 1056 632 1042 q 584 1089 599 1069 q 553 1128 569 1108 q 515 1161 538 1149 q 479 1122 492 1143 q 456 1083 467 1101 q 428 1051 444 1064 q 378 1039 411 1039 q 324 1058 344 1039 q 303 1108 303 1076 q 311 1126 303 1118 q 324 1142 319 1135 q 353 1186 335 1160 q 397 1237 372 1213 q 453 1278 422 1261 q 521 1296 485 1296 m 194 7 q 132 19 164 7 q 73 53 100 32 q 28 106 46 75 q 11 172 11 136 q 17 215 11 194 q 32 257 24 236 l 313 949 q 365 1015 332 994 q 446 1036 397 1036 q 626 1015 539 1036 q 740 914 710 994 l 994 231 q 1008 156 1008 192 q 995 89 1008 117 q 959 44 982 61 q 905 19 936 26 q 836 11 874 11 q 743 36 776 11 q 692 97 710 61 q 667 174 674 133 q 653 249 660 215 l 378 293 l 338 142 q 317 94 331 118 q 286 50 304 69 q 245 19 268 31 q 194 7 222 7 m 607 447 l 511 828 l 422 457 l 607 447 z "},"":{"ha":1036,"x_min":11,"x_max":1008,"o":"m 424 1161 q 420 1126 422 1146 q 414 1090 418 1107 q 401 1063 410 1074 q 378 1051 393 1051 q 350 1054 367 1051 q 317 1065 333 1057 q 290 1088 301 1074 q 279 1125 279 1103 q 285 1166 279 1147 q 299 1204 292 1185 q 352 1289 318 1265 q 432 1313 386 1313 q 481 1303 458 1313 q 526 1280 504 1294 q 569 1247 547 1265 q 613 1211 590 1229 q 618 1243 615 1226 q 626 1274 621 1260 q 640 1299 632 1289 q 661 1308 647 1308 q 690 1305 674 1308 q 721 1293 706 1301 q 747 1270 736 1285 q 757 1232 757 1256 q 749 1183 757 1208 q 735 1135 742 1157 q 694 1067 719 1085 q 633 1049 669 1049 q 577 1060 604 1049 q 524 1088 550 1071 q 474 1124 499 1104 q 424 1161 449 1144 m 194 7 q 132 19 164 7 q 73 53 100 32 q 28 106 46 75 q 11 172 11 136 q 17 215 11 194 q 32 257 24 236 l 313 949 q 365 1015 332 994 q 446 1036 397 1036 q 626 1015 539 1036 q 740 914 710 994 l 994 231 q 1008 156 1008 192 q 995 89 1008 117 q 959 44 982 61 q 905 19 936 26 q 836 11 874 11 q 743 36 776 11 q 692 97 710 61 q 667 174 674 133 q 653 249 660 215 l 378 293 l 338 142 q 317 94 331 118 q 286 50 304 69 q 245 19 268 31 q 194 7 222 7 m 607 447 l 511 828 l 422 457 l 607 447 z "},"":{"ha":1036,"x_min":11,"x_max":1008,"o":"m 504 1183 q 476 1118 504 1139 q 411 1097 447 1097 q 345 1121 369 1097 q 321 1182 321 1144 q 350 1247 321 1226 q 415 1268 379 1268 q 481 1244 457 1268 q 504 1183 504 1221 m 715 1182 q 688 1117 715 1138 q 624 1097 660 1097 q 556 1120 581 1097 q 532 1181 532 1143 q 561 1246 532 1225 q 626 1267 590 1267 q 692 1243 668 1267 q 715 1182 715 1219 m 194 7 q 132 19 164 7 q 73 53 100 32 q 28 106 46 75 q 11 172 11 136 q 17 215 11 194 q 32 257 24 236 l 313 949 q 365 1015 332 994 q 446 1036 397 1036 q 626 1015 539 1036 q 740 914 710 994 l 994 231 q 1008 156 1008 192 q 995 89 1008 117 q 959 44 982 61 q 905 19 936 26 q 836 11 874 11 q 743 36 776 11 q 692 97 710 61 q 667 174 674 133 q 653 249 660 215 l 378 293 l 338 142 q 317 94 331 118 q 286 50 304 69 q 245 19 268 31 q 194 7 222 7 m 607 447 l 511 828 l 422 457 l 607 447 z "},"":{"ha":1036,"x_min":11,"x_max":1008,"o":"m 524 1318 q 620 1283 585 1318 q 656 1182 656 1247 q 644 1129 656 1153 q 613 1088 632 1106 q 568 1060 593 1069 q 515 1050 543 1050 q 417 1087 453 1050 q 381 1186 381 1124 q 392 1238 381 1214 q 423 1280 403 1263 q 469 1308 443 1297 q 524 1318 494 1318 m 485 1183 q 493 1160 485 1169 q 517 1150 501 1150 q 557 1189 557 1150 q 549 1216 557 1204 q 525 1228 542 1228 q 494 1215 504 1228 q 485 1183 485 1203 m 194 7 q 132 19 164 7 q 73 53 100 32 q 28 106 46 75 q 11 172 11 136 q 17 215 11 194 q 32 257 24 236 l 313 949 q 365 1015 332 994 q 446 1036 397 1036 q 626 1015 539 1036 q 740 914 710 994 l 994 231 q 1008 156 1008 192 q 995 89 1008 117 q 959 44 982 61 q 905 19 936 26 q 836 11 874 11 q 743 36 776 11 q 692 97 710 61 q 667 174 674 133 q 653 249 660 215 l 378 293 l 338 142 q 317 94 331 118 q 286 50 304 69 q 245 19 268 31 q 194 7 222 7 m 607 447 l 511 828 l 422 457 l 607 447 z "},"":{"ha":1439,"x_min":11,"x_max":1397,"o":"m 194 7 q 132 19 164 7 q 73 53 100 32 q 28 106 46 75 q 11 172 11 136 q 17 215 11 194 q 32 257 24 236 l 313 949 q 365 1015 332 994 q 446 1036 397 1036 q 522 1034 481 1036 q 603 1022 564 1032 q 677 993 643 1013 q 729 939 711 974 q 911 1035 775 1033 l 1283 1040 q 1361 1022 1331 1040 q 1392 950 1392 1003 q 1385 893 1392 919 q 1363 847 1378 867 q 1324 816 1347 828 q 1267 804 1300 804 q 1129 808 1197 804 q 992 813 1061 813 l 999 611 q 1075 624 1035 618 q 1153 631 1115 631 q 1227 594 1207 631 q 1247 510 1247 558 q 1220 447 1247 465 q 1153 426 1193 429 q 1078 423 1115 424 q 1004 419 1042 422 l 1013 197 q 1144 229 1079 211 q 1275 247 1208 247 q 1331 234 1307 247 q 1369 199 1354 221 q 1390 151 1383 178 q 1397 94 1397 124 q 1363 17 1397 39 q 1281 -7 1329 -4 q 1086 -19 1183 -14 q 892 -24 989 -24 q 721 54 769 -24 q 691 98 703 74 q 672 149 679 122 q 661 201 665 175 q 653 249 657 226 l 378 293 l 338 142 q 317 94 331 118 q 286 50 304 69 q 245 19 268 31 q 194 7 222 7 m 607 447 l 511 828 l 422 457 l 607 447 z "},"":{"ha":863,"x_min":29,"x_max":847,"o":"m 842 907 q 834 853 842 881 q 812 805 826 826 q 775 770 797 783 q 722 757 753 757 q 681 763 701 757 q 639 774 660 768 q 598 785 618 781 q 557 790 578 790 q 456 765 499 790 q 384 701 413 739 q 342 617 356 663 q 328 529 328 571 q 350 411 328 463 q 406 326 372 360 q 481 274 440 292 q 556 257 521 257 q 599 270 575 257 q 647 299 622 283 q 694 327 671 314 q 738 340 718 340 q 785 324 764 340 q 819 284 806 308 q 840 233 833 260 q 847 183 847 206 q 822 117 847 153 q 751 49 797 81 q 637 -6 704 17 q 485 -28 569 -28 q 489 -43 482 -37 q 524 -63 508 -56 q 551 -80 540 -71 q 568 -104 563 -89 q 574 -147 574 -119 q 557 -190 574 -169 q 517 -226 540 -210 q 467 -251 493 -242 q 421 -261 440 -261 q 322 -228 356 -261 q 289 -154 289 -194 q 305 -118 289 -136 q 343 -100 321 -100 q 360 -110 353 -100 q 373 -133 367 -121 q 386 -156 379 -146 q 404 -167 393 -167 q 436 -135 436 -167 q 428 -108 436 -118 q 409 -89 419 -97 q 390 -73 399 -81 q 382 -54 382 -65 q 386 -19 382 -39 q 213 47 282 -3 q 103 166 143 96 q 46 321 63 236 q 29 493 29 406 q 67 739 29 636 q 169 908 104 842 q 322 1005 235 974 q 508 1036 410 1036 q 635 1032 575 1036 q 742 1015 696 1028 q 815 976 788 1001 q 842 907 842 950 z "},"":{"ha":778,"x_min":31,"x_max":736,"o":"m 482 1060 q 421 1074 450 1060 q 365 1108 392 1088 q 312 1155 338 1129 q 260 1203 286 1181 q 242 1222 250 1211 q 233 1244 233 1233 q 244 1263 233 1256 q 269 1275 254 1271 q 299 1281 283 1279 q 324 1283 314 1283 q 383 1273 361 1283 q 418 1247 404 1263 q 442 1211 432 1231 q 468 1174 453 1192 q 498 1144 481 1158 q 529 1114 515 1129 q 540 1099 535 1107 q 544 1081 544 1090 q 537 1069 544 1074 q 519 1063 529 1065 q 499 1060 510 1061 q 482 1060 489 1060 m 736 94 q 702 17 736 39 q 619 -7 668 -4 q 425 -19 522 -14 q 231 -24 328 -24 q 79 28 128 -24 q 31 181 31 81 q 35 506 31 344 q 44 831 39 667 q 97 982 47 932 q 250 1035 147 1032 l 622 1040 q 700 1022 669 1040 q 731 950 731 1003 q 724 893 731 919 q 701 847 717 867 q 663 816 686 828 q 606 804 639 804 q 468 808 536 804 q 331 813 400 813 l 338 611 q 414 624 374 618 q 492 631 454 631 q 566 594 546 631 q 586 510 586 558 q 559 447 586 465 q 492 426 532 429 q 417 423 454 424 q 343 419 381 422 l 351 197 q 483 229 418 211 q 614 247 547 247 q 669 234 646 247 q 708 199 693 221 q 729 151 722 178 q 736 94 736 124 z "},"":{"ha":778,"x_min":31,"x_max":736,"o":"m 296 1060 q 279 1060 290 1060 q 258 1063 268 1061 q 241 1069 249 1065 q 233 1081 233 1074 q 238 1099 233 1090 q 249 1114 243 1107 q 280 1144 263 1129 q 310 1174 297 1158 q 335 1211 325 1192 q 360 1247 346 1231 q 397 1273 375 1263 q 454 1283 418 1283 q 479 1281 464 1283 q 509 1275 494 1279 q 534 1263 524 1271 q 544 1244 544 1256 q 536 1222 544 1233 q 518 1203 528 1211 q 467 1155 493 1181 q 413 1108 440 1129 q 357 1074 386 1088 q 296 1060 328 1060 m 736 94 q 702 17 736 39 q 619 -7 668 -4 q 425 -19 522 -14 q 231 -24 328 -24 q 79 28 128 -24 q 31 181 31 81 q 35 506 31 344 q 44 831 39 667 q 97 982 47 932 q 250 1035 147 1032 l 622 1040 q 700 1022 669 1040 q 731 950 731 1003 q 724 893 731 919 q 701 847 717 867 q 663 816 686 828 q 606 804 639 804 q 468 808 536 804 q 331 813 400 813 l 338 611 q 414 624 374 618 q 492 631 454 631 q 566 594 546 631 q 586 510 586 558 q 559 447 586 465 q 492 426 532 429 q 417 423 454 424 q 343 419 381 422 l 351 197 q 483 229 418 211 q 614 247 547 247 q 669 234 646 247 q 708 199 693 221 q 729 151 722 178 q 736 94 736 124 z "},"":{"ha":778,"x_min":31,"x_max":736,"o":"m 392 1296 q 462 1273 428 1296 q 522 1222 496 1250 q 565 1169 547 1194 q 585 1140 582 1144 q 597 1120 590 1133 q 604 1097 604 1107 q 583 1056 604 1069 q 525 1042 563 1042 q 486 1056 503 1042 q 455 1089 469 1069 q 424 1128 440 1108 q 386 1161 408 1149 q 350 1122 363 1143 q 326 1083 338 1101 q 299 1051 315 1064 q 249 1039 282 1039 q 194 1058 215 1039 q 174 1108 174 1076 q 182 1126 174 1118 q 194 1142 190 1135 q 224 1186 206 1160 q 268 1237 243 1213 q 324 1278 293 1261 q 392 1296 356 1296 m 736 94 q 702 17 736 39 q 619 -7 668 -4 q 425 -19 522 -14 q 231 -24 328 -24 q 79 28 128 -24 q 31 181 31 81 q 35 506 31 344 q 44 831 39 667 q 97 982 47 932 q 250 1035 147 1032 l 622 1040 q 700 1022 669 1040 q 731 950 731 1003 q 724 893 731 919 q 701 847 717 867 q 663 816 686 828 q 606 804 639 804 q 468 808 536 804 q 331 813 400 813 l 338 611 q 414 624 374 618 q 492 631 454 631 q 566 594 546 631 q 586 510 586 558 q 559 447 586 465 q 492 426 532 429 q 417 423 454 424 q 343 419 381 422 l 351 197 q 483 229 418 211 q 614 247 547 247 q 669 234 646 247 q 708 199 693 221 q 729 151 722 178 q 736 94 736 124 z "},"":{"ha":778,"x_min":31,"x_max":736,"o":"m 375 1183 q 347 1118 375 1139 q 282 1097 318 1097 q 216 1121 240 1097 q 192 1182 192 1144 q 221 1247 192 1226 q 286 1268 250 1268 q 351 1244 328 1268 q 375 1183 375 1221 m 586 1182 q 558 1117 586 1138 q 494 1097 531 1097 q 427 1120 451 1097 q 403 1181 403 1143 q 432 1246 403 1225 q 497 1267 461 1267 q 563 1243 539 1267 q 586 1182 586 1219 m 736 94 q 702 17 736 39 q 619 -7 668 -4 q 425 -19 522 -14 q 231 -24 328 -24 q 79 28 128 -24 q 31 181 31 81 q 35 506 31 344 q 44 831 39 667 q 97 982 47 932 q 250 1035 147 1032 l 622 1040 q 700 1022 669 1040 q 731 950 731 1003 q 724 893 731 919 q 701 847 717 867 q 663 816 686 828 q 606 804 639 804 q 468 808 536 804 q 331 813 400 813 l 338 611 q 414 624 374 618 q 492 631 454 631 q 566 594 546 631 q 586 510 586 558 q 559 447 586 465 q 492 426 532 429 q 417 423 454 424 q 343 419 381 422 l 351 197 q 483 229 418 211 q 614 247 547 247 q 669 234 646 247 q 708 199 693 221 q 729 151 722 178 q 736 94 736 124 z "},"":{"ha":403,"x_min":40,"x_max":365,"o":"m 294 1060 q 233 1074 263 1060 q 177 1108 204 1088 q 124 1155 150 1129 q 72 1203 99 1181 q 54 1222 63 1211 q 46 1244 46 1233 q 56 1263 46 1256 q 81 1275 67 1271 q 111 1281 96 1279 q 136 1283 126 1283 q 195 1273 174 1283 q 231 1247 217 1263 q 255 1211 244 1231 q 281 1174 265 1192 q 310 1144 293 1158 q 342 1114 328 1129 q 352 1099 347 1107 q 357 1081 357 1090 q 349 1069 357 1074 q 332 1063 342 1065 q 312 1060 322 1061 q 294 1060 301 1060 m 153 1007 q 285 961 235 1007 q 339 832 336 915 l 363 176 q 350 96 365 131 q 307 38 335 61 q 242 3 279 15 q 161 -8 204 -8 q 67 30 94 -8 q 40 129 40 68 l 40 885 q 69 970 40 933 q 153 1007 99 1007 z "},"":{"ha":403,"x_min":40,"x_max":365,"o":"m 108 1060 q 92 1060 103 1060 q 71 1063 81 1061 q 53 1069 61 1065 q 46 1081 46 1074 q 51 1099 46 1090 q 61 1114 56 1107 q 92 1144 75 1129 q 122 1174 110 1158 q 148 1211 138 1192 q 173 1247 158 1231 q 209 1273 188 1263 q 267 1283 231 1283 q 292 1281 276 1283 q 322 1275 307 1279 q 347 1263 336 1271 q 357 1244 357 1256 q 349 1222 357 1233 q 331 1203 340 1211 q 279 1155 306 1181 q 226 1108 253 1129 q 169 1074 199 1088 q 108 1060 140 1060 m 153 1007 q 285 961 235 1007 q 339 832 336 915 l 363 176 q 350 96 365 131 q 307 38 335 61 q 242 3 279 15 q 161 -8 204 -8 q 67 30 94 -8 q 40 129 40 68 l 40 885 q 69 970 40 933 q 153 1007 99 1007 z "},"":{"ha":403,"x_min":-14,"x_max":417,"o":"m 204 1296 q 274 1273 240 1296 q 334 1222 308 1250 q 377 1169 360 1194 q 397 1140 394 1144 q 410 1120 403 1133 q 417 1097 417 1107 q 396 1056 417 1069 q 338 1042 375 1042 q 299 1056 315 1042 q 267 1089 282 1069 q 237 1128 253 1108 q 199 1161 221 1149 q 163 1122 175 1143 q 139 1083 150 1101 q 111 1051 128 1064 q 61 1039 94 1039 q 7 1058 28 1039 q -14 1108 -14 1076 q -7 1124 -14 1117 q 4 1139 0 1132 l 7 1142 q 37 1186 18 1160 q 81 1237 56 1213 q 137 1278 106 1261 q 204 1296 168 1296 m 153 1007 q 285 961 235 1007 q 339 832 336 915 l 363 176 q 350 96 365 131 q 307 38 335 61 q 242 3 279 15 q 161 -8 204 -8 q 67 30 94 -8 q 40 129 40 68 l 40 885 q 69 970 40 933 q 153 1007 99 1007 z "},"":{"ha":403,"x_min":4,"x_max":399,"o":"m 188 1183 q 159 1118 188 1139 q 94 1097 131 1097 q 28 1121 53 1097 q 4 1182 4 1144 q 33 1247 4 1226 q 99 1268 63 1268 q 164 1244 140 1268 q 188 1183 188 1221 m 399 1182 q 371 1117 399 1138 q 307 1097 343 1097 q 240 1120 264 1097 q 215 1181 215 1143 q 244 1246 215 1225 q 310 1267 274 1267 q 375 1243 351 1267 q 399 1182 399 1219 m 153 1007 q 285 961 235 1007 q 339 832 336 915 l 363 176 q 350 96 365 131 q 307 38 335 61 q 242 3 279 15 q 161 -8 204 -8 q 67 30 94 -8 q 40 129 40 68 l 40 885 q 69 970 40 933 q 153 1007 99 1007 z "},"":{"ha":997,"x_min":-17,"x_max":965,"o":"m 53 228 q 53 368 53 299 q 54 508 53 438 q -17 607 -17 521 q 58 706 -17 693 q 63 839 61 771 q 126 990 68 939 q 286 1042 185 1042 l 457 1042 q 834 899 703 1042 q 965 492 965 757 q 951 391 965 446 q 909 281 938 336 q 838 176 881 226 q 740 86 796 125 q 613 24 683 47 q 460 0 543 0 l 253 0 q 164 21 201 0 q 101 75 126 42 q 65 149 76 108 q 53 228 53 189 m 344 700 q 410 675 389 697 q 432 607 432 653 q 353 514 432 522 l 368 236 l 515 238 q 582 258 553 238 q 631 313 611 278 q 660 397 650 349 q 671 504 671 446 q 671 524 671 515 q 669 544 671 533 q 615 744 663 678 q 489 807 568 810 l 339 803 l 344 700 z "},"":{"ha":974,"x_min":31,"x_max":919,"o":"m 393 1161 q 390 1126 392 1146 q 383 1090 388 1107 q 371 1063 379 1074 q 347 1051 363 1051 q 319 1054 336 1051 q 287 1065 303 1057 q 260 1088 271 1074 q 249 1125 249 1103 q 254 1166 249 1147 q 267 1204 260 1185 q 322 1289 288 1265 q 400 1313 356 1313 q 449 1303 426 1313 q 494 1280 472 1294 q 538 1247 517 1265 q 582 1211 560 1229 q 588 1243 585 1226 q 595 1274 590 1260 q 608 1299 600 1289 q 629 1308 615 1308 q 658 1305 642 1308 q 689 1293 674 1301 q 715 1270 704 1285 q 725 1232 725 1256 q 717 1183 725 1208 q 703 1135 710 1157 q 663 1067 688 1085 q 601 1049 638 1049 q 547 1060 574 1049 q 494 1088 519 1071 q 443 1124 468 1104 q 393 1161 418 1144 m 219 1021 q 305 1015 265 1021 q 376 992 344 1008 q 430 945 407 975 q 467 867 453 915 l 642 243 l 603 879 q 644 988 599 947 q 771 1029 690 1029 q 864 993 836 1029 q 894 896 892 957 l 918 207 q 901 112 919 151 q 849 47 882 72 q 770 11 815 22 q 675 0 725 0 q 556 40 600 0 q 490 147 513 79 l 335 647 l 347 332 q 352 253 350 286 q 354 175 354 221 q 344 85 354 121 q 310 29 333 50 q 248 0 286 8 q 153 -8 210 -8 q 59 30 88 -8 q 33 129 31 68 l 49 844 q 91 975 50 929 q 219 1021 132 1021 z "},"":{"ha":1199,"x_min":36,"x_max":1169,"o":"m 569 1086 q 590 1085 581 1086 q 610 1085 600 1085 q 573 1111 600 1090 q 517 1158 546 1132 q 465 1208 488 1183 q 443 1244 443 1232 q 453 1263 443 1256 q 478 1275 464 1271 q 509 1281 493 1279 q 535 1283 525 1283 q 592 1273 571 1283 q 628 1247 614 1263 q 653 1211 642 1231 q 678 1174 664 1192 q 709 1144 692 1158 q 739 1114 726 1129 q 751 1099 746 1107 q 756 1081 756 1090 q 749 1069 756 1074 q 1059 915 949 1033 q 1169 613 1169 797 q 1030 156 1169 311 q 622 1 890 1 q 377 32 486 1 q 192 123 268 63 q 76 274 117 183 q 36 488 36 365 q 78 722 36 613 q 191 912 119 831 q 360 1040 263 993 q 569 1086 457 1086 m 383 513 q 403 417 383 457 q 455 352 424 378 q 524 315 486 326 q 599 303 563 303 q 708 324 661 303 q 786 380 756 344 q 832 464 817 415 q 847 567 847 513 q 832 654 847 613 q 789 728 817 696 q 720 778 761 760 q 626 797 679 797 q 508 768 554 797 q 433 695 461 739 q 394 602 406 651 q 383 513 383 553 z "},"":{"ha":1199,"x_min":36,"x_max":1169,"o":"m 449 1071 q 443 1081 443 1076 q 448 1099 443 1090 q 460 1114 453 1107 q 490 1144 472 1129 q 521 1174 507 1158 q 547 1211 536 1192 q 571 1247 557 1231 q 606 1273 585 1263 q 665 1283 628 1283 q 690 1281 675 1283 q 720 1275 706 1279 q 745 1263 735 1271 q 756 1244 756 1256 q 733 1208 756 1232 q 682 1158 711 1183 q 626 1113 653 1133 q 589 1085 599 1092 q 833 1050 725 1083 q 1015 956 940 1017 q 1130 808 1090 894 q 1169 613 1169 721 q 1030 156 1169 311 q 622 1 890 1 q 377 32 486 1 q 192 123 268 63 q 76 274 117 183 q 36 488 36 365 q 67 692 36 596 q 153 865 97 788 q 284 995 208 942 q 449 1071 360 1049 m 383 513 q 403 417 383 457 q 455 352 424 378 q 524 315 486 326 q 599 303 563 303 q 708 324 661 303 q 786 380 756 344 q 832 464 817 415 q 847 567 847 513 q 832 654 847 613 q 789 728 817 696 q 720 778 761 760 q 626 797 679 797 q 508 768 554 797 q 433 695 461 739 q 394 602 406 651 q 383 513 383 553 z "},"":{"ha":1199,"x_min":36,"x_max":1169,"o":"m 601 1296 q 672 1273 639 1296 q 732 1222 706 1250 q 776 1169 758 1194 q 796 1140 793 1144 q 807 1120 800 1133 q 814 1097 814 1107 q 799 1060 814 1072 q 1073 900 976 1015 q 1169 613 1169 785 q 1030 156 1169 311 q 622 1 890 1 q 377 32 486 1 q 192 123 268 63 q 76 274 117 183 q 36 488 36 365 q 63 680 36 589 q 140 845 90 771 q 257 974 189 919 q 406 1057 325 1028 q 385 1108 385 1076 q 392 1126 385 1118 q 404 1142 400 1135 q 434 1186 415 1160 q 478 1237 453 1213 q 534 1278 503 1261 q 601 1296 565 1296 m 569 1086 q 622 1085 597 1086 q 672 1081 647 1083 q 638 1124 656 1101 q 597 1161 621 1147 q 562 1124 574 1144 q 539 1085 550 1103 q 553 1085 546 1085 q 569 1086 561 1086 m 383 513 q 403 417 383 457 q 455 352 424 378 q 524 315 486 326 q 599 303 563 303 q 708 324 661 303 q 786 380 756 344 q 832 464 817 415 q 847 567 847 513 q 832 654 847 613 q 789 728 817 696 q 720 778 761 760 q 626 797 679 797 q 508 768 554 797 q 433 695 461 739 q 394 602 406 651 q 383 513 383 553 z "},"":{"ha":1199,"x_min":36,"x_max":1169,"o":"m 413 1060 q 377 1082 393 1067 q 361 1125 361 1097 q 367 1166 361 1147 q 379 1204 372 1185 q 434 1289 400 1265 q 513 1313 468 1313 q 562 1303 539 1313 q 607 1280 585 1294 q 651 1247 629 1265 q 694 1211 672 1229 q 700 1243 697 1226 q 708 1274 703 1260 q 720 1299 713 1289 q 742 1308 728 1308 q 770 1305 754 1308 q 801 1293 786 1301 q 827 1270 817 1285 q 838 1232 838 1256 q 833 1192 838 1217 q 819 1143 828 1168 q 798 1097 810 1118 q 774 1065 786 1075 q 1066 907 963 1024 q 1169 613 1169 790 q 1030 156 1169 311 q 622 1 890 1 q 377 32 486 1 q 192 123 268 63 q 76 274 117 183 q 36 488 36 365 q 64 682 36 590 q 142 849 92 774 q 261 978 192 924 q 413 1060 331 1032 m 569 1086 q 590 1085 581 1086 q 610 1085 599 1085 q 556 1123 582 1103 q 506 1161 531 1143 q 501 1119 503 1142 q 492 1079 499 1097 q 531 1084 511 1082 q 569 1086 550 1086 m 383 513 q 403 417 383 457 q 455 352 424 378 q 524 315 486 326 q 599 303 563 303 q 708 324 661 303 q 786 380 756 344 q 832 464 817 415 q 847 567 847 513 q 832 654 847 613 q 789 728 817 696 q 720 778 761 760 q 626 797 679 797 q 508 768 554 797 q 433 695 461 739 q 394 602 406 651 q 383 513 383 553 z "},"":{"ha":1199,"x_min":36,"x_max":1169,"o":"m 585 1183 q 557 1118 585 1139 q 493 1097 529 1097 q 426 1121 451 1097 q 401 1182 401 1144 q 431 1247 401 1226 q 496 1268 460 1268 q 562 1244 539 1268 q 585 1183 585 1221 m 797 1182 q 769 1117 797 1138 q 704 1097 740 1097 q 638 1120 663 1097 q 614 1181 614 1143 q 643 1246 614 1225 q 708 1267 672 1267 q 774 1243 750 1267 q 797 1182 797 1219 m 569 1086 q 821 1053 710 1086 q 1010 960 932 1021 q 1128 811 1088 899 q 1169 613 1169 724 q 1030 156 1169 311 q 622 1 890 1 q 377 32 486 1 q 192 123 268 63 q 76 274 117 183 q 36 488 36 365 q 78 722 36 613 q 191 912 119 831 q 360 1040 263 993 q 569 1086 457 1086 m 383 513 q 403 417 383 457 q 455 352 424 378 q 524 315 486 326 q 599 303 563 303 q 708 324 661 303 q 786 380 756 344 q 832 464 817 415 q 847 567 847 513 q 832 654 847 613 q 789 728 817 696 q 720 778 761 760 q 626 797 679 797 q 508 768 554 797 q 433 695 461 739 q 394 602 406 651 q 383 513 383 553 z "},"":{"ha":667,"x_min":49,"x_max":613,"o":"m 556 360 q 585 286 585 317 q 566 247 585 260 q 515 226 547 233 q 449 240 476 218 q 401 289 422 261 l 333 386 l 236 246 q 207 216 224 228 q 167 204 190 204 q 139 209 154 204 q 110 222 124 214 q 87 243 96 231 q 78 269 78 256 l 78 275 q 82 307 78 288 q 107 358 86 326 l 221 528 l 67 763 q 54 783 60 772 q 49 806 49 794 q 57 833 49 821 q 78 856 65 846 q 105 872 90 867 q 131 878 119 878 q 180 857 157 878 q 218 817 203 836 l 331 686 l 414 794 q 463 845 435 822 q 525 868 490 868 q 551 864 536 868 q 581 852 567 860 q 603 833 594 844 q 613 806 613 821 q 606 781 613 793 q 593 758 600 769 l 443 529 l 556 360 z "},"":{"ha":1199,"x_min":36,"x_max":1169,"o":"m 569 1086 q 644 1083 608 1086 q 715 1075 681 1081 q 775 1101 738 1101 q 844 1083 810 1101 q 888 1031 879 1065 q 1096 867 1022 974 q 1169 613 1169 761 q 1030 156 1169 311 q 622 1 890 1 q 583 2 603 1 q 543 4 563 3 l 525 -47 q 492 -103 514 -81 q 435 -125 471 -125 q 392 -119 414 -125 q 351 -101 369 -112 q 322 -71 333 -89 q 310 -29 310 -53 q 319 21 310 -6 l 329 47 q 113 208 189 99 q 36 488 36 318 q 78 722 36 613 q 191 912 119 831 q 360 1040 263 993 q 569 1086 457 1086 m 383 513 q 400 424 383 461 q 444 363 417 388 l 603 796 q 497 761 539 792 q 429 688 454 731 q 394 599 404 646 q 383 513 383 551 m 650 307 q 737 339 700 315 q 799 397 774 363 q 835 474 824 431 q 847 567 847 518 q 834 650 847 610 q 794 722 821 690 l 650 307 z "},"":{"ha":950,"x_min":29,"x_max":924,"o":"m 568 1060 q 507 1074 536 1060 q 451 1108 478 1088 q 398 1155 424 1129 q 346 1203 372 1181 q 328 1222 336 1211 q 319 1244 319 1233 q 330 1263 319 1256 q 355 1275 340 1271 q 385 1281 369 1279 q 410 1283 400 1283 q 469 1273 447 1283 q 504 1247 490 1263 q 528 1211 518 1231 q 554 1174 539 1192 q 584 1144 567 1158 q 615 1114 601 1129 q 626 1099 621 1107 q 631 1081 631 1090 q 623 1069 631 1074 q 606 1063 615 1065 q 585 1060 596 1061 q 568 1060 575 1060 m 619 490 q 615 681 619 586 q 611 872 611 776 q 786 1032 611 1032 q 887 998 850 1032 q 919 897 924 964 q 907 613 911 754 q 893 329 903 471 q 861 194 889 256 q 788 90 833 133 q 683 24 743 47 q 554 0 624 0 l 432 0 q 270 31 342 0 q 149 114 199 63 q 71 230 99 165 q 40 361 43 294 q 37 487 39 431 q 33 597 35 543 q 30 708 31 651 q 29 833 29 765 q 73 972 29 922 q 213 1022 117 1022 q 313 982 279 1022 q 347 882 347 942 l 346 415 q 356 362 346 388 q 385 317 367 336 q 428 286 403 297 q 479 275 453 275 q 548 297 521 275 q 591 350 575 318 q 613 419 607 382 q 619 490 619 457 z "},"":{"ha":950,"x_min":29,"x_max":924,"o":"m 382 1060 q 365 1060 376 1060 q 344 1063 354 1061 q 327 1069 335 1065 q 319 1081 319 1074 q 324 1099 319 1090 q 335 1114 329 1107 q 366 1144 349 1129 q 396 1174 383 1158 q 422 1211 411 1192 q 447 1247 432 1231 q 483 1273 461 1263 q 540 1283 504 1283 q 565 1281 550 1283 q 595 1275 581 1279 q 620 1263 610 1271 q 631 1244 631 1256 q 622 1222 631 1233 q 604 1203 614 1211 q 553 1155 579 1181 q 499 1108 526 1129 q 443 1074 472 1088 q 382 1060 414 1060 m 619 490 q 615 681 619 586 q 611 872 611 776 q 786 1032 611 1032 q 887 998 850 1032 q 919 897 924 964 q 907 613 911 754 q 893 329 903 471 q 861 194 889 256 q 788 90 833 133 q 683 24 743 47 q 554 0 624 0 l 432 0 q 270 31 342 0 q 149 114 199 63 q 71 230 99 165 q 40 361 43 294 q 37 487 39 431 q 33 597 35 543 q 30 708 31 651 q 29 833 29 765 q 73 972 29 922 q 213 1022 117 1022 q 313 982 279 1022 q 347 882 347 942 l 346 415 q 356 362 346 388 q 385 317 367 336 q 428 286 403 297 q 479 275 453 275 q 548 297 521 275 q 591 350 575 318 q 613 419 607 382 q 619 490 619 457 z "},"":{"ha":950,"x_min":29,"x_max":924,"o":"m 478 1296 q 548 1273 514 1296 q 608 1222 582 1250 q 651 1169 633 1194 q 671 1140 668 1144 q 683 1120 676 1133 q 690 1097 690 1107 q 669 1056 690 1069 q 611 1042 649 1042 q 572 1056 589 1042 q 541 1089 556 1069 q 510 1128 526 1108 q 472 1161 494 1149 q 436 1122 449 1143 q 413 1083 424 1101 q 385 1051 401 1064 q 335 1039 368 1039 q 281 1058 301 1039 q 260 1108 260 1076 q 268 1126 260 1118 q 281 1142 276 1135 q 310 1186 292 1160 q 354 1237 329 1213 q 410 1278 379 1261 q 478 1296 442 1296 m 619 490 q 615 681 619 586 q 611 872 611 776 q 786 1032 611 1032 q 887 998 850 1032 q 919 897 924 964 q 907 613 911 754 q 893 329 903 471 q 861 194 889 256 q 788 90 833 133 q 683 24 743 47 q 554 0 624 0 l 432 0 q 270 31 342 0 q 149 114 199 63 q 71 230 99 165 q 40 361 43 294 q 37 487 39 431 q 33 597 35 543 q 30 708 31 651 q 29 833 29 765 q 73 972 29 922 q 213 1022 117 1022 q 313 982 279 1022 q 347 882 347 942 l 346 415 q 356 362 346 388 q 385 317 367 336 q 428 286 403 297 q 479 275 453 275 q 548 297 521 275 q 591 350 575 318 q 613 419 607 382 q 619 490 619 457 z "},"":{"ha":950,"x_min":29,"x_max":924,"o":"m 461 1183 q 433 1118 461 1139 q 368 1097 404 1097 q 302 1121 326 1097 q 278 1182 278 1144 q 307 1247 278 1226 q 372 1268 336 1268 q 438 1244 414 1268 q 461 1183 461 1221 m 672 1182 q 644 1117 672 1138 q 581 1097 617 1097 q 513 1120 538 1097 q 489 1181 489 1143 q 518 1246 489 1225 q 583 1267 547 1267 q 649 1243 625 1267 q 672 1182 672 1219 m 619 490 q 615 681 619 586 q 611 872 611 776 q 786 1032 611 1032 q 887 998 850 1032 q 919 897 924 964 q 907 613 911 754 q 893 329 903 471 q 861 194 889 256 q 788 90 833 133 q 683 24 743 47 q 554 0 624 0 l 432 0 q 270 31 342 0 q 149 114 199 63 q 71 230 99 165 q 40 361 43 294 q 37 487 39 431 q 33 597 35 543 q 30 708 31 651 q 29 833 29 765 q 73 972 29 922 q 213 1022 117 1022 q 313 982 279 1022 q 347 882 347 942 l 346 415 q 356 362 346 388 q 385 317 367 336 q 428 286 403 297 q 479 275 453 275 q 548 297 521 275 q 591 350 575 318 q 613 419 607 382 q 619 490 619 457 z "},"":{"ha":1044,"x_min":64,"x_max":990,"o":"m 429 1060 q 413 1060 424 1060 q 392 1063 401 1061 q 374 1069 382 1065 q 367 1081 367 1074 q 372 1099 367 1090 q 382 1114 376 1107 q 413 1144 396 1129 q 443 1174 431 1158 q 469 1211 458 1192 q 494 1247 479 1231 q 530 1273 508 1263 q 588 1283 551 1283 q 613 1281 597 1283 q 642 1275 628 1279 q 667 1263 657 1271 q 678 1244 678 1256 q 669 1222 678 1233 q 651 1203 661 1211 q 600 1155 626 1181 q 547 1108 574 1129 q 490 1074 519 1088 q 429 1060 461 1060 m 103 789 q 76 834 88 810 q 64 885 64 858 q 83 935 64 914 q 131 970 103 957 q 189 990 158 983 q 243 997 219 997 q 340 963 304 997 q 399 875 376 928 l 521 588 l 647 875 q 719 983 676 943 q 836 1024 761 1024 q 883 1021 857 1024 q 934 1009 910 1018 q 974 983 958 1000 q 990 939 990 967 q 982 893 990 915 q 961 851 974 871 l 631 375 q 637 323 632 354 q 647 258 642 292 q 657 194 653 225 q 661 142 661 163 q 646 69 661 96 q 604 28 631 42 q 544 10 578 14 q 472 7 510 7 q 422 12 446 7 q 379 28 397 17 q 351 60 361 40 q 340 110 340 79 q 344 144 340 128 q 350 179 347 161 l 386 433 l 103 789 z "},"":{"ha":896,"x_min":26,"x_max":846,"o":"m 382 92 q 370 57 382 68 q 336 43 358 46 q 263 33 300 39 q 189 28 225 28 q 86 68 117 28 q 53 175 56 108 l 28 850 q 33 934 26 900 q 56 989 40 968 q 94 1021 71 1010 q 147 1036 118 1032 q 181 1041 164 1039 q 215 1043 199 1043 q 263 1028 244 1043 q 291 990 281 1013 q 306 943 301 968 q 313 897 311 918 q 426 894 367 894 q 546 886 486 893 q 660 863 606 879 q 756 815 714 847 q 822 730 797 783 q 846 596 846 676 q 825 474 846 526 q 768 381 804 421 q 685 311 732 342 q 585 254 638 281 q 479 204 533 228 q 376 153 425 181 q 380 122 378 138 q 382 92 382 107 m 353 354 q 415 383 381 360 q 482 438 450 406 q 535 508 514 469 q 557 585 557 547 q 556 599 557 593 q 531 649 551 631 q 478 677 510 668 q 410 687 447 686 q 338 685 374 688 l 353 354 z "},"":{"ha":875,"x_min":24,"x_max":850,"o":"m 207 10 q 74 49 125 10 q 26 176 24 89 l 47 850 q 86 978 50 938 q 178 1033 122 1019 q 301 1044 233 1047 q 433 1042 369 1042 q 567 1017 501 1042 q 683 947 632 992 q 766 842 735 903 q 797 711 797 782 q 786 664 797 685 q 758 625 775 643 q 722 592 742 607 q 686 561 703 576 q 745 515 715 538 q 798 467 775 493 q 835 410 821 442 q 850 333 850 378 q 824 181 850 244 q 748 78 797 118 q 628 19 699 38 q 471 0 558 0 q 422 11 440 0 q 395 41 404 22 q 384 84 386 60 q 382 135 382 108 q 397 181 382 161 q 439 200 413 201 q 488 206 460 200 q 544 223 517 211 q 590 252 571 235 q 608 292 608 269 q 603 334 608 318 q 587 362 597 350 q 561 382 576 374 q 528 403 546 390 q 485 424 507 417 q 445 443 464 432 q 415 473 426 454 q 403 525 403 492 q 415 573 403 556 q 442 608 428 590 q 469 650 457 625 q 481 721 481 675 q 467 769 481 749 q 431 804 453 790 q 381 824 408 818 q 326 828 353 831 l 347 156 q 314 47 350 85 q 207 10 278 10 z "},"":{"ha":1036,"x_min":11,"x_max":1008,"o":"m 611 1060 q 550 1074 579 1060 q 494 1108 521 1088 q 441 1155 467 1129 q 389 1203 415 1181 q 371 1222 379 1211 q 363 1244 363 1233 q 373 1263 363 1256 q 398 1275 383 1271 q 428 1281 413 1279 q 453 1283 443 1283 q 512 1273 490 1283 q 547 1247 533 1263 q 572 1211 561 1231 q 597 1174 582 1192 q 627 1144 610 1158 q 658 1114 644 1129 q 669 1099 664 1107 q 674 1081 674 1090 q 666 1069 674 1074 q 649 1063 658 1065 q 628 1060 639 1061 q 611 1060 618 1060 m 194 7 q 132 19 164 7 q 73 53 100 32 q 28 106 46 75 q 11 172 11 136 q 17 215 11 194 q 32 257 24 236 l 313 949 q 365 1015 332 994 q 446 1036 397 1036 q 626 1015 539 1036 q 740 914 710 994 l 994 231 q 1008 156 1008 192 q 995 89 1008 117 q 959 44 982 61 q 905 19 936 26 q 836 11 874 11 q 743 36 776 11 q 692 97 710 61 q 667 174 674 133 q 653 249 660 215 l 378 293 l 338 142 q 317 94 331 118 q 286 50 304 69 q 245 19 268 31 q 194 7 222 7 m 607 447 l 511 828 l 422 457 l 607 447 z "},"":{"ha":1036,"x_min":11,"x_max":1008,"o":"m 425 1060 q 408 1060 419 1060 q 388 1063 397 1061 q 370 1069 378 1065 q 363 1081 363 1074 q 367 1099 363 1090 q 378 1114 372 1107 q 409 1144 392 1129 q 439 1174 426 1158 q 465 1211 454 1192 q 490 1247 475 1231 q 526 1273 504 1263 q 583 1283 547 1283 q 608 1281 593 1283 q 638 1275 624 1279 q 663 1263 653 1271 q 674 1244 674 1256 q 665 1222 674 1233 q 647 1203 657 1211 q 596 1155 622 1181 q 542 1108 569 1129 q 486 1074 515 1088 q 425 1060 457 1060 m 194 7 q 132 19 164 7 q 73 53 100 32 q 28 106 46 75 q 11 172 11 136 q 17 215 11 194 q 32 257 24 236 l 313 949 q 365 1015 332 994 q 446 1036 397 1036 q 626 1015 539 1036 q 740 914 710 994 l 994 231 q 1008 156 1008 192 q 995 89 1008 117 q 959 44 982 61 q 905 19 936 26 q 836 11 874 11 q 743 36 776 11 q 692 97 710 61 q 667 174 674 133 q 653 249 660 215 l 378 293 l 338 142 q 317 94 331 118 q 286 50 304 69 q 245 19 268 31 q 194 7 222 7 m 607 447 l 511 828 l 422 457 l 607 447 z "},"":{"ha":1036,"x_min":11,"x_max":1008,"o":"m 521 1296 q 591 1273 557 1296 q 651 1222 625 1250 q 694 1169 676 1194 q 714 1140 711 1144 q 726 1120 719 1133 q 733 1097 733 1107 q 713 1056 733 1069 q 654 1042 692 1042 q 615 1056 632 1042 q 584 1089 599 1069 q 553 1128 569 1108 q 515 1161 538 1149 q 479 1122 492 1143 q 456 1083 467 1101 q 428 1051 444 1064 q 378 1039 411 1039 q 324 1058 344 1039 q 303 1108 303 1076 q 311 1126 303 1118 q 324 1142 319 1135 q 353 1186 335 1160 q 397 1237 372 1213 q 453 1278 422 1261 q 521 1296 485 1296 m 194 7 q 132 19 164 7 q 73 53 100 32 q 28 106 46 75 q 11 172 11 136 q 17 215 11 194 q 32 257 24 236 l 313 949 q 365 1015 332 994 q 446 1036 397 1036 q 626 1015 539 1036 q 740 914 710 994 l 994 231 q 1008 156 1008 192 q 995 89 1008 117 q 959 44 982 61 q 905 19 936 26 q 836 11 874 11 q 743 36 776 11 q 692 97 710 61 q 667 174 674 133 q 653 249 660 215 l 378 293 l 338 142 q 317 94 331 118 q 286 50 304 69 q 245 19 268 31 q 194 7 222 7 m 607 447 l 511 828 l 422 457 l 607 447 z "},"":{"ha":1036,"x_min":11,"x_max":1008,"o":"m 424 1161 q 420 1126 422 1146 q 414 1090 418 1107 q 401 1063 410 1074 q 378 1051 393 1051 q 350 1054 367 1051 q 317 1065 333 1057 q 290 1088 301 1074 q 279 1125 279 1103 q 285 1166 279 1147 q 299 1204 292 1185 q 352 1289 318 1265 q 432 1313 386 1313 q 481 1303 458 1313 q 526 1280 504 1294 q 569 1247 547 1265 q 613 1211 590 1229 q 618 1243 615 1226 q 626 1274 621 1260 q 640 1299 632 1289 q 661 1308 647 1308 q 690 1305 674 1308 q 721 1293 706 1301 q 747 1270 736 1285 q 757 1232 757 1256 q 749 1183 757 1208 q 735 1135 742 1157 q 694 1067 719 1085 q 633 1049 669 1049 q 577 1060 604 1049 q 524 1088 550 1071 q 474 1124 499 1104 q 424 1161 449 1144 m 194 7 q 132 19 164 7 q 73 53 100 32 q 28 106 46 75 q 11 172 11 136 q 17 215 11 194 q 32 257 24 236 l 313 949 q 365 1015 332 994 q 446 1036 397 1036 q 626 1015 539 1036 q 740 914 710 994 l 994 231 q 1008 156 1008 192 q 995 89 1008 117 q 959 44 982 61 q 905 19 936 26 q 836 11 874 11 q 743 36 776 11 q 692 97 710 61 q 667 174 674 133 q 653 249 660 215 l 378 293 l 338 142 q 317 94 331 118 q 286 50 304 69 q 245 19 268 31 q 194 7 222 7 m 607 447 l 511 828 l 422 457 l 607 447 z "},"":{"ha":1036,"x_min":11,"x_max":1008,"o":"m 504 1183 q 476 1118 504 1139 q 411 1097 447 1097 q 345 1121 369 1097 q 321 1182 321 1144 q 350 1247 321 1226 q 415 1268 379 1268 q 481 1244 457 1268 q 504 1183 504 1221 m 715 1182 q 688 1117 715 1138 q 624 1097 660 1097 q 556 1120 581 1097 q 532 1181 532 1143 q 561 1246 532 1225 q 626 1267 590 1267 q 692 1243 668 1267 q 715 1182 715 1219 m 194 7 q 132 19 164 7 q 73 53 100 32 q 28 106 46 75 q 11 172 11 136 q 17 215 11 194 q 32 257 24 236 l 313 949 q 365 1015 332 994 q 446 1036 397 1036 q 626 1015 539 1036 q 740 914 710 994 l 994 231 q 1008 156 1008 192 q 995 89 1008 117 q 959 44 982 61 q 905 19 936 26 q 836 11 874 11 q 743 36 776 11 q 692 97 710 61 q 667 174 674 133 q 653 249 660 215 l 378 293 l 338 142 q 317 94 331 118 q 286 50 304 69 q 245 19 268 31 q 194 7 222 7 m 607 447 l 511 828 l 422 457 l 607 447 z "},"":{"ha":1036,"x_min":11,"x_max":1008,"o":"m 524 1318 q 620 1283 585 1318 q 656 1182 656 1247 q 644 1129 656 1153 q 613 1088 632 1106 q 568 1060 593 1069 q 515 1050 543 1050 q 417 1087 453 1050 q 381 1186 381 1124 q 392 1238 381 1214 q 423 1280 403 1263 q 469 1308 443 1297 q 524 1318 494 1318 m 485 1183 q 493 1160 485 1169 q 517 1150 501 1150 q 557 1189 557 1150 q 549 1216 557 1204 q 525 1228 542 1228 q 494 1215 504 1228 q 485 1183 485 1203 m 194 7 q 132 19 164 7 q 73 53 100 32 q 28 106 46 75 q 11 172 11 136 q 17 215 11 194 q 32 257 24 236 l 313 949 q 365 1015 332 994 q 446 1036 397 1036 q 626 1015 539 1036 q 740 914 710 994 l 994 231 q 1008 156 1008 192 q 995 89 1008 117 q 959 44 982 61 q 905 19 936 26 q 836 11 874 11 q 743 36 776 11 q 692 97 710 61 q 667 174 674 133 q 653 249 660 215 l 378 293 l 338 142 q 317 94 331 118 q 286 50 304 69 q 245 19 268 31 q 194 7 222 7 m 607 447 l 511 828 l 422 457 l 607 447 z "},"":{"ha":1439,"x_min":11,"x_max":1397,"o":"m 194 7 q 132 19 164 7 q 73 53 100 32 q 28 106 46 75 q 11 172 11 136 q 17 215 11 194 q 32 257 24 236 l 313 949 q 365 1015 332 994 q 446 1036 397 1036 q 522 1034 481 1036 q 603 1022 564 1032 q 677 993 643 1013 q 729 939 711 974 q 911 1035 775 1033 l 1283 1040 q 1361 1022 1331 1040 q 1392 950 1392 1003 q 1385 893 1392 919 q 1363 847 1378 867 q 1324 816 1347 828 q 1267 804 1300 804 q 1129 808 1197 804 q 992 813 1061 813 l 999 611 q 1075 624 1035 618 q 1153 631 1115 631 q 1227 594 1207 631 q 1247 510 1247 558 q 1220 447 1247 465 q 1153 426 1193 429 q 1078 423 1115 424 q 1004 419 1042 422 l 1013 197 q 1144 229 1079 211 q 1275 247 1208 247 q 1331 234 1307 247 q 1369 199 1354 221 q 1390 151 1383 178 q 1397 94 1397 124 q 1363 17 1397 39 q 1281 -7 1329 -4 q 1086 -19 1183 -14 q 892 -24 989 -24 q 721 54 769 -24 q 691 98 703 74 q 672 149 679 122 q 661 201 665 175 q 653 249 657 226 l 378 293 l 338 142 q 317 94 331 118 q 286 50 304 69 q 245 19 268 31 q 194 7 222 7 m 607 447 l 511 828 l 422 457 l 607 447 z "},"":{"ha":863,"x_min":29,"x_max":847,"o":"m 842 907 q 834 853 842 881 q 812 805 826 826 q 775 770 797 783 q 722 757 753 757 q 681 763 701 757 q 639 774 660 768 q 598 785 618 781 q 557 790 578 790 q 456 765 499 790 q 384 701 413 739 q 342 617 356 663 q 328 529 328 571 q 350 411 328 463 q 406 326 372 360 q 481 274 440 292 q 556 257 521 257 q 599 270 575 257 q 647 299 622 283 q 694 327 671 314 q 738 340 718 340 q 785 324 764 340 q 819 284 806 308 q 840 233 833 260 q 847 183 847 206 q 822 117 847 153 q 751 49 797 81 q 637 -6 704 17 q 485 -28 569 -28 q 489 -43 482 -37 q 524 -63 508 -56 q 551 -80 540 -71 q 568 -104 563 -89 q 574 -147 574 -119 q 557 -190 574 -169 q 517 -226 540 -210 q 467 -251 493 -242 q 421 -261 440 -261 q 322 -228 356 -261 q 289 -154 289 -194 q 305 -118 289 -136 q 343 -100 321 -100 q 360 -110 353 -100 q 373 -133 367 -121 q 386 -156 379 -146 q 404 -167 393 -167 q 436 -135 436 -167 q 428 -108 436 -118 q 409 -89 419 -97 q 390 -73 399 -81 q 382 -54 382 -65 q 386 -19 382 -39 q 213 47 282 -3 q 103 166 143 96 q 46 321 63 236 q 29 493 29 406 q 67 739 29 636 q 169 908 104 842 q 322 1005 235 974 q 508 1036 410 1036 q 635 1032 575 1036 q 742 1015 696 1028 q 815 976 788 1001 q 842 907 842 950 z "},"":{"ha":778,"x_min":31,"x_max":736,"o":"m 482 1060 q 421 1074 450 1060 q 365 1108 392 1088 q 312 1155 338 1129 q 260 1203 286 1181 q 242 1222 250 1211 q 233 1244 233 1233 q 244 1263 233 1256 q 269 1275 254 1271 q 299 1281 283 1279 q 324 1283 314 1283 q 383 1273 361 1283 q 418 1247 404 1263 q 442 1211 432 1231 q 468 1174 453 1192 q 498 1144 481 1158 q 529 1114 515 1129 q 540 1099 535 1107 q 544 1081 544 1090 q 537 1069 544 1074 q 519 1063 529 1065 q 499 1060 510 1061 q 482 1060 489 1060 m 736 94 q 702 17 736 39 q 619 -7 668 -4 q 425 -19 522 -14 q 231 -24 328 -24 q 79 28 128 -24 q 31 181 31 81 q 35 506 31 344 q 44 831 39 667 q 97 982 47 932 q 250 1035 147 1032 l 622 1040 q 700 1022 669 1040 q 731 950 731 1003 q 724 893 731 919 q 701 847 717 867 q 663 816 686 828 q 606 804 639 804 q 468 808 536 804 q 331 813 400 813 l 338 611 q 414 624 374 618 q 492 631 454 631 q 566 594 546 631 q 586 510 586 558 q 559 447 586 465 q 492 426 532 429 q 417 423 454 424 q 343 419 381 422 l 351 197 q 483 229 418 211 q 614 247 547 247 q 669 234 646 247 q 708 199 693 221 q 729 151 722 178 q 736 94 736 124 z "},"":{"ha":778,"x_min":31,"x_max":736,"o":"m 296 1060 q 279 1060 290 1060 q 258 1063 268 1061 q 241 1069 249 1065 q 233 1081 233 1074 q 238 1099 233 1090 q 249 1114 243 1107 q 280 1144 263 1129 q 310 1174 297 1158 q 335 1211 325 1192 q 360 1247 346 1231 q 397 1273 375 1263 q 454 1283 418 1283 q 479 1281 464 1283 q 509 1275 494 1279 q 534 1263 524 1271 q 544 1244 544 1256 q 536 1222 544 1233 q 518 1203 528 1211 q 467 1155 493 1181 q 413 1108 440 1129 q 357 1074 386 1088 q 296 1060 328 1060 m 736 94 q 702 17 736 39 q 619 -7 668 -4 q 425 -19 522 -14 q 231 -24 328 -24 q 79 28 128 -24 q 31 181 31 81 q 35 506 31 344 q 44 831 39 667 q 97 982 47 932 q 250 1035 147 1032 l 622 1040 q 700 1022 669 1040 q 731 950 731 1003 q 724 893 731 919 q 701 847 717 867 q 663 816 686 828 q 606 804 639 804 q 468 808 536 804 q 331 813 400 813 l 338 611 q 414 624 374 618 q 492 631 454 631 q 566 594 546 631 q 586 510 586 558 q 559 447 586 465 q 492 426 532 429 q 417 423 454 424 q 343 419 381 422 l 351 197 q 483 229 418 211 q 614 247 547 247 q 669 234 646 247 q 708 199 693 221 q 729 151 722 178 q 736 94 736 124 z "},"":{"ha":778,"x_min":31,"x_max":736,"o":"m 392 1296 q 462 1273 428 1296 q 522 1222 496 1250 q 565 1169 547 1194 q 585 1140 582 1144 q 597 1120 590 1133 q 604 1097 604 1107 q 583 1056 604 1069 q 525 1042 563 1042 q 486 1056 503 1042 q 455 1089 469 1069 q 424 1128 440 1108 q 386 1161 408 1149 q 350 1122 363 1143 q 326 1083 338 1101 q 299 1051 315 1064 q 249 1039 282 1039 q 194 1058 215 1039 q 174 1108 174 1076 q 182 1126 174 1118 q 194 1142 190 1135 q 224 1186 206 1160 q 268 1237 243 1213 q 324 1278 293 1261 q 392 1296 356 1296 m 736 94 q 702 17 736 39 q 619 -7 668 -4 q 425 -19 522 -14 q 231 -24 328 -24 q 79 28 128 -24 q 31 181 31 81 q 35 506 31 344 q 44 831 39 667 q 97 982 47 932 q 250 1035 147 1032 l 622 1040 q 700 1022 669 1040 q 731 950 731 1003 q 724 893 731 919 q 701 847 717 867 q 663 816 686 828 q 606 804 639 804 q 468 808 536 804 q 331 813 400 813 l 338 611 q 414 624 374 618 q 492 631 454 631 q 566 594 546 631 q 586 510 586 558 q 559 447 586 465 q 492 426 532 429 q 417 423 454 424 q 343 419 381 422 l 351 197 q 483 229 418 211 q 614 247 547 247 q 669 234 646 247 q 708 199 693 221 q 729 151 722 178 q 736 94 736 124 z "},"":{"ha":778,"x_min":31,"x_max":736,"o":"m 375 1183 q 347 1118 375 1139 q 282 1097 318 1097 q 216 1121 240 1097 q 192 1182 192 1144 q 221 1247 192 1226 q 286 1268 250 1268 q 351 1244 328 1268 q 375 1183 375 1221 m 586 1182 q 558 1117 586 1138 q 494 1097 531 1097 q 427 1120 451 1097 q 403 1181 403 1143 q 432 1246 403 1225 q 497 1267 461 1267 q 563 1243 539 1267 q 586 1182 586 1219 m 736 94 q 702 17 736 39 q 619 -7 668 -4 q 425 -19 522 -14 q 231 -24 328 -24 q 79 28 128 -24 q 31 181 31 81 q 35 506 31 344 q 44 831 39 667 q 97 982 47 932 q 250 1035 147 1032 l 622 1040 q 700 1022 669 1040 q 731 950 731 1003 q 724 893 731 919 q 701 847 717 867 q 663 816 686 828 q 606 804 639 804 q 468 808 536 804 q 331 813 400 813 l 338 611 q 414 624 374 618 q 492 631 454 631 q 566 594 546 631 q 586 510 586 558 q 559 447 586 465 q 492 426 532 429 q 417 423 454 424 q 343 419 381 422 l 351 197 q 483 229 418 211 q 614 247 547 247 q 669 234 646 247 q 708 199 693 221 q 729 151 722 178 q 736 94 736 124 z "},"":{"ha":403,"x_min":40,"x_max":365,"o":"m 294 1060 q 233 1074 263 1060 q 177 1108 204 1088 q 124 1155 150 1129 q 72 1203 99 1181 q 54 1222 63 1211 q 46 1244 46 1233 q 56 1263 46 1256 q 81 1275 67 1271 q 111 1281 96 1279 q 136 1283 126 1283 q 195 1273 174 1283 q 231 1247 217 1263 q 255 1211 244 1231 q 281 1174 265 1192 q 310 1144 293 1158 q 342 1114 328 1129 q 352 1099 347 1107 q 357 1081 357 1090 q 349 1069 357 1074 q 332 1063 342 1065 q 312 1060 322 1061 q 294 1060 301 1060 m 153 1007 q 285 961 235 1007 q 339 832 336 915 l 363 176 q 350 96 365 131 q 307 38 335 61 q 242 3 279 15 q 161 -8 204 -8 q 67 30 94 -8 q 40 129 40 68 l 40 885 q 69 970 40 933 q 153 1007 99 1007 z "},"":{"ha":403,"x_min":40,"x_max":365,"o":"m 108 1060 q 92 1060 103 1060 q 71 1063 81 1061 q 53 1069 61 1065 q 46 1081 46 1074 q 51 1099 46 1090 q 61 1114 56 1107 q 92 1144 75 1129 q 122 1174 110 1158 q 148 1211 138 1192 q 173 1247 158 1231 q 209 1273 188 1263 q 267 1283 231 1283 q 292 1281 276 1283 q 322 1275 307 1279 q 347 1263 336 1271 q 357 1244 357 1256 q 349 1222 357 1233 q 331 1203 340 1211 q 279 1155 306 1181 q 226 1108 253 1129 q 169 1074 199 1088 q 108 1060 140 1060 m 153 1007 q 285 961 235 1007 q 339 832 336 915 l 363 176 q 350 96 365 131 q 307 38 335 61 q 242 3 279 15 q 161 -8 204 -8 q 67 30 94 -8 q 40 129 40 68 l 40 885 q 69 970 40 933 q 153 1007 99 1007 z "},"":{"ha":403,"x_min":-14,"x_max":417,"o":"m 204 1296 q 274 1273 240 1296 q 334 1222 308 1250 q 377 1169 360 1194 q 397 1140 394 1144 q 410 1120 403 1133 q 417 1097 417 1107 q 396 1056 417 1069 q 338 1042 375 1042 q 299 1056 315 1042 q 267 1089 282 1069 q 237 1128 253 1108 q 199 1161 221 1149 q 163 1122 175 1143 q 139 1083 150 1101 q 111 1051 128 1064 q 61 1039 94 1039 q 7 1058 28 1039 q -14 1108 -14 1076 q -7 1124 -14 1117 q 4 1139 0 1132 l 7 1142 q 37 1186 18 1160 q 81 1237 56 1213 q 137 1278 106 1261 q 204 1296 168 1296 m 153 1007 q 285 961 235 1007 q 339 832 336 915 l 363 176 q 350 96 365 131 q 307 38 335 61 q 242 3 279 15 q 161 -8 204 -8 q 67 30 94 -8 q 40 129 40 68 l 40 885 q 69 970 40 933 q 153 1007 99 1007 z "},"":{"ha":403,"x_min":4,"x_max":399,"o":"m 188 1183 q 159 1118 188 1139 q 94 1097 131 1097 q 28 1121 53 1097 q 4 1182 4 1144 q 33 1247 4 1226 q 99 1268 63 1268 q 164 1244 140 1268 q 188 1183 188 1221 m 399 1182 q 371 1117 399 1138 q 307 1097 343 1097 q 240 1120 264 1097 q 215 1181 215 1143 q 244 1246 215 1225 q 310 1267 274 1267 q 375 1243 351 1267 q 399 1182 399 1219 m 153 1007 q 285 961 235 1007 q 339 832 336 915 l 363 176 q 350 96 365 131 q 307 38 335 61 q 242 3 279 15 q 161 -8 204 -8 q 67 30 94 -8 q 40 129 40 68 l 40 885 q 69 970 40 933 q 153 1007 99 1007 z "},"":{"ha":936,"x_min":51,"x_max":907,"o":"m 558 540 q 554 600 556 568 q 549 665 553 632 q 414 653 474 658 q 331 646 354 649 q 311 644 324 644 q 257 669 272 644 q 242 729 242 694 q 261 781 242 765 q 313 804 281 797 q 405 822 358 813 q 499 839 451 831 q 456 877 481 864 q 401 897 431 890 q 342 903 372 903 q 282 904 311 904 q 229 906 254 904 q 185 913 204 907 q 156 933 167 919 q 144 971 144 947 q 155 1008 144 992 q 182 1036 165 1024 q 219 1056 199 1049 q 257 1067 239 1064 q 374 1081 319 1078 q 499 1079 429 1083 q 638 1017 582 1074 q 729 874 693 960 q 789 878 760 876 q 847 879 818 879 q 880 870 868 879 q 898 847 892 861 q 906 815 904 832 q 907 782 907 797 q 872 737 907 756 q 782 704 838 718 q 803 589 794 647 q 815 476 811 531 q 822 374 819 422 q 824 288 824 325 q 795 140 824 200 q 714 44 767 81 q 584 -8 661 8 q 411 -24 507 -24 q 245 -1 314 -24 q 133 68 176 22 q 71 183 90 114 q 51 342 51 251 q 76 428 51 386 q 143 505 101 471 q 238 560 185 539 q 349 581 292 581 q 420 577 390 581 q 474 569 450 574 q 518 556 499 564 q 558 540 538 549 m 307 301 q 317 251 307 275 q 342 210 326 228 q 380 181 358 192 q 425 171 401 171 q 462 174 435 171 q 517 190 489 178 q 565 224 544 201 q 583 288 586 247 l 578 364 q 493 385 533 379 q 406 392 453 392 q 338 369 369 392 q 307 301 307 347 z "},"":{"ha":974,"x_min":31,"x_max":919,"o":"m 393 1161 q 390 1126 392 1146 q 383 1090 388 1107 q 371 1063 379 1074 q 347 1051 363 1051 q 319 1054 336 1051 q 287 1065 303 1057 q 260 1088 271 1074 q 249 1125 249 1103 q 254 1166 249 1147 q 267 1204 260 1185 q 322 1289 288 1265 q 400 1313 356 1313 q 449 1303 426 1313 q 494 1280 472 1294 q 538 1247 517 1265 q 582 1211 560 1229 q 588 1243 585 1226 q 595 1274 590 1260 q 608 1299 600 1289 q 629 1308 615 1308 q 658 1305 642 1308 q 689 1293 674 1301 q 715 1270 704 1285 q 725 1232 725 1256 q 717 1183 725 1208 q 703 1135 710 1157 q 663 1067 688 1085 q 601 1049 638 1049 q 547 1060 574 1049 q 494 1088 519 1071 q 443 1124 468 1104 q 393 1161 418 1144 m 219 1021 q 305 1015 265 1021 q 376 992 344 1008 q 430 945 407 975 q 467 867 453 915 l 642 243 l 603 879 q 644 988 599 947 q 771 1029 690 1029 q 864 993 836 1029 q 894 896 892 957 l 918 207 q 901 112 919 151 q 849 47 882 72 q 770 11 815 22 q 675 0 725 0 q 556 40 600 0 q 490 147 513 79 l 335 647 l 347 332 q 352 253 350 286 q 354 175 354 221 q 344 85 354 121 q 310 29 333 50 q 248 0 286 8 q 153 -8 210 -8 q 59 30 88 -8 q 33 129 31 68 l 49 844 q 91 975 50 929 q 219 1021 132 1021 z "},"":{"ha":1199,"x_min":36,"x_max":1169,"o":"m 569 1086 q 590 1085 581 1086 q 610 1085 600 1085 q 573 1111 600 1090 q 517 1158 546 1132 q 465 1208 488 1183 q 443 1244 443 1232 q 453 1263 443 1256 q 478 1275 464 1271 q 509 1281 493 1279 q 535 1283 525 1283 q 592 1273 571 1283 q 628 1247 614 1263 q 653 1211 642 1231 q 678 1174 664 1192 q 709 1144 692 1158 q 739 1114 726 1129 q 751 1099 746 1107 q 756 1081 756 1090 q 749 1069 756 1074 q 1059 915 949 1033 q 1169 613 1169 797 q 1030 156 1169 311 q 622 1 890 1 q 377 32 486 1 q 192 123 268 63 q 76 274 117 183 q 36 488 36 365 q 78 722 36 613 q 191 912 119 831 q 360 1040 263 993 q 569 1086 457 1086 m 383 513 q 403 417 383 457 q 455 352 424 378 q 524 315 486 326 q 599 303 563 303 q 708 324 661 303 q 786 380 756 344 q 832 464 817 415 q 847 567 847 513 q 832 654 847 613 q 789 728 817 696 q 720 778 761 760 q 626 797 679 797 q 508 768 554 797 q 433 695 461 739 q 394 602 406 651 q 383 513 383 553 z "},"":{"ha":1199,"x_min":36,"x_max":1169,"o":"m 449 1071 q 443 1081 443 1076 q 448 1099 443 1090 q 460 1114 453 1107 q 490 1144 472 1129 q 521 1174 507 1158 q 547 1211 536 1192 q 571 1247 557 1231 q 606 1273 585 1263 q 665 1283 628 1283 q 690 1281 675 1283 q 720 1275 706 1279 q 745 1263 735 1271 q 756 1244 756 1256 q 733 1208 756 1232 q 682 1158 711 1183 q 626 1113 653 1133 q 589 1085 599 1092 q 833 1050 725 1083 q 1015 956 940 1017 q 1130 808 1090 894 q 1169 613 1169 721 q 1030 156 1169 311 q 622 1 890 1 q 377 32 486 1 q 192 123 268 63 q 76 274 117 183 q 36 488 36 365 q 67 692 36 596 q 153 865 97 788 q 284 995 208 942 q 449 1071 360 1049 m 383 513 q 403 417 383 457 q 455 352 424 378 q 524 315 486 326 q 599 303 563 303 q 708 324 661 303 q 786 380 756 344 q 832 464 817 415 q 847 567 847 513 q 832 654 847 613 q 789 728 817 696 q 720 778 761 760 q 626 797 679 797 q 508 768 554 797 q 433 695 461 739 q 394 602 406 651 q 383 513 383 553 z "},"":{"ha":1199,"x_min":36,"x_max":1169,"o":"m 601 1296 q 672 1273 639 1296 q 732 1222 706 1250 q 776 1169 758 1194 q 796 1140 793 1144 q 807 1120 800 1133 q 814 1097 814 1107 q 799 1060 814 1072 q 1073 900 976 1015 q 1169 613 1169 785 q 1030 156 1169 311 q 622 1 890 1 q 377 32 486 1 q 192 123 268 63 q 76 274 117 183 q 36 488 36 365 q 63 680 36 589 q 140 845 90 771 q 257 974 189 919 q 406 1057 325 1028 q 385 1108 385 1076 q 392 1126 385 1118 q 404 1142 400 1135 q 434 1186 415 1160 q 478 1237 453 1213 q 534 1278 503 1261 q 601 1296 565 1296 m 569 1086 q 622 1085 597 1086 q 672 1081 647 1083 q 638 1124 656 1101 q 597 1161 621 1147 q 562 1124 574 1144 q 539 1085 550 1103 q 553 1085 546 1085 q 569 1086 561 1086 m 383 513 q 403 417 383 457 q 455 352 424 378 q 524 315 486 326 q 599 303 563 303 q 708 324 661 303 q 786 380 756 344 q 832 464 817 415 q 847 567 847 513 q 832 654 847 613 q 789 728 817 696 q 720 778 761 760 q 626 797 679 797 q 508 768 554 797 q 433 695 461 739 q 394 602 406 651 q 383 513 383 553 z "},"":{"ha":1199,"x_min":36,"x_max":1169,"o":"m 413 1060 q 377 1082 393 1067 q 361 1125 361 1097 q 367 1166 361 1147 q 379 1204 372 1185 q 434 1289 400 1265 q 513 1313 468 1313 q 562 1303 539 1313 q 607 1280 585 1294 q 651 1247 629 1265 q 694 1211 672 1229 q 700 1243 697 1226 q 708 1274 703 1260 q 720 1299 713 1289 q 742 1308 728 1308 q 770 1305 754 1308 q 801 1293 786 1301 q 827 1270 817 1285 q 838 1232 838 1256 q 833 1192 838 1217 q 819 1143 828 1168 q 798 1097 810 1118 q 774 1065 786 1075 q 1066 907 963 1024 q 1169 613 1169 790 q 1030 156 1169 311 q 622 1 890 1 q 377 32 486 1 q 192 123 268 63 q 76 274 117 183 q 36 488 36 365 q 64 682 36 590 q 142 849 92 774 q 261 978 192 924 q 413 1060 331 1032 m 569 1086 q 590 1085 581 1086 q 610 1085 599 1085 q 556 1123 582 1103 q 506 1161 531 1143 q 501 1119 503 1142 q 492 1079 499 1097 q 531 1084 511 1082 q 569 1086 550 1086 m 383 513 q 403 417 383 457 q 455 352 424 378 q 524 315 486 326 q 599 303 563 303 q 708 324 661 303 q 786 380 756 344 q 832 464 817 415 q 847 567 847 513 q 832 654 847 613 q 789 728 817 696 q 720 778 761 760 q 626 797 679 797 q 508 768 554 797 q 433 695 461 739 q 394 602 406 651 q 383 513 383 553 z "},"":{"ha":1199,"x_min":36,"x_max":1169,"o":"m 585 1183 q 557 1118 585 1139 q 493 1097 529 1097 q 426 1121 451 1097 q 401 1182 401 1144 q 431 1247 401 1226 q 496 1268 460 1268 q 562 1244 539 1268 q 585 1183 585 1221 m 797 1182 q 769 1117 797 1138 q 704 1097 740 1097 q 638 1120 663 1097 q 614 1181 614 1143 q 643 1246 614 1225 q 708 1267 672 1267 q 774 1243 750 1267 q 797 1182 797 1219 m 569 1086 q 821 1053 710 1086 q 1010 960 932 1021 q 1128 811 1088 899 q 1169 613 1169 724 q 1030 156 1169 311 q 622 1 890 1 q 377 32 486 1 q 192 123 268 63 q 76 274 117 183 q 36 488 36 365 q 78 722 36 613 q 191 912 119 831 q 360 1040 263 993 q 569 1086 457 1086 m 383 513 q 403 417 383 457 q 455 352 424 378 q 524 315 486 326 q 599 303 563 303 q 708 324 661 303 q 786 380 756 344 q 832 464 817 415 q 847 567 847 513 q 832 654 847 613 q 789 728 817 696 q 720 778 761 760 q 626 797 679 797 q 508 768 554 797 q 433 695 461 739 q 394 602 406 651 q 383 513 383 553 z "},"":{"ha":767,"x_min":46,"x_max":692,"o":"m 506 836 q 492 781 506 803 q 458 746 479 760 q 409 726 436 732 q 354 721 382 721 q 299 733 322 721 q 262 765 276 744 q 240 813 247 786 q 233 868 233 839 q 247 923 233 901 q 281 958 260 944 q 330 978 303 972 q 385 983 357 983 q 440 971 417 983 q 477 938 463 958 q 499 892 492 918 q 506 836 506 865 m 149 436 q 46 538 46 433 q 139 635 46 635 l 619 635 q 654 626 640 635 q 676 601 668 617 q 688 567 685 586 q 692 526 692 547 q 610 443 692 446 l 149 436 m 506 200 q 492 145 506 167 q 458 110 479 124 q 409 90 436 96 q 354 85 382 85 q 299 97 322 85 q 262 129 276 108 q 240 176 247 150 q 233 232 233 203 q 247 287 233 265 q 281 322 260 308 q 330 342 303 336 q 385 347 357 347 q 440 335 417 347 q 477 303 463 324 q 499 256 492 282 q 506 200 506 229 z "},"":{"ha":1199,"x_min":36,"x_max":1169,"o":"m 569 1086 q 644 1083 608 1086 q 715 1075 681 1081 q 775 1101 738 1101 q 844 1083 810 1101 q 888 1031 879 1065 q 1096 867 1022 974 q 1169 613 1169 761 q 1030 156 1169 311 q 622 1 890 1 q 583 2 603 1 q 543 4 563 3 l 525 -47 q 492 -103 514 -81 q 435 -125 471 -125 q 392 -119 414 -125 q 351 -101 369 -112 q 322 -71 333 -89 q 310 -29 310 -53 q 319 21 310 -6 l 329 47 q 113 208 189 99 q 36 488 36 318 q 78 722 36 613 q 191 912 119 831 q 360 1040 263 993 q 569 1086 457 1086 m 383 513 q 400 424 383 461 q 444 363 417 388 l 603 796 q 497 761 539 792 q 429 688 454 731 q 394 599 404 646 q 383 513 383 551 m 650 307 q 737 339 700 315 q 799 397 774 363 q 835 474 824 431 q 847 567 847 518 q 834 650 847 610 q 794 722 821 690 l 650 307 z "},"":{"ha":950,"x_min":29,"x_max":924,"o":"m 568 1060 q 507 1074 536 1060 q 451 1108 478 1088 q 398 1155 424 1129 q 346 1203 372 1181 q 328 1222 336 1211 q 319 1244 319 1233 q 330 1263 319 1256 q 355 1275 340 1271 q 385 1281 369 1279 q 410 1283 400 1283 q 469 1273 447 1283 q 504 1247 490 1263 q 528 1211 518 1231 q 554 1174 539 1192 q 584 1144 567 1158 q 615 1114 601 1129 q 626 1099 621 1107 q 631 1081 631 1090 q 623 1069 631 1074 q 606 1063 615 1065 q 585 1060 596 1061 q 568 1060 575 1060 m 619 490 q 615 681 619 586 q 611 872 611 776 q 786 1032 611 1032 q 887 998 850 1032 q 919 897 924 964 q 907 613 911 754 q 893 329 903 471 q 861 194 889 256 q 788 90 833 133 q 683 24 743 47 q 554 0 624 0 l 432 0 q 270 31 342 0 q 149 114 199 63 q 71 230 99 165 q 40 361 43 294 q 37 487 39 431 q 33 597 35 543 q 30 708 31 651 q 29 833 29 765 q 73 972 29 922 q 213 1022 117 1022 q 313 982 279 1022 q 347 882 347 942 l 346 415 q 356 362 346 388 q 385 317 367 336 q 428 286 403 297 q 479 275 453 275 q 548 297 521 275 q 591 350 575 318 q 613 419 607 382 q 619 490 619 457 z "},"":{"ha":950,"x_min":29,"x_max":924,"o":"m 382 1060 q 365 1060 376 1060 q 344 1063 354 1061 q 327 1069 335 1065 q 319 1081 319 1074 q 324 1099 319 1090 q 335 1114 329 1107 q 366 1144 349 1129 q 396 1174 383 1158 q 422 1211 411 1192 q 447 1247 432 1231 q 483 1273 461 1263 q 540 1283 504 1283 q 565 1281 550 1283 q 595 1275 581 1279 q 620 1263 610 1271 q 631 1244 631 1256 q 622 1222 631 1233 q 604 1203 614 1211 q 553 1155 579 1181 q 499 1108 526 1129 q 443 1074 472 1088 q 382 1060 414 1060 m 619 490 q 615 681 619 586 q 611 872 611 776 q 786 1032 611 1032 q 887 998 850 1032 q 919 897 924 964 q 907 613 911 754 q 893 329 903 471 q 861 194 889 256 q 788 90 833 133 q 683 24 743 47 q 554 0 624 0 l 432 0 q 270 31 342 0 q 149 114 199 63 q 71 230 99 165 q 40 361 43 294 q 37 487 39 431 q 33 597 35 543 q 30 708 31 651 q 29 833 29 765 q 73 972 29 922 q 213 1022 117 1022 q 313 982 279 1022 q 347 882 347 942 l 346 415 q 356 362 346 388 q 385 317 367 336 q 428 286 403 297 q 479 275 453 275 q 548 297 521 275 q 591 350 575 318 q 613 419 607 382 q 619 490 619 457 z "},"":{"ha":950,"x_min":29,"x_max":924,"o":"m 478 1296 q 548 1273 514 1296 q 608 1222 582 1250 q 651 1169 633 1194 q 671 1140 668 1144 q 683 1120 676 1133 q 690 1097 690 1107 q 669 1056 690 1069 q 611 1042 649 1042 q 572 1056 589 1042 q 541 1089 556 1069 q 510 1128 526 1108 q 472 1161 494 1149 q 436 1122 449 1143 q 413 1083 424 1101 q 385 1051 401 1064 q 335 1039 368 1039 q 281 1058 301 1039 q 260 1108 260 1076 q 268 1126 260 1118 q 281 1142 276 1135 q 310 1186 292 1160 q 354 1237 329 1213 q 410 1278 379 1261 q 478 1296 442 1296 m 619 490 q 615 681 619 586 q 611 872 611 776 q 786 1032 611 1032 q 887 998 850 1032 q 919 897 924 964 q 907 613 911 754 q 893 329 903 471 q 861 194 889 256 q 788 90 833 133 q 683 24 743 47 q 554 0 624 0 l 432 0 q 270 31 342 0 q 149 114 199 63 q 71 230 99 165 q 40 361 43 294 q 37 487 39 431 q 33 597 35 543 q 30 708 31 651 q 29 833 29 765 q 73 972 29 922 q 213 1022 117 1022 q 313 982 279 1022 q 347 882 347 942 l 346 415 q 356 362 346 388 q 385 317 367 336 q 428 286 403 297 q 479 275 453 275 q 548 297 521 275 q 591 350 575 318 q 613 419 607 382 q 619 490 619 457 z "},"":{"ha":950,"x_min":29,"x_max":924,"o":"m 461 1183 q 433 1118 461 1139 q 368 1097 404 1097 q 302 1121 326 1097 q 278 1182 278 1144 q 307 1247 278 1226 q 372 1268 336 1268 q 438 1244 414 1268 q 461 1183 461 1221 m 672 1182 q 644 1117 672 1138 q 581 1097 617 1097 q 513 1120 538 1097 q 489 1181 489 1143 q 518 1246 489 1225 q 583 1267 547 1267 q 649 1243 625 1267 q 672 1182 672 1219 m 619 490 q 615 681 619 586 q 611 872 611 776 q 786 1032 611 1032 q 887 998 850 1032 q 919 897 924 964 q 907 613 911 754 q 893 329 903 471 q 861 194 889 256 q 788 90 833 133 q 683 24 743 47 q 554 0 624 0 l 432 0 q 270 31 342 0 q 149 114 199 63 q 71 230 99 165 q 40 361 43 294 q 37 487 39 431 q 33 597 35 543 q 30 708 31 651 q 29 833 29 765 q 73 972 29 922 q 213 1022 117 1022 q 313 982 279 1022 q 347 882 347 942 l 346 415 q 356 362 346 388 q 385 317 367 336 q 428 286 403 297 q 479 275 453 275 q 548 297 521 275 q 591 350 575 318 q 613 419 607 382 q 619 490 619 457 z "},"":{"ha":1044,"x_min":64,"x_max":990,"o":"m 508 1183 q 480 1118 508 1139 q 415 1097 451 1097 q 349 1121 374 1097 q 325 1182 325 1144 q 354 1247 325 1226 q 419 1268 383 1268 q 485 1244 461 1268 q 508 1183 508 1221 m 719 1182 q 692 1117 719 1138 q 628 1097 664 1097 q 560 1120 585 1097 q 536 1181 536 1143 q 565 1246 536 1225 q 631 1267 594 1267 q 696 1243 672 1267 q 719 1182 719 1219 m 103 789 q 76 834 88 810 q 64 885 64 858 q 83 935 64 914 q 131 970 103 957 q 189 990 158 983 q 243 997 219 997 q 340 963 304 997 q 399 875 376 928 l 521 588 l 647 875 q 719 983 676 943 q 836 1024 761 1024 q 883 1021 857 1024 q 934 1009 910 1018 q 974 983 958 1000 q 990 939 990 967 q 982 893 990 915 q 961 851 974 871 l 631 375 q 637 323 632 354 q 647 258 642 292 q 657 194 653 225 q 661 142 661 163 q 646 69 661 96 q 604 28 631 42 q 544 10 578 14 q 472 7 510 7 q 422 12 446 7 q 379 28 397 17 q 351 60 361 40 q 340 110 340 79 q 344 144 340 128 q 350 179 347 161 l 386 433 l 103 789 z "},"":{"ha":896,"x_min":26,"x_max":846,"o":"m 382 92 q 370 57 382 68 q 336 43 358 46 q 263 33 300 39 q 189 28 225 28 q 86 68 117 28 q 53 175 56 108 l 28 850 q 33 934 26 900 q 56 989 40 968 q 94 1021 71 1010 q 147 1036 118 1032 q 181 1041 164 1039 q 215 1043 199 1043 q 263 1028 244 1043 q 291 990 281 1013 q 306 943 301 968 q 313 897 311 918 q 426 894 367 894 q 546 886 486 893 q 660 863 606 879 q 756 815 714 847 q 822 730 797 783 q 846 596 846 676 q 825 474 846 526 q 768 381 804 421 q 685 311 732 342 q 585 254 638 281 q 479 204 533 228 q 376 153 425 181 q 380 122 378 138 q 382 92 382 107 m 353 354 q 415 383 381 360 q 482 438 450 406 q 535 508 514 469 q 557 585 557 547 q 556 599 557 593 q 531 649 551 631 q 478 677 510 668 q 410 687 447 686 q 338 685 374 688 l 353 354 z "},"":{"ha":1044,"x_min":64,"x_max":990,"o":"m 429 1060 q 413 1060 424 1060 q 392 1063 401 1061 q 374 1069 382 1065 q 367 1081 367 1074 q 372 1099 367 1090 q 382 1114 376 1107 q 413 1144 396 1129 q 443 1174 431 1158 q 469 1211 458 1192 q 494 1247 479 1231 q 530 1273 508 1263 q 588 1283 551 1283 q 613 1281 597 1283 q 642 1275 628 1279 q 667 1263 657 1271 q 678 1244 678 1256 q 669 1222 678 1233 q 651 1203 661 1211 q 600 1155 626 1181 q 547 1108 574 1129 q 490 1074 519 1088 q 429 1060 461 1060 m 103 789 q 76 834 88 810 q 64 885 64 858 q 83 935 64 914 q 131 970 103 957 q 189 990 158 983 q 243 997 219 997 q 340 963 304 997 q 399 875 376 928 l 521 588 l 647 875 q 719 983 676 943 q 836 1024 761 1024 q 883 1021 857 1024 q 934 1009 910 1018 q 974 983 958 1000 q 990 939 990 967 q 982 893 990 915 q 961 851 974 871 l 631 375 q 637 323 632 354 q 647 258 642 292 q 657 194 653 225 q 661 142 661 163 q 646 69 661 96 q 604 28 631 42 q 544 10 578 14 q 472 7 510 7 q 422 12 446 7 q 379 28 397 17 q 351 60 361 40 q 340 110 340 79 q 344 144 340 128 q 350 179 347 161 l 386 433 l 103 789 z "},"":{"ha":997,"x_min":-17,"x_max":965,"o":"m 53 228 q 53 368 53 299 q 54 508 53 438 q -17 607 -17 521 q 58 706 -17 693 q 63 839 61 771 q 126 990 68 939 q 286 1042 185 1042 l 457 1042 q 834 899 703 1042 q 965 492 965 757 q 951 391 965 446 q 909 281 938 336 q 838 176 881 226 q 740 86 796 125 q 613 24 683 47 q 460 0 543 0 l 253 0 q 164 21 201 0 q 101 75 126 42 q 65 149 76 108 q 53 228 53 189 m 344 700 q 410 675 389 697 q 432 607 432 653 q 353 514 432 522 l 368 236 l 515 238 q 582 258 553 238 q 631 313 611 278 q 660 397 650 349 q 671 504 671 446 q 671 524 671 515 q 669 544 671 533 q 615 744 663 678 q 489 807 568 810 l 339 803 l 344 700 z "},"":{"ha":997,"x_min":-17,"x_max":965,"o":"m 53 228 q 53 368 53 299 q 54 508 53 438 q -17 607 -17 521 q 58 706 -17 693 q 63 839 61 771 q 126 990 68 939 q 286 1042 185 1042 l 457 1042 q 834 899 703 1042 q 965 492 965 757 q 951 391 965 446 q 909 281 938 336 q 838 176 881 226 q 740 86 796 125 q 613 24 683 47 q 460 0 543 0 l 253 0 q 164 21 201 0 q 101 75 126 42 q 65 149 76 108 q 53 228 53 189 m 344 700 q 410 675 389 697 q 432 607 432 653 q 353 514 432 522 l 368 236 l 515 238 q 582 258 553 238 q 631 313 611 278 q 660 397 650 349 q 671 504 671 446 q 671 524 671 515 q 669 544 671 533 q 615 744 663 678 q 489 807 568 810 l 339 803 l 344 700 z "},"":{"ha":403,"x_min":40,"x_max":365,"o":"m 153 1007 q 285 961 235 1007 q 339 832 336 915 l 363 176 q 350 96 365 131 q 307 38 335 61 q 242 3 279 15 q 161 -8 204 -8 q 67 30 94 -8 q 40 129 40 68 l 40 885 q 69 970 40 933 q 153 1007 99 1007 z "},"":{"ha":689,"x_min":-58,"x_max":660,"o":"m 28 228 l 28 318 q -49 376 -25 314 q -56 403 -53 390 q -58 429 -58 417 q -46 480 -58 457 q -6 513 -33 503 l 29 525 q 31 708 29 617 q 35 892 32 800 q 158 1028 39 1028 q 242 1022 208 1028 q 297 998 276 1015 q 324 950 317 981 q 331 871 332 919 l 321 626 l 388 649 q 404 651 393 651 q 440 640 424 651 q 471 612 457 629 q 492 574 485 594 q 500 536 500 554 q 443 469 500 490 l 314 421 l 308 265 q 363 276 329 271 q 431 283 396 281 q 499 288 467 286 q 553 290 532 290 q 606 278 585 290 q 638 244 626 265 q 655 198 650 224 q 660 144 660 172 q 521 7 660 7 q 403 3 461 7 q 286 -1 344 -1 q 181 10 228 -1 q 99 48 133 21 q 47 119 65 75 q 28 228 28 163 z "},"":{"ha":689,"x_min":-58,"x_max":660,"o":"m 28 228 l 28 318 q -49 376 -25 314 q -56 403 -53 390 q -58 429 -58 417 q -46 480 -58 457 q -6 513 -33 503 l 29 525 q 31 708 29 617 q 35 892 32 800 q 158 1028 39 1028 q 242 1022 208 1028 q 297 998 276 1015 q 324 950 317 981 q 331 871 332 919 l 321 626 l 388 649 q 404 651 393 651 q 440 640 424 651 q 471 612 457 629 q 492 574 485 594 q 500 536 500 554 q 443 469 500 490 l 314 421 l 308 265 q 363 276 329 271 q 431 283 396 281 q 499 288 467 286 q 553 290 532 290 q 606 278 585 290 q 638 244 626 265 q 655 198 650 224 q 660 144 660 172 q 521 7 660 7 q 403 3 461 7 q 286 -1 344 -1 q 181 10 228 -1 q 99 48 133 21 q 47 119 65 75 q 28 228 28 163 z "},"":{"ha":1615,"x_min":36,"x_max":1574,"o":"m 569 1086 q 783 1063 688 1086 q 953 997 878 1040 q 1088 1035 1003 1033 l 1460 1040 q 1538 1022 1507 1040 q 1568 950 1568 1003 q 1561 893 1568 919 q 1539 847 1554 867 q 1500 816 1524 828 q 1443 804 1476 804 q 1306 808 1374 804 q 1168 813 1238 813 l 1175 611 q 1251 624 1211 618 q 1329 631 1292 631 q 1403 594 1383 631 q 1424 510 1424 558 q 1397 447 1424 465 q 1329 426 1369 429 q 1255 423 1292 424 q 1181 419 1218 422 l 1189 197 q 1320 229 1256 211 q 1451 247 1385 247 q 1507 234 1483 247 q 1545 199 1531 221 q 1567 151 1560 178 q 1574 94 1574 124 q 1540 17 1574 39 q 1457 -7 1506 -4 q 1263 -19 1360 -14 q 1068 -24 1165 -24 q 896 57 943 -24 q 622 1 778 1 q 377 32 486 1 q 192 123 268 63 q 76 274 117 183 q 36 488 36 365 q 78 722 36 613 q 191 912 119 831 q 360 1040 263 993 q 569 1086 457 1086 m 383 513 q 403 417 383 457 q 455 352 424 378 q 524 315 486 326 q 599 303 563 303 q 708 324 661 303 q 786 380 756 344 q 832 464 817 415 q 847 567 847 513 q 832 654 847 613 q 789 728 817 696 q 720 778 761 760 q 626 797 679 797 q 508 768 554 797 q 433 695 461 739 q 394 602 406 651 q 383 513 383 553 z "},"":{"ha":1615,"x_min":36,"x_max":1574,"o":"m 569 1086 q 783 1063 688 1086 q 953 997 878 1040 q 1088 1035 1003 1033 l 1460 1040 q 1538 1022 1507 1040 q 1568 950 1568 1003 q 1561 893 1568 919 q 1539 847 1554 867 q 1500 816 1524 828 q 1443 804 1476 804 q 1306 808 1374 804 q 1168 813 1238 813 l 1175 611 q 1251 624 1211 618 q 1329 631 1292 631 q 1403 594 1383 631 q 1424 510 1424 558 q 1397 447 1424 465 q 1329 426 1369 429 q 1255 423 1292 424 q 1181 419 1218 422 l 1189 197 q 1320 229 1256 211 q 1451 247 1385 247 q 1507 234 1483 247 q 1545 199 1531 221 q 1567 151 1560 178 q 1574 94 1574 124 q 1540 17 1574 39 q 1457 -7 1506 -4 q 1263 -19 1360 -14 q 1068 -24 1165 -24 q 896 57 943 -24 q 622 1 778 1 q 377 32 486 1 q 192 123 268 63 q 76 274 117 183 q 36 488 36 365 q 78 722 36 613 q 191 912 119 831 q 360 1040 263 993 q 569 1086 457 1086 m 383 513 q 403 417 383 457 q 455 352 424 378 q 524 315 486 326 q 599 303 563 303 q 708 324 661 303 q 786 380 756 344 q 832 464 817 415 q 847 567 847 513 q 832 654 847 613 q 789 728 817 696 q 720 778 761 760 q 626 797 679 797 q 508 768 554 797 q 433 695 461 739 q 394 602 406 651 q 383 513 383 553 z "},"":{"ha":917,"x_min":50,"x_max":882,"o":"m 833 922 q 826 868 833 897 q 805 814 819 839 q 768 772 790 789 q 717 756 746 756 q 655 765 685 756 q 595 784 625 774 q 536 803 565 794 q 475 813 507 813 q 435 802 454 813 q 403 776 417 792 q 383 740 390 760 q 375 700 375 719 q 397 650 375 665 q 454 628 418 635 q 535 619 490 621 q 628 610 581 617 q 722 585 676 603 q 803 532 767 568 q 860 435 839 496 q 882 281 882 375 q 832 119 882 181 q 707 22 782 57 q 544 -25 632 -12 q 381 -37 457 -37 q 285 -27 342 -37 q 176 6 228 -17 q 87 65 124 29 q 50 150 50 100 q 56 203 50 175 q 74 256 61 232 q 109 297 88 281 q 161 313 131 313 q 237 294 199 313 q 314 253 275 275 q 393 212 353 231 q 474 193 433 193 q 543 211 511 193 q 575 271 575 229 q 556 351 575 322 q 505 397 536 381 q 434 423 474 414 q 352 442 394 432 q 270 467 310 451 q 199 513 231 482 q 149 593 168 543 q 129 721 129 643 q 150 838 129 783 q 208 937 171 893 q 295 1010 244 981 q 406 1050 346 1040 q 357 1079 379 1061 q 317 1118 335 1097 q 286 1158 300 1139 q 264 1192 272 1178 q 251 1208 260 1199 q 243 1226 243 1217 q 264 1276 243 1257 q 318 1296 285 1296 q 368 1283 351 1296 q 396 1252 385 1271 q 419 1212 407 1233 q 456 1172 432 1190 q 494 1205 478 1185 q 524 1245 510 1225 q 556 1279 539 1265 q 594 1293 572 1293 q 653 1279 632 1293 q 674 1236 674 1265 q 667 1215 674 1228 q 654 1194 660 1201 q 641 1174 653 1192 q 612 1135 629 1157 q 571 1091 594 1114 q 519 1054 547 1068 q 617 1047 563 1053 q 720 1026 672 1040 q 801 986 768 1011 q 833 922 833 961 z "},"":{"ha":917,"x_min":50,"x_max":882,"o":"m 833 922 q 826 868 833 897 q 805 814 819 839 q 768 772 790 789 q 717 756 746 756 q 655 765 685 756 q 595 784 625 774 q 536 803 565 794 q 475 813 507 813 q 435 802 454 813 q 403 776 417 792 q 383 740 390 760 q 375 700 375 719 q 397 650 375 665 q 454 628 418 635 q 535 619 490 621 q 628 610 581 617 q 722 585 676 603 q 803 532 767 568 q 860 435 839 496 q 882 281 882 375 q 832 119 882 181 q 707 22 782 57 q 544 -25 632 -12 q 381 -37 457 -37 q 285 -27 342 -37 q 176 6 228 -17 q 87 65 124 29 q 50 150 50 100 q 56 203 50 175 q 74 256 61 232 q 109 297 88 281 q 161 313 131 313 q 237 294 199 313 q 314 253 275 275 q 393 212 353 231 q 474 193 433 193 q 543 211 511 193 q 575 271 575 229 q 556 351 575 322 q 505 397 536 381 q 434 423 474 414 q 352 442 394 432 q 270 467 310 451 q 199 513 231 482 q 149 593 168 543 q 129 721 129 643 q 150 838 129 783 q 208 937 171 893 q 295 1010 244 981 q 406 1050 346 1040 q 357 1079 379 1061 q 317 1118 335 1097 q 286 1158 300 1139 q 264 1192 272 1178 q 251 1208 260 1199 q 243 1226 243 1217 q 264 1276 243 1257 q 318 1296 285 1296 q 368 1283 351 1296 q 396 1252 385 1271 q 419 1212 407 1233 q 456 1172 432 1190 q 494 1205 478 1185 q 524 1245 510 1225 q 556 1279 539 1265 q 594 1293 572 1293 q 653 1279 632 1293 q 674 1236 674 1265 q 667 1215 674 1228 q 654 1194 660 1201 q 641 1174 653 1192 q 612 1135 629 1157 q 571 1091 594 1114 q 519 1054 547 1068 q 617 1047 563 1053 q 720 1026 672 1040 q 801 986 768 1011 q 833 922 833 961 z "},"":{"ha":1044,"x_min":64,"x_max":990,"o":"m 508 1183 q 480 1118 508 1139 q 415 1097 451 1097 q 349 1121 374 1097 q 325 1182 325 1144 q 354 1247 325 1226 q 419 1268 383 1268 q 485 1244 461 1268 q 508 1183 508 1221 m 719 1182 q 692 1117 719 1138 q 628 1097 664 1097 q 560 1120 585 1097 q 536 1181 536 1143 q 565 1246 536 1225 q 631 1267 594 1267 q 696 1243 672 1267 q 719 1182 719 1219 m 103 789 q 76 834 88 810 q 64 885 64 858 q 83 935 64 914 q 131 970 103 957 q 189 990 158 983 q 243 997 219 997 q 340 963 304 997 q 399 875 376 928 l 521 588 l 647 875 q 719 983 676 943 q 836 1024 761 1024 q 883 1021 857 1024 q 934 1009 910 1018 q 974 983 958 1000 q 990 939 990 967 q 982 893 990 915 q 961 851 974 871 l 631 375 q 637 323 632 354 q 647 258 642 292 q 657 194 653 225 q 661 142 661 163 q 646 69 661 96 q 604 28 631 42 q 544 10 578 14 q 472 7 510 7 q 422 12 446 7 q 379 28 397 17 q 351 60 361 40 q 340 110 340 79 q 344 144 340 128 q 350 179 347 161 l 386 433 l 103 789 z "},"":{"ha":849,"x_min":22,"x_max":819,"o":"m 626 1047 q 704 1016 685 1050 q 724 932 724 982 q 718 859 724 890 q 689 790 713 828 q 611 658 649 724 q 536 528 574 593 q 460 399 499 464 q 378 267 422 335 q 514 282 446 274 q 650 297 582 290 q 694 301 674 301 q 753 290 729 301 q 791 258 776 278 q 813 210 806 238 q 819 153 819 183 l 819 147 q 676 7 819 7 q 494 12 585 7 q 311 19 403 17 q 236 27 276 21 q 163 49 196 33 q 107 92 129 64 q 85 165 85 119 q 100 248 85 207 q 135 325 115 289 q 266 556 200 447 q 396 786 332 664 q 272 775 333 782 q 146 768 210 768 q 53 808 83 768 q 22 907 22 849 q 49 989 22 954 q 119 1026 76 1024 l 417 1039 q 352 1060 382 1042 q 299 1101 322 1078 q 258 1150 275 1125 q 229 1192 240 1175 q 217 1208 225 1199 q 210 1226 210 1217 q 231 1276 210 1257 q 283 1296 251 1296 q 333 1283 317 1296 q 362 1252 350 1271 q 386 1212 374 1233 q 422 1172 399 1190 q 460 1205 444 1185 q 491 1245 476 1225 q 522 1279 506 1265 q 561 1293 539 1293 q 618 1279 597 1293 q 639 1236 639 1265 q 632 1215 639 1228 q 621 1194 625 1201 q 603 1168 618 1190 q 564 1119 588 1146 q 510 1069 540 1093 q 446 1040 479 1046 l 626 1047 z "},"":{"ha":849,"x_min":22,"x_max":819,"o":"m 626 1047 q 704 1016 685 1050 q 724 932 724 982 q 718 859 724 890 q 689 790 713 828 q 611 658 649 724 q 536 528 574 593 q 460 399 499 464 q 378 267 422 335 q 514 282 446 274 q 650 297 582 290 q 694 301 674 301 q 753 290 729 301 q 791 258 776 278 q 813 210 806 238 q 819 153 819 183 l 819 147 q 676 7 819 7 q 494 12 585 7 q 311 19 403 17 q 236 27 276 21 q 163 49 196 33 q 107 92 129 64 q 85 165 85 119 q 100 248 85 207 q 135 325 115 289 q 266 556 200 447 q 396 786 332 664 q 272 775 333 782 q 146 768 210 768 q 53 808 83 768 q 22 907 22 849 q 49 989 22 954 q 119 1026 76 1024 l 417 1039 q 352 1060 382 1042 q 299 1101 322 1078 q 258 1150 275 1125 q 229 1192 240 1175 q 217 1208 225 1199 q 210 1226 210 1217 q 231 1276 210 1257 q 283 1296 251 1296 q 333 1283 317 1296 q 362 1252 350 1271 q 386 1212 374 1233 q 422 1172 399 1190 q 460 1205 444 1185 q 491 1245 476 1225 q 522 1279 506 1265 q 561 1293 539 1293 q 618 1279 597 1293 q 639 1236 639 1265 q 632 1215 639 1228 q 621 1194 625 1201 q 603 1168 618 1190 q 564 1119 588 1146 q 510 1069 540 1093 q 446 1040 479 1046 l 626 1047 z "},"":{"ha":897,"x_min":24,"x_max":847,"o":"m 189 418 q 159 430 171 418 q 140 458 147 442 q 131 494 133 475 q 128 528 128 514 q 144 576 128 556 q 185 610 161 597 q 235 631 208 624 q 281 640 261 639 q 276 689 278 664 q 274 739 274 714 q 288 878 274 810 q 338 1002 303 947 q 429 1091 372 1057 q 571 1125 486 1125 q 649 1116 615 1125 q 709 1093 682 1107 q 758 1062 736 1079 q 801 1029 781 1044 q 832 1002 817 1018 q 847 964 847 986 q 833 928 847 947 q 797 894 818 910 q 754 869 776 879 q 717 858 732 858 q 683 871 699 858 q 653 899 668 883 q 626 928 639 915 q 597 940 613 940 q 568 929 583 940 q 538 878 553 918 q 510 784 518 832 q 506 661 501 736 q 617 672 561 665 q 731 679 674 679 q 760 667 747 679 q 781 638 772 656 q 793 600 789 619 q 797 564 797 581 q 729 489 797 500 l 507 460 q 510 390 507 431 q 517 304 514 350 q 524 210 521 258 q 528 115 528 161 q 524 32 528 71 q 508 -35 519 -7 q 472 -92 497 -64 q 413 -142 446 -119 q 344 -177 381 -164 q 276 -190 308 -190 q 181 -179 226 -190 q 100 -150 135 -168 q 44 -108 65 -132 q 24 -57 24 -83 q 35 -22 24 -42 q 65 14 47 -3 q 101 42 82 31 q 136 53 121 53 q 165 42 151 53 q 193 19 179 32 q 222 -5 207 6 q 250 -15 236 -15 q 266 -1 260 -15 q 276 38 272 14 q 281 96 279 63 q 282 167 282 129 q 279 303 282 233 q 276 429 276 374 q 258 426 269 428 q 233 423 246 425 q 209 419 221 421 q 189 418 197 418 z "},"":{"ha":535,"x_min":47,"x_max":478,"o":"m 265 1296 q 335 1273 301 1296 q 395 1222 369 1250 q 438 1169 421 1194 q 458 1140 456 1144 q 471 1120 464 1133 q 478 1097 478 1107 q 456 1056 478 1069 q 399 1042 435 1042 q 360 1056 376 1042 q 328 1089 343 1069 q 298 1128 314 1108 q 260 1161 282 1149 q 224 1122 236 1143 q 199 1083 211 1101 q 171 1051 188 1064 q 121 1039 154 1039 q 68 1058 89 1039 q 47 1108 47 1076 q 55 1126 47 1118 q 68 1142 63 1135 q 97 1186 79 1160 q 140 1237 115 1213 q 197 1278 165 1261 q 265 1296 228 1296 z "},"":{"ha":535,"x_min":47,"x_max":478,"o":"m 265 1039 q 197 1056 228 1039 q 140 1098 165 1074 q 97 1149 115 1122 q 68 1192 79 1175 q 55 1208 63 1199 q 47 1226 47 1217 q 68 1276 47 1257 q 121 1296 89 1296 q 171 1283 154 1296 q 199 1252 188 1271 q 224 1212 211 1233 q 260 1172 236 1190 q 298 1205 282 1185 q 328 1245 314 1225 q 360 1279 343 1265 q 399 1293 376 1293 q 456 1279 435 1293 q 478 1236 478 1265 q 471 1215 478 1228 q 458 1194 464 1201 q 438 1165 456 1190 q 395 1113 421 1140 q 335 1062 369 1085 q 265 1039 301 1039 z "},"":{"ha":518,"x_min":50,"x_max":463,"o":"m 463 1218 q 447 1151 463 1183 q 404 1095 432 1119 q 338 1056 376 1071 q 251 1042 299 1042 q 168 1055 206 1042 q 104 1090 131 1068 q 64 1140 78 1111 q 50 1203 50 1169 q 69 1269 50 1246 q 117 1292 89 1292 q 149 1284 135 1292 q 167 1261 163 1276 q 199 1208 178 1225 q 256 1192 219 1192 q 307 1210 289 1192 q 333 1256 325 1228 q 352 1284 340 1274 q 388 1294 364 1294 q 440 1270 418 1294 q 463 1218 463 1246 z "},"":{"ha":329,"x_min":76,"x_max":260,"o":"m 260 1183 q 232 1118 260 1139 q 168 1097 204 1097 q 101 1121 125 1097 q 76 1182 76 1144 q 106 1247 76 1226 q 171 1268 135 1268 q 236 1244 213 1268 q 260 1183 260 1221 z "},"":{"ha":318,"x_min":26,"x_max":301,"o":"m 168 1318 q 265 1283 229 1318 q 301 1182 301 1247 q 290 1129 301 1153 q 258 1088 278 1106 q 214 1060 239 1069 q 161 1050 189 1050 q 62 1087 97 1050 q 26 1186 26 1124 q 38 1238 26 1214 q 68 1280 49 1263 q 113 1308 88 1297 q 168 1318 139 1318 m 131 1183 q 138 1160 131 1169 q 163 1150 146 1150 q 192 1160 181 1150 q 203 1189 203 1171 q 194 1216 203 1204 q 171 1228 186 1228 q 140 1215 150 1228 q 131 1183 131 1203 z "},"":{"ha":360,"x_min":7,"x_max":354,"o":"m 354 -124 q 340 -172 354 -149 q 303 -212 326 -194 q 248 -240 279 -229 q 182 -250 217 -250 q 119 -242 150 -250 q 63 -218 88 -233 q 22 -181 38 -203 q 7 -132 7 -160 q 23 -82 7 -106 q 59 -37 39 -58 q 97 0 79 -17 q 121 31 115 17 q 149 68 133 61 q 193 75 165 75 q 236 63 219 75 q 253 40 253 51 q 240 5 253 26 q 213 -39 228 -17 q 186 -81 199 -61 q 174 -110 174 -100 l 174 -112 q 186 -135 176 -128 q 204 -143 196 -142 q 224 -133 215 -143 q 240 -110 232 -122 q 257 -87 249 -97 q 276 -76 265 -76 q 299 -81 286 -76 q 325 -94 313 -86 q 346 -110 338 -101 q 354 -124 354 -118 z "},"":{"ha":565,"x_min":22,"x_max":500,"o":"m 167 1161 q 163 1126 165 1146 q 157 1090 161 1107 q 145 1063 153 1074 q 122 1051 138 1051 q 93 1054 110 1051 q 60 1065 76 1057 q 33 1088 44 1074 q 22 1125 22 1103 q 28 1166 22 1147 q 42 1204 35 1185 q 96 1289 61 1265 q 175 1313 131 1313 q 224 1303 201 1313 q 269 1280 247 1294 q 312 1247 290 1265 q 356 1211 333 1229 q 361 1243 358 1226 q 369 1274 364 1260 q 383 1299 375 1289 q 404 1308 390 1308 q 433 1305 417 1308 q 464 1293 449 1301 q 490 1270 479 1285 q 500 1232 500 1256 q 492 1183 500 1208 q 478 1135 485 1157 q 438 1067 463 1085 q 376 1049 413 1049 q 320 1060 347 1049 q 267 1088 293 1071 q 217 1124 242 1104 q 167 1161 192 1144 z "},"":{"ha":610,"x_min":38,"x_max":594,"o":"m 100 1060 q 83 1060 94 1060 q 63 1063 72 1061 q 45 1069 53 1065 q 38 1081 38 1074 q 42 1099 38 1090 q 53 1114 47 1107 q 84 1144 67 1129 q 114 1174 101 1158 q 140 1211 129 1192 q 164 1247 150 1231 q 199 1273 178 1263 q 258 1283 221 1283 q 283 1281 268 1283 q 313 1275 299 1279 q 338 1263 328 1271 q 349 1244 349 1256 q 340 1222 349 1233 q 322 1203 332 1211 q 270 1155 296 1181 q 217 1108 244 1129 q 161 1074 190 1088 q 100 1060 132 1060 m 344 1060 q 328 1060 339 1060 q 307 1063 317 1061 q 290 1069 297 1065 q 282 1081 282 1074 q 287 1099 282 1090 q 299 1114 292 1107 q 328 1144 311 1129 q 360 1174 346 1158 q 385 1211 375 1192 q 410 1247 396 1231 q 445 1273 424 1263 q 503 1283 467 1283 q 528 1281 513 1283 q 559 1275 544 1279 q 584 1263 574 1271 q 594 1244 594 1256 q 585 1222 594 1233 q 567 1203 576 1211 q 515 1155 542 1181 q 462 1108 489 1129 q 406 1074 435 1088 q 344 1060 376 1060 z "},"":{"ha":1017,"x_min":43,"x_max":919,"o":"m 642 394 q 643 483 646 431 q 635 597 640 535 q 626 729 631 660 q 621 868 621 799 q 666 990 621 951 q 792 1028 711 1028 q 915 903 919 1028 q 902 514 908 708 q 889 125 896 319 q 885 63 888 94 q 873 3 882 31 q 847 -42 864 -24 q 799 -64 829 -60 q 686 -28 721 -74 q 647 114 651 18 q 590 19 631 50 q 510 -11 550 -11 q 455 -7 476 -11 q 415 7 433 -3 q 376 31 396 17 q 331 63 357 44 l 321 -118 q 279 -247 317 -200 q 161 -294 242 -294 q 77 -263 111 -294 q 43 -183 43 -232 q 43 -172 43 -176 q 44 -160 43 -167 l 68 94 q 79 194 72 144 q 86 293 86 243 q 80 570 86 432 q 74 847 74 708 q 125 978 74 933 q 260 1022 176 1022 q 340 986 318 1022 q 361 897 361 950 l 358 421 q 372 335 358 368 q 408 285 386 303 q 456 262 429 268 q 510 256 483 256 q 549 265 528 256 q 590 293 571 275 q 624 337 610 311 q 642 394 639 363 z "},"":{"ha":678,"x_min":60,"x_max":636,"o":"m 60 532 q 65 574 60 553 q 82 610 71 594 q 109 635 93 626 q 147 644 125 644 l 563 638 q 593 628 579 638 q 617 602 607 618 q 631 567 626 586 q 636 528 636 547 q 553 450 636 450 l 147 446 q 60 532 60 446 z "},"":{"ha":924,"x_min":21,"x_max":881,"o":"m 21 532 q 42 611 21 576 q 108 646 64 646 l 810 638 q 862 607 843 636 q 881 542 881 578 q 860 471 881 500 q 799 440 840 442 l 108 432 q 42 459 64 431 q 21 532 21 488 z "},"":{"ha":353,"x_min":28,"x_max":311,"o":"m 211 900 q 235 903 222 901 q 260 904 247 904 q 288 896 278 904 q 303 875 299 888 q 310 849 308 863 q 311 824 311 835 q 306 760 311 790 q 287 707 301 729 q 246 672 272 685 q 178 658 219 658 q 122 663 149 658 q 74 678 94 667 q 40 710 53 690 q 28 763 28 731 q 53 901 28 825 q 129 1086 78 978 q 165 1131 140 1110 q 218 1151 190 1151 q 249 1136 231 1151 q 268 1097 268 1121 q 260 1052 268 1079 q 243 997 253 1025 q 224 943 233 969 q 211 900 215 917 z "},"":{"ha":353,"x_min":36,"x_max":319,"o":"m 136 910 q 111 908 124 908 q 86 907 99 907 q 58 915 68 907 q 44 935 49 924 q 38 961 39 947 q 36 988 36 975 q 41 1051 36 1021 q 60 1103 46 1081 q 101 1138 75 1125 q 168 1151 126 1151 q 225 1147 197 1151 q 274 1131 253 1143 q 307 1100 294 1119 q 319 1049 319 1081 q 294 908 319 985 q 218 725 268 832 q 182 679 207 700 q 129 658 157 658 q 97 674 117 658 q 78 713 78 689 q 85 759 78 732 q 103 814 93 786 q 123 867 114 842 q 136 910 132 893 z "},"":{"ha":336,"x_min":36,"x_max":319,"o":"m 136 35 q 111 33 124 33 q 86 32 99 32 q 58 40 68 32 q 44 60 49 49 q 38 86 39 72 q 36 113 36 100 q 41 176 36 146 q 60 228 46 206 q 101 263 75 250 q 168 276 126 276 q 225 272 197 276 q 274 256 253 268 q 307 225 294 244 q 319 174 319 206 q 294 33 319 110 q 218 -150 268 -43 q 182 -196 207 -175 q 129 -217 157 -217 q 97 -201 117 -217 q 78 -162 78 -186 q 85 -117 78 -144 q 103 -61 93 -89 q 123 -8 114 -33 q 136 35 132 18 z "},"":{"ha":631,"x_min":28,"x_max":613,"o":"m 511 904 q 536 907 524 906 q 561 908 549 908 q 590 900 579 908 q 605 879 600 892 q 611 853 610 867 q 613 828 613 839 q 608 764 613 794 q 588 711 603 733 q 547 676 574 689 q 479 663 521 663 q 423 667 450 663 q 374 683 396 671 q 340 715 353 694 q 328 767 328 735 q 353 906 328 829 q 429 1090 379 982 q 466 1135 440 1114 q 519 1156 492 1156 q 533 1151 525 1156 q 550 1140 542 1147 q 564 1123 558 1133 q 569 1101 569 1113 q 562 1056 569 1083 q 544 1001 554 1029 q 525 947 535 974 q 511 904 515 921 m 211 900 q 235 903 222 901 q 260 904 247 904 q 288 896 278 904 q 303 875 299 888 q 310 849 308 863 q 311 824 311 835 q 306 760 311 790 q 287 707 301 729 q 246 672 272 685 q 178 658 219 658 q 122 663 149 658 q 74 678 94 667 q 40 710 53 690 q 28 763 28 731 q 53 901 28 825 q 129 1086 78 978 q 165 1131 140 1110 q 218 1151 190 1151 q 249 1136 231 1151 q 268 1097 268 1121 q 260 1052 268 1079 q 243 997 253 1025 q 224 943 233 969 q 211 900 215 917 z "},"":{"ha":665,"x_min":42,"x_max":626,"o":"m 443 914 q 418 912 431 913 q 393 911 406 911 q 365 919 375 911 q 350 940 356 928 q 343 965 344 951 q 342 992 342 979 q 347 1055 342 1025 q 367 1107 353 1085 q 408 1142 382 1129 q 475 1156 433 1156 q 532 1151 504 1156 q 581 1135 560 1147 q 614 1104 601 1124 q 626 1053 626 1085 q 601 913 626 989 q 525 729 575 836 q 489 683 514 704 q 435 663 464 663 q 421 667 429 663 q 404 678 413 671 q 390 696 396 686 q 385 717 385 706 q 392 763 385 736 q 410 818 400 790 q 430 872 421 846 q 443 914 439 897 m 142 910 q 117 908 129 908 q 92 907 104 907 q 64 915 74 907 q 49 935 54 924 q 43 961 44 947 q 42 988 42 975 q 47 1051 42 1021 q 66 1103 51 1081 q 106 1138 81 1125 q 174 1151 132 1151 q 231 1147 203 1151 q 279 1131 258 1143 q 313 1100 300 1119 q 325 1049 325 1081 q 299 908 325 985 q 224 725 274 832 q 188 679 213 700 q 135 658 163 658 q 103 674 122 658 q 83 713 83 689 q 91 759 83 732 q 109 814 99 786 q 128 867 119 842 q 142 910 138 893 z "},"":{"ha":664,"x_min":42,"x_max":628,"o":"m 142 35 q 117 33 129 33 q 92 32 104 32 q 64 40 74 32 q 49 60 54 49 q 43 86 44 72 q 42 113 42 100 q 47 176 42 146 q 66 228 51 206 q 106 263 81 250 q 174 276 132 276 q 231 272 203 276 q 279 256 258 268 q 313 225 300 244 q 325 174 325 206 q 299 33 325 110 q 224 -150 274 -43 q 188 -196 213 -175 q 135 -217 163 -217 q 103 -201 122 -217 q 83 -162 83 -186 q 91 -117 83 -144 q 109 -61 99 -89 q 128 -8 119 -33 q 142 35 138 18 m 444 35 q 419 33 432 33 q 394 32 407 32 q 367 40 376 32 q 352 60 357 49 q 346 86 347 72 q 344 113 344 100 q 349 176 344 146 q 369 228 354 206 q 409 263 383 250 q 476 276 435 276 q 533 272 506 276 q 582 256 561 268 q 615 225 603 244 q 628 174 628 206 q 602 33 628 110 q 526 -150 576 -43 q 490 -196 515 -175 q 438 -217 465 -217 q 406 -201 425 -217 q 386 -162 386 -186 q 394 -117 386 -144 q 412 -61 401 -89 q 431 -8 422 -33 q 444 35 440 18 z "},"":{"ha":688,"x_min":49,"x_max":694,"o":"m 357 -8 q 242 106 244 -8 l 229 857 q 185 855 206 856 q 147 854 165 854 q 103 858 122 854 q 73 876 85 863 q 55 915 61 890 q 49 982 49 940 q 63 1057 49 1028 q 129 1086 76 1086 q 178 1085 154 1086 q 226 1082 203 1083 q 224 1132 226 1106 q 222 1183 222 1158 q 226 1238 222 1213 q 244 1283 231 1264 q 281 1314 257 1303 q 344 1325 306 1325 q 407 1319 381 1325 q 452 1299 433 1314 q 480 1260 471 1285 q 489 1197 489 1236 q 488 1133 489 1165 q 488 1069 488 1101 q 558 1068 521 1068 q 625 1060 594 1068 q 675 1029 656 1051 q 694 961 694 1007 q 674 894 694 915 q 623 865 654 872 q 554 860 592 858 q 483 861 517 861 l 472 106 q 357 -8 469 -8 z "},"":{"ha":754,"x_min":58,"x_max":704,"o":"m 367 21 q 251 135 253 21 l 249 342 q 182 343 215 343 q 121 351 149 343 q 76 381 93 360 q 58 446 58 403 q 74 513 58 492 q 117 542 90 535 q 176 549 143 550 q 244 549 210 549 l 240 886 q 202 883 221 885 q 164 882 183 882 q 124 885 143 882 q 90 899 104 889 q 67 926 75 908 q 58 974 58 944 q 58 1024 58 999 q 65 1069 58 1049 q 88 1103 71 1090 q 139 1115 104 1115 q 188 1114 164 1115 q 236 1111 213 1113 l 235 1232 q 354 1354 233 1354 q 417 1349 390 1354 q 462 1328 443 1343 q 490 1290 481 1314 q 499 1226 499 1265 q 498 1163 499 1194 q 497 1099 497 1131 l 607 1093 q 704 990 704 1088 q 607 892 704 892 l 494 890 l 489 553 q 533 556 510 554 q 578 557 556 557 q 626 553 603 557 q 666 538 649 549 q 694 505 683 526 q 704 449 704 483 q 701 398 704 421 q 686 359 697 375 q 656 334 675 343 q 604 325 636 325 q 545 326 575 325 q 486 331 515 328 l 482 135 q 367 21 481 21 z "},"":{"ha":426,"x_min":46,"x_max":396,"o":"m 396 547 q 379 477 396 506 q 335 432 363 449 q 272 408 307 415 q 201 400 238 400 q 131 415 160 400 q 83 457 101 431 q 55 517 64 483 q 46 588 46 550 q 63 658 46 629 q 107 703 79 686 q 169 727 135 719 q 240 735 204 735 q 311 719 282 735 q 359 678 340 704 q 387 618 378 651 q 396 547 396 585 z "},"":{"ha":1067,"x_min":40,"x_max":1025,"o":"m 314 128 q 301 73 314 94 q 266 38 288 51 q 217 18 244 24 q 163 13 190 13 q 107 24 131 13 q 69 57 83 36 q 47 104 54 78 q 40 160 40 131 q 53 215 40 193 q 88 250 67 236 q 138 269 110 264 q 193 275 165 275 q 248 263 225 275 q 285 230 271 250 q 307 183 300 210 q 314 128 314 157 m 669 128 q 656 73 669 94 q 622 38 643 51 q 573 18 600 24 q 518 13 546 13 q 463 24 486 13 q 424 57 439 36 q 403 104 410 78 q 396 160 396 131 q 409 215 396 193 q 444 250 422 236 q 493 269 465 264 q 549 275 521 275 q 603 263 581 275 q 641 230 626 250 q 663 183 656 210 q 669 128 669 157 m 1025 128 q 1012 73 1025 94 q 977 38 999 51 q 928 18 956 24 q 874 13 901 13 q 818 24 842 13 q 780 57 794 36 q 758 104 765 78 q 751 160 751 131 q 765 215 751 193 q 799 250 778 236 q 849 269 821 264 q 904 275 876 275 q 959 263 936 275 q 997 230 982 250 q 1018 183 1011 210 q 1025 128 1025 157 z "},"":{"ha":2069,"x_min":47,"x_max":1989,"o":"m 369 -125 q 331 -120 353 -125 q 291 -106 310 -115 q 259 -82 272 -97 q 246 -46 246 -67 q 252 -14 246 -29 q 268 15 258 1 l 919 1043 q 958 1085 935 1069 q 1013 1101 981 1101 q 1046 1097 1028 1101 q 1080 1085 1064 1093 q 1107 1063 1096 1076 q 1118 1032 1118 1050 q 1113 1005 1118 1018 q 1101 981 1108 992 l 483 -53 q 436 -105 464 -85 q 369 -125 408 -125 m 339 1061 q 442 1039 390 1061 q 536 980 494 1017 q 603 894 578 943 q 629 793 629 846 q 607 676 629 735 q 546 569 585 617 q 454 492 507 522 q 340 463 401 463 q 221 485 275 463 q 128 549 167 508 q 69 646 90 590 q 47 767 47 701 q 67 885 47 832 q 125 978 88 939 q 217 1040 163 1018 q 339 1061 271 1061 m 228 847 q 219 803 222 828 q 215 751 215 778 q 219 697 215 724 q 234 650 224 671 q 262 616 244 629 q 304 603 279 603 q 372 619 343 603 q 419 661 400 636 q 447 715 438 686 q 457 768 457 744 q 450 826 457 792 q 428 891 443 860 q 392 944 414 922 q 339 967 369 967 q 303 955 321 967 q 269 926 285 943 q 243 888 254 908 q 228 847 232 867 m 1700 535 q 1803 513 1751 535 q 1896 453 1854 490 q 1963 367 1938 415 q 1989 265 1989 318 q 1967 148 1989 207 q 1906 42 1944 89 q 1815 -35 1868 -6 q 1700 -65 1763 -65 q 1581 -42 1635 -65 q 1488 22 1526 -19 q 1428 118 1450 63 q 1407 239 1407 174 q 1427 358 1407 304 q 1485 451 1447 413 q 1578 513 1524 490 q 1700 535 1632 535 m 1068 493 q 1171 471 1119 493 q 1264 411 1222 449 q 1331 325 1306 374 q 1357 224 1357 276 q 1335 106 1357 165 q 1275 0 1314 47 q 1183 -77 1236 -47 q 1069 -107 1131 -107 q 950 -84 1004 -107 q 858 -20 896 -61 q 798 76 819 21 q 776 197 776 132 q 797 317 776 263 q 854 410 817 371 q 946 471 892 449 q 1068 493 1000 493 m 1588 319 q 1576 224 1576 279 q 1581 169 1576 196 q 1595 122 1585 143 q 1622 88 1606 101 q 1665 75 1639 75 q 1731 92 1703 75 q 1778 133 1760 108 q 1807 188 1797 158 q 1817 240 1817 217 q 1810 298 1817 264 q 1788 363 1803 332 q 1751 417 1774 394 q 1699 439 1729 439 q 1663 427 1681 439 q 1629 398 1644 415 q 1603 360 1614 381 q 1588 319 1592 339 m 956 278 q 948 233 951 258 q 944 182 944 208 q 949 128 944 154 q 963 81 953 101 q 991 47 974 60 q 1033 33 1008 33 q 1101 50 1072 33 q 1148 92 1129 67 q 1176 146 1167 117 q 1185 199 1185 175 q 1178 256 1185 222 q 1156 322 1171 290 q 1120 375 1142 353 q 1068 397 1099 397 q 1031 385 1050 397 q 997 356 1013 374 q 971 318 982 339 q 956 278 960 297 z "},"":{"ha":492,"x_min":60,"x_max":444,"o":"m 60 542 q 78 623 60 586 q 132 686 96 660 l 306 819 q 332 835 318 828 q 361 842 346 842 q 392 831 378 842 q 415 804 406 819 q 431 771 425 789 q 436 738 436 753 q 419 691 436 711 q 383 656 403 671 l 238 538 l 378 439 q 425 394 406 419 q 444 332 444 368 q 442 302 444 319 q 433 269 439 285 q 415 243 426 254 q 388 232 404 232 q 359 238 372 232 q 335 253 346 244 l 133 399 q 78 460 97 424 q 60 542 60 497 z "},"":{"ha":490,"x_min":60,"x_max":444,"o":"m 444 532 q 426 451 444 488 q 372 386 407 414 l 197 254 q 172 238 186 244 q 143 232 158 232 q 113 243 126 232 q 89 269 99 254 q 74 303 79 285 q 68 336 68 322 q 85 382 68 363 q 121 417 101 401 l 267 536 l 126 633 q 79 679 99 653 q 60 742 60 706 q 63 772 60 754 q 72 804 65 789 q 88 831 78 819 q 115 842 99 842 q 144 835 131 842 q 168 819 157 828 l 371 675 q 426 613 407 650 q 444 532 444 576 z "},"":{"ha":986,"x_min":60,"x_max":933,"o":"m 183 -125 q 145 -120 167 -125 q 105 -106 124 -115 q 73 -82 86 -97 q 60 -46 60 -67 q 67 -14 60 -29 q 82 15 74 1 l 733 1043 q 773 1085 750 1069 q 828 1101 796 1101 q 861 1097 843 1101 q 895 1085 879 1093 q 922 1063 911 1076 q 933 1032 933 1050 q 928 1005 933 1018 q 915 981 922 992 l 297 -53 q 250 -105 278 -85 q 183 -125 222 -125 z "},"":{"ha":1013,"x_min":60,"x_max":940,"o":"m 606 -25 q 467 0 529 -25 q 358 71 404 25 q 278 181 311 117 q 229 321 246 244 q 211 322 219 322 q 193 324 203 322 l 126 326 q 77 342 94 328 q 60 390 60 357 q 89 458 60 443 q 164 474 118 474 l 210 474 q 208 494 208 485 q 208 515 208 504 l 208 539 l 150 539 q 103 585 103 539 q 106 624 103 604 q 111 663 108 643 q 165 710 118 711 l 244 708 q 303 830 268 771 q 388 935 339 889 q 499 1008 438 981 q 632 1036 560 1036 q 730 1028 681 1036 q 828 1014 779 1021 q 899 989 869 1008 q 929 922 929 969 q 925 868 929 899 q 910 810 921 838 q 882 765 900 783 q 836 747 864 747 q 799 752 818 747 q 762 763 781 757 q 724 775 743 769 q 688 782 706 781 q 606 763 644 785 q 536 703 568 740 l 639 701 q 698 678 679 700 q 717 619 717 657 q 699 572 717 588 q 650 556 681 557 q 551 551 597 553 q 461 547 506 550 q 453 479 453 513 q 454 478 453 478 q 524 479 490 479 q 592 481 558 479 q 666 453 642 481 q 690 376 690 425 q 671 325 690 340 q 618 310 651 310 q 546 310 581 310 q 476 311 511 311 q 526 227 494 260 q 608 194 558 194 q 670 215 640 194 q 730 261 700 236 q 790 307 760 286 q 851 328 819 328 q 889 311 872 328 q 917 272 906 294 q 935 224 929 249 q 940 182 940 199 q 912 103 940 140 q 837 37 883 65 q 730 -8 790 8 q 606 -25 669 -25 z "},"":{"ha":1019,"x_min":21,"x_max":988,"o":"m 132 940 q 94 942 114 942 q 58 947 75 943 q 31 963 42 951 q 21 1000 21 975 q 68 1050 21 1050 q 197 1046 132 1050 q 325 1039 261 1042 q 360 1028 346 1038 q 374 996 374 1019 q 363 948 374 968 q 321 928 351 928 q 292 929 306 928 q 265 932 279 931 q 272 776 268 853 q 275 621 275 699 q 249 554 275 576 q 179 532 222 532 q 136 549 149 532 q 124 594 124 567 q 126 768 124 682 q 132 940 129 854 m 447 536 q 390 550 414 536 q 365 601 365 564 q 365 614 365 608 q 368 626 365 619 l 426 956 q 456 1017 433 994 q 518 1039 478 1039 q 603 1013 571 1039 q 644 935 636 988 l 686 676 l 761 972 q 783 1015 768 997 q 826 1032 799 1032 q 903 1004 872 1032 q 942 932 935 976 l 985 656 q 987 643 986 649 q 988 632 988 638 q 958 569 988 588 q 888 550 928 550 q 837 572 851 550 q 821 626 822 593 l 815 868 l 751 615 q 719 565 743 583 q 663 546 696 546 q 629 559 640 546 q 614 593 618 572 l 561 894 l 532 617 q 447 536 524 536 z "},"":{"ha":688,"x_min":76,"x_max":625,"o":"m 179 415 q 76 517 76 413 q 99 599 76 564 q 169 635 121 635 l 543 638 q 579 626 564 638 q 605 598 594 615 q 620 559 615 581 q 625 517 625 538 q 604 449 625 475 q 543 422 583 424 l 179 415 z "},"":{"ha":1213,"x_min":22,"x_max":1175,"o":"m 371 94 q 356 38 371 60 q 319 6 342 17 q 267 -9 296 -6 q 210 -12 238 -12 q 151 -3 175 -12 q 109 25 126 7 q 80 69 92 43 q 60 128 68 96 q 32 283 42 192 q 22 504 22 375 q 32 685 22 594 q 67 851 42 776 q 136 976 93 925 q 246 1038 179 1026 q 326 1047 281 1044 q 422 1050 372 1050 q 529 1046 475 1050 q 629 1033 583 1042 q 683 1024 654 1029 q 735 1008 711 1018 q 774 980 758 997 q 789 935 789 963 q 782 878 789 906 q 760 829 775 850 q 722 795 744 808 q 665 782 699 782 q 624 786 643 782 q 577 797 599 790 q 534 810 556 804 q 490 819 513 815 q 439 824 467 824 q 366 801 393 824 q 326 744 339 778 q 308 670 313 710 q 304 596 304 631 q 307 543 304 568 q 313 497 310 518 l 551 528 q 568 530 560 529 q 585 531 576 531 q 673 491 649 531 q 697 394 697 451 q 581 276 697 276 q 454 282 517 276 q 329 292 392 288 q 356 193 340 243 q 371 94 371 143 m 963 1007 q 1095 961 1044 1007 q 1149 832 1146 915 l 1172 176 q 1160 96 1175 131 q 1117 38 1144 61 q 1051 3 1089 15 q 971 -8 1014 -8 q 877 30 904 -8 q 850 129 850 68 l 850 885 q 879 970 850 933 q 963 1007 908 1007 z "},"":{"ha":1499,"x_min":22,"x_max":1469,"o":"m 371 94 q 356 38 371 60 q 319 6 342 17 q 267 -9 296 -6 q 210 -12 238 -12 q 151 -3 175 -12 q 109 25 126 7 q 80 69 92 43 q 60 128 68 96 q 32 283 42 192 q 22 504 22 375 q 32 685 22 594 q 67 851 42 776 q 136 976 93 925 q 246 1038 179 1026 q 326 1047 281 1044 q 422 1050 372 1050 q 529 1046 475 1050 q 629 1033 583 1042 q 683 1024 654 1029 q 735 1008 711 1018 q 774 980 758 997 q 789 935 789 963 q 782 878 789 906 q 760 829 775 850 q 722 795 744 808 q 665 782 699 782 q 624 786 643 782 q 577 797 599 790 q 534 810 556 804 q 490 819 513 815 q 439 824 467 824 q 366 801 393 824 q 326 744 339 778 q 308 670 313 710 q 304 596 304 631 q 307 543 304 568 q 313 497 310 518 l 551 528 q 568 530 560 529 q 585 531 576 531 q 673 491 649 531 q 697 394 697 451 q 581 276 697 276 q 454 282 517 276 q 329 292 392 288 q 356 193 340 243 q 371 94 371 143 m 838 228 q 839 560 838 394 q 844 892 840 725 q 968 1028 849 1028 q 1052 1022 1018 1028 q 1106 998 1086 1015 q 1134 950 1126 981 q 1140 871 1142 919 l 1118 265 q 1172 276 1139 271 q 1241 283 1206 281 q 1309 288 1276 286 q 1363 290 1342 290 q 1415 278 1394 290 q 1448 244 1436 265 q 1465 198 1460 224 q 1469 144 1469 172 q 1331 7 1469 7 q 1213 3 1271 7 q 1096 -1 1154 -1 q 990 10 1038 -1 q 909 48 943 21 q 856 119 875 75 q 838 228 838 163 z "}}}
